<?xml version="1.0" encoding="UTF-8"?>
<svg xmlns="http://www.w3.org/2000/svg" version="1.1" xmlns:xlink="http://www.w3.org/1999/xlink" viewBox="0 0 1080 1080">
  <defs>
    <style>
      .cls-1 {
        fill: #2b2b29;
      }

      .cls-2 {
        fill: #1e1e1e;
      }

      .cls-3 {
        fill: #ffedd2;
      }

      .cls-4 {
        fill: #252421;
      }

      .cls-5 {
        stroke-width: 2.52px;
      }

      .cls-5, .cls-6, .cls-7, .cls-8, .cls-9, .cls-10 {
        fill: none;
      }

      .cls-5, .cls-7, .cls-8, .cls-9, .cls-10 {
        stroke: #000;
        stroke-linecap: round;
        stroke-linejoin: round;
      }

      .cls-11 {
        fill: #d3544f;
      }

      .cls-12 {
        fill: #c1ab93;
      }

      .cls-13 {
        clip-path: url(#clippath-1);
      }

      .cls-14 {
        fill: #8b4513;
      }

      .cls-15 {
        fill: #bb3e39;
      }

      .cls-16 {
        fill: #a28d77;
      }

      .cls-7 {
        stroke-width: 8.82px;
      }

      .cls-17 {
        fill: #212121;
      }

      .cls-8 {
        stroke-width: 5.8px;
      }

      .cls-18 {
        fill: #d4a76a;
      }

      .cls-9 {
        stroke-width: 7.33px;
      }

      .cls-10 {
        stroke-width: 7.56px;
      }

      .cls-19 {
        fill: #d74d4d;
      }

      .cls-20 {
        fill: #f2dcbd;
      }

      .cls-21 {
        fill: #4a4944;
      }

      .cls-22 {
        clip-path: url(#clippath);
      }
    </style>
    <clipPath id="clippath">
      <circle class="cls-6" cx="540" cy="-632.57" r="514.7"/>
    </clipPath>
    <clipPath id="clippath-1">
      <circle class="cls-6" cx="540" cy="540" r="514.7"/>
    </clipPath>
  </defs>
  <!-- Generator: Adobe Illustrator 28.7.2, SVG Export Plug-In . SVG Version: 1.2.0 Build 154)  -->
  <g>
    <g id="Layer_1">
      <g class="cls-22">
        <g>
          <g>
            <g>
              <path class="cls-18" d="M615.35,95.53s-.02-.06-.04-.09c-.01-.04-.03-.08-.04-.1,0-.02-.01-.04-.01-.04-.39-.13-.77-.28-1.14-.41h0c-1.59-.57-3.14-1.12-4.67-1.66-.89.19-1.63.36-2.19.52l8.1,1.77Z"/>
              <path class="cls-18" d="M1233.96,412.66s-.39.04-1.11.11h0c-8.37.88-61.37,6.38-62.64,5.34-.33-.26-2.39-1.4-5.35-2.95-9.25-4.89-27.25-14.07-27.69-14.3,0,0,0,0,.01-.01,0,0,0,0,0-.01.77-.75,13.75-13.53,12.45-33.79-1.33-20.89-9.9-71.72-13.84-94.76v-.02c-3.93-23.03-12.6-36.46-43.24-65.28-30.64-28.82-54.99-62.4-54.99-62.4L948.5-10.26l-34.11-18.68-1.23,3.21-61.97,161.98.92,38.31,1.38,57.09,3.08,127.28-105.49,45.21-4.77,2.04v-20.34s1.19-3.84,5.66-8.86c4.47-5.02,12.24-11.23,25.41-15.96,26.33-9.47,34.85-49.46,36.37-75.59,1.12-19.24,2.44-44.02-3.21-61.73-2.02-6.36-4.94-11.82-9.1-15.77-1.45-1.38-2.97-2.85-4.53-4.41h-.01c-.38-.38-.77-.77-1.16-1.16-.94-.93-1.9-1.9-2.87-2.88-1.36-1.39-2.75-2.8-4.12-4.24-.46-.48-.92-.96-1.38-1.43-4.16-4.31-8.27-8.69-11.97-12.65-.4-.43-.79-.85-1.18-1.27-.44-.48-.88-.96-1.32-1.43-.35-.37-.68-.73-1.01-1.1-1.32-1.43-2.56-2.76-3.67-3.99-.18-.19-.35-.38-.51-.57-.52-.55-1-1.08-1.45-1.57-.2-.22-.39-.43-.57-.63-.03-.03-.06-.06-.08-.09-1.63-1.79-2.81-3.1-3.41-3.77-.28-.33-.44-.49-.44-.49-3.85-1.72-7.61-4.06-11.21-6.8l-.02-.02c-3.33-2.52-6.52-5.39-9.55-8.42-16.24-16.31-27.56-37.53-27.56-37.53-1.79,1.95-3.37,3.75-4.81,5.4-.6.7-1.19,1.37-1.75,2.01,0,0-25.48-25.36-24.24-38.67-1.28-2.01-1.98-3.14-1.98-3.14-2.03.93-3.91,1.84-5.66,2.7-11.04,5.47-16.93,9.52-21.29,9.13h0c-3.41.21-5.88-1.85-7.88-5.14-1.7.5-7.03,2.02-14.68,3.93-2.27.34-4.59.69-6.87,1.04-5.86.89-11.39,1.78-14.79,2.5-43.38-15.39-61.63-21.55-69.15-24h0s-.01,0-.02,0c-4.29-1.39-5.08-1.57-5.08-1.57l-67.55-9.47h0l-2-.28-.36-.06h0s-5.78,35.53-5.78,35.53h0s-19.74,121.46-19.74,121.46v.04l-.22,42.75h0s-.93,184.19-.93,184.19l-8.16,50.24h0s-5.16,31.78-5.16,31.78c-.01.02-.01.04-.02.06l-35.5,34.62-7.31-1.04-24.76-3.51h0l-12.21-1.74h0s0,0-.01,0l-24.55-3.48-5.1-16.03s0,0,0,0h0s-9.71-30.57-9.71-30.57c0,0,8.57-3.21,18.79-12.85h0s.04-.04.06-.06c9.18-8.65,19.67-22.5,26.52-43.84.13-.39.26-.78.37-1.16.22-.72.44-1.41.65-2.11,6.86-23.18,9.93-39.47,10.16-56.46.24-17.56-2.53-35.87-7.29-63.32-.01-.11-.04-.22-.06-.33-6.39-36.82-21.18-99.21-30.79-145.19,0,0,0-.03,0-.05-2.97-14.26-5.45-26.92-7.02-36.78-.02-.13-.04-.27-.06-.4-.8-5.09-1.36-9.42-1.61-12.79,0-.04,0-.09,0-.13-1.11-14.73-2.02-36.61-3.36-56.9-1.16-17.51-2.64-33.84-4.85-43.37-.01-.04-.02-.09-.04-.11-.55-2.4-1.15-4.37-1.82-5.81,0-.02-.02-.04-.02-.06-.02-.04-.04-.09-.06-.13-6.37-13.33-39.05-53.54-45.5-98.07-5.1-35.13,3.64-126.83,7.56-163.95,0-.01,0-.02,0-.04.07-.7.13-1.36.21-2.02h0c.08-.68.15-1.34.21-1.97h0c.09-.9.18-1.75.27-2.56h0c.65-5.94,1.05-9.36,1.05-9.36l1.36-17.9,5.37-70.77h0s2.05-27.07,2.05-27.07v-.21s0,0,0,0l.43-5.68v-.03h0s.11-1.28.11-1.28h0s.3-3.98.3-3.98h0s.82-10.79.82-10.79l-2.5-4.88-6.59-12.89h0s-3.4-6.66-3.4-6.66l1.45-.11,7.98-.6h.01l23.01-1.73h.01l2.2-.16h.01l32.92-2.48s0,0,0,0l105.07-7.86,1.09-.09h0l159.72-11.97h.04l2.79-.21,16.85-1.27h0l42.12-3.15,17.88-3.97,13.52-2.99h.03s.16-.05.16-.05h0l37.73-8.36,1.56-.35h0l3.26-.72h0l.38-.09h.01s0,0,0,0l9.93-2.19,1.97-.44,9.27-2.05.97-.22h.01c.21.16,3.39,2.33,9.13,5.72,3.34,1.96,7.55,4.34,12.55,6.96,11.7,6.12,27.73,13.6,47.21,20.4,0,0,.01,0,.02,0,.06.03.11.05.18.06t.01,0c.08.02.15.05.23.07,18.83,6.56,40.85,12.47,65.22,15.88,1.11.16,2.21.32,3.34.46h0c3.37.44,6.79.84,10.25,1.17h.01c1.53.15,3.05.29,4.58.42,1.38.11,2.75.24,4.12.37h.02c25.88,2.38,50.2,6.88,72.4,13.95.19.06.39.12.58.18h.01c10.88,3.49,21.23,7.61,31.01,12.39l.04.02h0c1.55.76,3.07,1.53,4.58,2.33,0,0,.02.01.03.01,22.02,11.48,40.91,26.58,55.84,45.97h0c.88,1.15,1.74,2.29,2.58,3.47.11.14.23.3.33.46.16.21.31.4.45.62,1.03,1.43,2.04,2.89,3.03,4.39,0,.01,0,.02.01.03.02.03.04.05.06.08,6.32,9.53,11.77,19.99,16.28,31.45,23.28,59.24,47.9,89.41,62.03,168.93,0,.01,0,.04,0,.05,0,.04.01.09.02.13,4.01,22.63,7.17,49.26,9.22,81.68,7.2,114.31,6.15,175.82,8.83,205.46,0,.04,0,.09,0,.11.76,8.28,1.8,14.07,3.42,17.81h0c3.07,7.15,5.43,11.99,7.69,15.95,0,0,.01.02.01.03,0,.01.01.03.02.04,0,0,0,.02,0,.03.04.08.09.17.15.27,3.07,5.34,5.95,9.1,10.08,14.92,2.97,4.18,4.64,12.61,5.85,23v.04s0,.01,0,.02c1.75,15.05,2.57,34.19,5.05,50.39,4.2,27.41,18,137.82,18,137.82Z"/>
            </g>
            <path class="cls-3" d="M1177.67,51.49c-17.53-206.46-35.62-261.04-90.92-366.78-55.3-105.73-254.1-102.46-254.1-102.46l-9.59-7.1v-13.84c45.75,7.68,121.81,20.23,152.71,26.72,52.86,11.09,121.2,72.2,146.98,132.29,25.79,60.07,36.88,95.66,45.13,161.68,4.45,35.64,7.1,106.84,9.79,169.49Z"/>
            <path class="cls-12" d="M907.15,195.8s0,0,0,.01c-.25,1.43-16.44,92.75-27.18,140.78-10.82,48.39-21.5,76.36-46.88,81.66-25.39,5.32-36.94,2.65-36.94,2.65h0c-.37.11-11.78,3.39-25.39,1.89-13.82-1.51-20.08-11.36-20.08-11.36l-4.36,2.64v-28.22s4.73-15.36,31.08-24.82c26.33-9.47,34.85-49.46,36.37-75.59,1.12-19.24,2.44-44.02-3.21-61.73-2.02-6.36-4.94-11.82-9.1-15.77-1.45-1.38-2.97-2.85-4.53-4.41l55.21-28.97,35.8-18.78c.06.18.12.35.18.51.19.57.39,1.16.59,1.72,1.36,3.91,2.8,7.59,4.24,10.99.42,1.01.84,1.98,1.26,2.94.5,1.09.98,2.14,1.45,3.17.15.33.3.64.45.95,1.01,2.15,2.02,4.15,2.97,5.98.22.43.44.84.65,1.24,2.41,4.56,4.5,8,5.84,10.11.11.16.21.33.31.49.81,1.25,1.27,1.91,1.27,1.91Z"/>
            <path class="cls-3" d="M385.06,550.96l-7.24,18.07c-5.86.3-11.49-.88-16.65-4.41-19.54,12.68-41.78,5.08-50.27-2.38-17.91,8.35-22.98-8.95-22.98-8.95,0,0-8.65-1.05-4.78-17.75.51-2.21,1.04-4.34,1.6-6.38,3.67-13.38,9.1-23.32,26.45-32.26,11.03-5.68,18.79-9.91,24.98-17.26,15.45,8.29,34.3,2.88,55.62,18.53,27.98,20.55-5.32,52.44-6.73,52.8Z"/>
            <path class="cls-3" d="M269.42-92.86c5.34,26.38,11.27,43.27,24.31,56.31s29.64,29.94,50.68,30.53c21.04.59,26.68-31.42,26.68-31.42l-5.04-44.43,116.04,32.43s47.87-1.93,72.47,22.37,48.31,41.79,77.65,32.6c29.34-9.19,66.69-64.85,72.02-89.19,5.34-24.33-25.77-52.49-37.34-62.27s-66.27-13.93-81.9-10.37c-15.63,3.56-53.86,33.2-62.46,37.94-8.6,4.74-76.47-7.71-76.47-7.71l-100.43,7.98s-26.42-22.51-34.72-29.32c-8.3-6.82-24.3.89-30.82,10.67-6.52,9.78-10.68,43.87-10.68,43.87Z"/>
            <path class="cls-14" d="M1153.51,359.13h0c-1.69,11.42-3.21,18.64-3.21,18.64h0c.31-5.07.07-11.53-.77-20-.31-3.15-.65-6.34-.99-9.55-.35-3.2-.7-6.42-1.07-9.65-.17-1.42-.33-2.83-.5-4.24-.18-1.58-.38-3.17-.58-4.73-.19-1.58-.4-3.15-.61-4.73-.2-1.56-.42-3.12-.63-4.68-.45-3.23-.92-6.44-1.41-9.61-.13-.86-.27-1.72-.4-2.56-.12-.75-.24-1.48-.37-2.21-.05-.33-.11-.67-.17-.99-.43-2.62-.89-5.22-1.37-7.78-.25-1.4-.52-2.77-.79-4.14-.07-.37-.13-.74-.22-1.1-.17-.88-.35-1.75-.53-2.62-.13-.65-.26-1.29-.41-1.93-.17-.8-.35-1.61-.53-2.41-.4-1.78-.8-3.54-1.23-5.28-.11-.49-.23-.99-.35-1.48-.25-.97-.49-1.94-.75-2.9-.16-.62-.33-1.23-.49-1.83-.09-.35-.19-.72-.3-1.06v-.02c-.11-.4-.22-.79-.33-1.19-.16-.59-.33-1.16-.5-1.74-.18-.66-.38-1.31-.58-1.96-.39-1.3-.79-2.58-1.21-3.85-.17-.51-.35-1.04-.51-1.54-.06-.19-.13-.38-.2-.57-.15-.45-.31-.89-.46-1.33-.23-.66-.47-1.31-.71-1.96-.24-.65-.48-1.28-.72-1.92-.45-1.17-.92-2.33-1.4-3.46-.47-1.14-.95-2.23-1.45-3.31-.25-.54-.5-1.07-.75-1.6-.5-1.06-1.01-2.08-1.56-3.08-.26-.5-.53-.99-.81-1.48-.26-.49-.53-.97-.82-1.43-.28-.47-.55-.93-.84-1.39-.29-.48-.58-.94-.88-1.38-.28-.43-.56-.85-.86-1.27-.27-.4-.55-.79-.84-1.18-.33-.44-.64-.86-.97-1.28-.31-.4-.61-.79-.93-1.16-.31-.38-.63-.75-.96-1.11-.23-.26-.46-.52-.69-.77-.42-.45-.84-.88-1.27-1.3-21.38-20.99-72.15-70.24-104.22-115.67-32.07-45.43-61.47-110.71-85.89-132.46,0,0-42.54,69.06-45.29,119.81-.12,2.25-.18,4.49-.18,6.71,0,1,.01,2,.04,2.99,0,.1,0,.21,0,.31.02.8.05,1.6.09,2.39.01.31.02.62.04.92.04.81.09,1.6.13,2.39.04.38.06.77.1,1.15.06.79.12,1.59.21,2.39.1,1,.2,2.01.32,3,.32,2.75.73,5.44,1.2,8.08.09.49.17.97.26,1.45.11.57.21,1.14.33,1.69.43,2.16.9,4.26,1.41,6.34.16.68.33,1.36.51,2.03.02.13.06.26.09.39.11.44.23.88.35,1.31.89,3.3,1.85,6.48,2.87,9.52.06.18.12.35.18.51.19.57.39,1.16.59,1.72,1.36,3.91,2.8,7.59,4.24,10.99.42,1.01.84,1.98,1.26,2.94.5,1.09.98,2.14,1.45,3.17.15.33.3.64.45.95,1.01,2.15,2.02,4.15,2.97,5.98.22.43.44.84.65,1.24,2.41,4.56,4.5,8,5.84,10.11.11.16.21.33.31.49.81,1.25,1.27,1.91,1.27,1.91,0,0,0,0,0,.01l-17.03,36.69c-14.61-51.15-27.95-64.91-27.09-28.37.32,13.01-3.94,21.72-9.53,27.53-10.11,10.53-24.68,11.6-24.68,11.6,0,0-9.27-11.77-18.27-19.55-2.02-6.36-4.94-11.82-9.1-15.77-1.45-1.38-2.97-2.85-4.53-4.41h-.01c-.38-.38-.77-.77-1.16-1.16-.94-.93-1.9-1.9-2.87-2.88-1.36-1.39-2.75-2.8-4.12-4.24-.46-.48-.92-.96-1.38-1.43-4.16-4.31-8.27-8.69-11.97-12.65-.4-.43-.79-.85-1.18-1.27-.44-.48-.88-.96-1.32-1.43-.35-.37-.68-.73-1.01-1.1-1.32-1.43-2.56-2.76-3.67-3.99-.18-.19-.35-.38-.51-.57-.52-.55-1-1.08-1.45-1.57-.2-.22-.39-.43-.57-.63-.03-.03-.06-.06-.08-.09-1.94-2.08-11.59-6.27-14.34-9.49-.47-.56-.74-1.09-.72-1.57l-.02-.02-9.55-8.42-21.4-18.9-12.72-11.23s-25.48-25.36-24.24-38.67c.19-2.1,1.06-3.9,2.8-5.26h0c.04-.24,1.03-.62,2.66-1.11.01,0,.03-.01.04-.01,9.04-2.7,37.7-8.6,37.91-9.98.11-.74.28-1.41.49-1.99.06-.14.11-.28.16-.4.13-.33.29-.64.46-.92,2.95-5.02,10.48-3.87,17.78-8.82,1.13-.77,2.25-1.67,3.35-2.78,0,0,.01-.01.02-.02,1.96-1.97,3.84-4.55,5.55-7.99,14.11-28.44,21.79-62.49,25.76-90.58,3.65-25.83,4.17-46.64,3.66-53.44,3.14,15.75,6.1,26.5,8.93,33.78,7.05,18.16,13.36,14.74,20.11,13.51,1.55-.28,3.53-3.25,5.71-8.3,9.57-22.01,23.15-83.44,22.08-132.29-.19-8.49-.82-16.61-1.99-24.07-9.46-60.18-.86-84.69-19.35-106.61-.38-.44-.74-.89-1.09-1.34-.09-.1-.16-.2-.23-.3-17.25-21.84-18.88-52.36-18.88-52.36,0,0-1.29,27.9-.86,46.53-14.61-58.31-24.93-73.76-24.93-73.76,0,0-17.55,33.23-39.44,64-8.94,12.56-18.61,24.72-28.1,34.03h0c-.6.59-1.19,1.17-1.79,1.72h0s0,0,0,0c-2.11,2.01-4.23,3.87-6.32,5.54l-4.75-4.75-3.92-3.92-3.58-3.58c-.92-.92-1.8-1.8-2.65-2.65h0l-19.47-19.47,13.33-16.35,10.29-12.62,71.64-87.84,6.28-7.71.16-.2h0s4.12-5.06,4.12-5.06l2.5-3.07,10.06,10.02,63.02,62.83s6.59,20.13,14.06,49.39c.28,1.12.57,2.25.86,3.4h0c.47,1.88.94,3.79,1.41,5.73.04.15.07.29.11.44.64,2.63,1.28,5.32,1.92,8.05,1.45,6.18,2.89,12.63,4.29,19.24.92,4.37,1.82,8.82,2.68,13.33,1.81,9.45,3.48,19.15,4.9,28.9h0c1.18,7.98,2.17,16,2.93,23.93.89,9.16,1.48,18.22,1.67,26.99.05,2.16.09,4.3.09,6.44h0c.04,4.38.04,8.69-.05,12.96-.52,32.65-4,62.22-7.54,84.41-1.02,6.42-2.05,12.21-3.02,17.28-2.82,14.79-5.09,23.47-5.09,23.47,0,0,.31-.1.89-.31,1.46-.53,4.65-1.74,9.01-3.85.28-.13.55-.26.84-.41h0c20.35-10.05,63.96-38.6,80.51-104.19,33.54,75.23,22.36,142.29,27.95,175.83,5.59,33.53,52.02,49,72.22,109.62,20.2,60.61,64.91,87.69,90.28,132.4,18.38,32.4,12.89,91.42,8.47,121.46Z"/>
            <path class="cls-14" d="M615.35,95.53s-.02-.06-.04-.09c-.01-.04-.03-.08-.04-.1,0-.02-.01-.04-.01-.04-.22.06-.45.11-.67.16-.2.05-.4.1-.6.14,0,0-.06.01-.16.04-2.26.52-4.52,1.01-6.77,1.48-1.15.24-2.3.47-3.44.7-1.15.22-2.29.44-3.43.65-1.14.21-2.28.4-3.41.6-1.14.19-2.26.37-3.39.55-4.52.7-8.99,1.26-13.41,1.69-.97.09-1.94.18-2.9.26-.32.03-.63.05-.95.08-.8.06-1.6.12-2.41.18-.14,0-.28.01-.43.03-2.08.13-4.15.24-6.2.31-.16,0-.31,0-.47.01-.94.03-1.87.06-2.81.07h-.11c-1.05.02-2.1.03-3.14.03h-.08c-.7,0-1.38,0-2.07-.01-.55,0-1.09-.01-1.63-.03-.62,0-1.23-.03-1.85-.05-.36,0-.73-.02-1.09-.04-.47-.01-.94-.04-1.41-.06-.52-.03-1.03-.05-1.55-.09-.52-.03-1.03-.06-1.54-.09-.48-.03-.94-.06-1.42-.1-.38-.03-.77-.06-1.14-.09-.37-.03-.73-.06-1.09-.09-1.5-.13-2.99-.28-4.46-.46-.43-.05-.87-.11-1.3-.16-.47-.06-.94-.12-1.42-.19-.59-.08-1.18-.16-1.77-.26-.52-.08-1.04-.16-1.56-.25-1.09-.17-2.18-.36-3.25-.57-.36-.07-.72-.13-1.07-.21-.35-.07-.71-.14-1.06-.21-.51-.1-1.01-.21-1.52-.32,0,0-.02,0-.03,0-.05-.01-.09-.02-.14-.04h-.02c-1.21-.27-2.4-.55-3.58-.85-.46-.11-.92-.23-1.38-.35-2.33-.62-4.63-1.31-6.88-2.07-.4-.13-.8-.27-1.19-.4-.12-.04-.25-.09-.37-.13-.43-.14-.84-.3-1.26-.45-1.68-.61-3.34-1.26-4.96-1.97-.43-.18-.85-.36-1.28-.55,0,0-.02,0-.03-.01-.48-.21-.96-.43-1.43-.65-.53-.24-1.06-.49-1.59-.75-.62-.31-1.23-.61-1.85-.92-.49-.25-.97-.5-1.45-.76-.29-.15-.57-.31-.86-.46-.44-.24-.87-.48-1.31-.73-.59-.33-1.18-.68-1.77-1.03-.57-.34-1.14-.69-1.7-1.04-.04-.02-.09-.06-.14-.09-.48-.31-.96-.61-1.43-.93-.13-.08-.27-.17-.4-.26-.4-.26-.79-.53-1.19-.8-1.33-.92-2.65-1.87-3.92-2.87-.39-.3-.77-.6-1.16-.91-.06-.05-.13-.1-.18-.15-.4-.32-.79-.64-1.18-.97-.61-.51-1.22-1.04-1.82-1.57-.26-.23-.53-.47-.79-.71-.35-.31-.7-.64-1.05-.97-.31-.28-.62-.57-.92-.87-.28-.27-.56-.55-.84-.82-.39-.38-.78-.78-1.16-1.18-1.19-1.22-2.35-2.49-3.47-3.8-.32-.38-.65-.76-.97-1.14-.75-.89-1.48-1.81-2.19-2.75,0-.01-.02-.02-.03-.04-.38-.5-.75-.99-1.12-1.5-.38-.51-.75-1.02-1.11-1.55-.4-.56-.78-1.14-1.17-1.71-.33-.49-.65-.98-.97-1.48-.03-.04-.06-.09-.08-.13-.1-.14-.19-.28-.28-.43-.35-.55-.69-1.11-1.03-1.67h0c-.09.06-.18.13-.27.21s-.18.15-.27.23c-.09.08-.18.16-.26.26-.08.09-.16.18-.24.27-.01.01-.03.03-.04.04-.04.04-.08.09-.11.13h0s-.09.1-.11.15c-.01.01-.02.02-.03.04h0s0,0,0,0c-.13.17-.26.35-.38.55-.1.16-.2.32-.3.49,0,.01-.01.03-.02.04-.11.18-.21.38-.31.57-.66,1.31-1.23,2.92-1.73,4.8-.05.18-.1.36-.15.55-.09.33-.16.67-.24,1.01-.22.93-.42,1.92-.6,2.94-.09.44-.16.89-.23,1.35-.04.26-.09.51-.12.77-.08.52-.16,1.04-.23,1.58l-.11.81c-.11.82-.21,1.65-.3,2.5-.12,1.12-.23,2.28-.33,3.46-.13,1.5-.23,3.04-.33,4.61-.02.31-.04.62-.06.94-.09,1.57-.16,3.17-.23,4.78-.03.78-.06,1.57-.08,2.36-.01.38-.02.75-.04,1.12,0,.1,0,.2,0,.3h0c-.02.74-.04,1.46-.05,2.19-.01.58-.03,1.16-.04,1.75,0,.36,0,.73-.01,1.09,0,.55-.01,1.11-.01,1.67-.04,4.49-.01,8.95.05,13.16.35,22.62,5.39,75.78-1.43,140.76-6.83,65-7.17,118.61-5.08,136.21,2.09,17.61-1.63,24.16-5.52,36.54-3.87,12.39.6,30.88-2.38,47.3-2.99,16.4-13.43,18.19-13.43,18.19,0,0-.08.65-.24,1.82-.03.17-.05.35-.08.55-.02.13-.04.26-.06.4-.02.13-.04.26-.06.4-.02.18-.05.37-.08.57-.04.25-.08.5-.12.77-.12.81-.26,1.71-.43,2.69-.04.27-.09.55-.13.83-.07.43-.15.86-.23,1.31-.08.45-.16.92-.24,1.39-.43,2.39-.93,5.07-1.53,7.93-.18.84-.36,1.68-.55,2.55-.13.59-.26,1.19-.4,1.8-.13.59-.27,1.18-.41,1.77-.14.6-.29,1.21-.44,1.82-.4,1.65-.84,3.31-1.3,4.97-.27.99-.55,1.98-.85,2.97-.28.97-.58,1.94-.89,2.9-.61,1.92-1.26,3.83-1.94,5.66-7,18.79-8.65,22.08-22.08,27.75-.45.19-.91.38-1.37.57-.04.01-.08.03-.11.05-.42.17-.84.34-1.26.5-.46.18-.91.36-1.37.53-.28.11-.55.21-.82.32-.05.02-.1.04-.15.06-.28.11-.56.21-.84.31-.25.09-.49.18-.74.26-.62.22-1.24.43-1.86.63-.37.11-.73.23-1.1.35-.01,0-.04,0-.05.01-.43.13-.84.26-1.28.38-.05.01-.1.03-.15.04-.42.12-.84.23-1.26.35-.05.01-.1.03-.16.04-.38.09-.76.18-1.15.28-.45.11-.9.21-1.35.31-.45.09-.89.18-1.34.27-.06.01-.13.02-.19.04-.27.05-.54.09-.82.13-.33.05-.67.1-1,.15,0,0-.02,0-.03,0-.32.04-.63.08-.94.11-.34.04-.68.08-1.02.11-.06,0-.12,0-.18.01-.83.07-1.64.1-2.46.11-.15,0-.31,0-.46,0-.24,0-.48,0-.73,0-.24,0-.48-.01-.72-.03l-.43-.02c-.09,0-.18,0-.26-.02-.5-.04-.99-.08-1.48-.14-.04,0-.09,0-.13-.01-.04,0-.07,0-.11-.01-.07,0-.14-.02-.21-.03-.16-.02-.33-.04-.48-.07-.03,0-.06,0-.08-.01-.06,0-.13-.01-.18-.03-.08-.01-.16-.03-.23-.04-.24-.04-.48-.09-.71-.13-.55-.11-1.09-.24-1.63-.4-.09-.02-.18-.04-.27-.07-.09-.03-.17-.06-.26-.08-.11-.04-.22-.07-.33-.11-.11-.03-.22-.07-.33-.11h0c-.29-.09-.57-.19-.87-.3-.17-.06-.34-.13-.51-.21-.08-.03-.16-.06-.23-.09-.2-.07-.4-.16-.59-.25-.11-.05-.23-.1-.35-.16-.18-.08-.37-.17-.55-.27-.06-.02-.13-.06-.2-.09-.18-.09-.36-.18-.54-.28-.4-.21-.81-.44-1.21-.69-.12-.07-.25-.15-.37-.23h0s-.07-.05-.11-.07c-.26-.16-.51-.33-.77-.5-19.54,12.68-41.78,5.08-50.27-2.38-17.91,8.35-22.98-8.96-22.98-8.96,0,0-8.65-1.04-4.78-17.75.51-2.21,1.04-4.34,1.6-6.38-1.16,5.53,8.13,5.75,8.13,5.75h0c.06.35,2.21,12.31,11.41,11.95,4.84-.18,7.17-2.37,8.3-4.44,1.01-1.85,1.06-3.59,1.06-3.73,0,0,5.72,11.76,15.41,16,6.03,2.62,10.25,2.02,16.39-2.43,0,0,0,0,0,0,3.73-2.7,8.17-6.81,14.15-12.48t.01-.01c3.11,13.48,20.2,11.96,32.81,3.51,2.07-1.38,4.01-2.95,5.76-4.67,12.38-12.21,20.01-56.77,20.01-56.77,6.52-39.41,9.78-56.01,9.49-104.07-.29-48.07-13.93-66.95-26.08-131.56-12.16-64.61-10.08-115.3-18.96-177.84-4.29-30.18-12.45-57.05-21.35-83.04-9.53-27.85-19.91-54.7-27.27-83.53-3.46-13.55-9.06-28.32-15.56-42.89-20.2-45.36-49.05-88.94-49.05-88.94l-1.06-7.09-.69-4.61-.29-1.98.5-.08.99-.16.72-.11.57-.09,19.05-2.95,14.96-2.31,26.95-2.28,18.19-1.53,38.56-3.26,84.1-7.11,3.84-.32,9.74-.82,150.81-12.74,23.14-1.96,23.19-1.96s-1.65,1.6-4.53,4.36c-.02.03-.04.05-.06.06-.53.5-1.09,1.04-1.7,1.61-9.44,8.97-28.18,26.51-47.15,42.67-3.95,3.36-7.91,6.67-11.8,9.83-11.89,9.65-23.12,17.91-31.31,22.18-23,12.01-53.13,47.53-62.88,81.9-2.59,9.13-3.75,18.18-2.95,26.68,1.21,12.88,8.18,27.4,17.83,42.11,5.42,8.27,11.7,16.59,18.27,24.73h.01c4.46,5.54,12.54,10.03,17.11,15.29,14.41,16.58,32.15,11.41,40.62,22.17,5.12,6.51,14.02,22.69,16.65,31.6,3.47,11.7-7.2,37.61-6.45,48.75l-9.01,2.95Z"/>
            <path class="cls-1" d="M904.4-212.01s.11-1.52.28-3.7c0-.03,0-.05,0-.08,0,0,0,0,0,0,.38-5.18,1.01-13.99.97-15.1v-.06s0-.05,0-.07c0-.03,0-.06-.01-.09,0-.02,0-.04,0-.06-.13-.87-.61-3.5-1.09-6.89v-.04s0-.04,0-.05c-.25-1.81-.5-3.85-.69-5.94v-.03c-.2-2.19-.34-4.44-.34-6.58,0-5.11-.84-8.85-1.57-13.07h0v-.02c-.47-2.76-.88-5.71-.94-9.42-.05-2.95-.69-6.5-1.53-9.98,0,0,0-.01,0-.02-1.24-5.12-2.94-10.06-3.9-12.75h0c-.46-1.29-.75-2.04-.75-2.04,0,0,2.03-4.54,0-14.01l-.02-.13c-1.77-8.25-4.91-21.95-15.73-28.97t-.01-.01h0c-1.64-1.07-3.46-1.99-5.48-2.7-.52-3.42-1.21-6.87-2.06-10.33-3.63-14.92-9.96-29.84-15.93-41.93-.02-.04-.04-.07-.06-.11-.01-.04-.04-.07-.05-.11-.48-.86-.97-1.72-1.48-2.58-.5-.87-1.01-1.74-1.53-2.61-.46-.79-.94-1.59-1.41-2.39-.16-.25-.31-.5-.46-.76-.43-.71-.87-1.43-1.31-2.14-.54-.89-1.09-1.79-1.65-2.68-.56-.9-1.12-1.8-1.7-2.7-1.15-1.81-2.33-3.63-3.53-5.47-2.82-4.33-5.81-8.73-8.93-13.19-1.04-1.48-2.09-2.98-3.17-4.48-.57-.8-1.17-1.6-1.77-2.38l-.02-.02s-.02-.04-.04-.05c-2.25-2.9-4.73-5.69-7.4-8.37-.31-.31-.62-.62-.94-.93-.94-.92-1.91-1.84-2.89-2.73-.33-.3-.66-.6-.99-.89-.55-.49-1.11-.98-1.67-1.46-.26-.23-.52-.45-.79-.67-.45-.38-.9-.76-1.36-1.13-.19-.17-.38-.33-.57-.48-.43-.35-.86-.7-1.29-1.03-.25-.21-.5-.4-.75-.6-.57-.45-1.14-.89-1.72-1.33-.09-.07-.17-.13-.26-.19-.54-.41-1.08-.82-1.63-1.21-.2-.15-.4-.3-.6-.44-.68-.49-1.36-.98-2.04-1.45-.74-.53-1.48-1.04-2.22-1.54-.74-.5-1.48-1.01-2.24-1.5,0,0,0,0,0,0-.02,0-.04-.03-.06-.03l-31.81-17.26s-.02-.02-.03-.02l-.09-.04c-7-3.17-13.24-5.63-17.96-7.38l-7.08.24h0s-1.44-3.22-1.44-3.22l-.63-1.41-.15.71-.9,4.51,3.47,6.48.03.06,1.85,3.43.5.94,4.36,8.13,8.81,16.41,7.62,14.24s.57.21,1.58.65c.37.16.79.35,1.28.57,1.52.72,3.54,1.75,5.79,3.12,0,0,.01,0,.01,0,0,0,.01,0,.02.01,6,3.65,13.6,9.74,17.78,18.67.61,1.31,1.27,2.77,1.98,4.38,0,.01,0,.02.01.04t.01.01s0,0,0,.01c5.88,13.14,15.05,35.33,25.05,54.23,0,0,0,.01,0,.01,0,.01.01.01.01.01,3.82,7.22,7.75,13.95,11.67,19.52,0,0,0,0,0,.01h.01c.04.06.09.13.12.19.22,1.63.59,3.48,1.07,5.51.03.13.06.26.09.4,1.45,5.99,3.83,13.33,6.27,20.24.01.04.02.09.04.13,2.99,8.45,6.05,16.18,7.56,19.91,0,0,.01.02.01.03.56,1.4.91,2.24.94,2.34h0s0,0,0,.02h0c-.1.71-1.52,11.26,1.06,34.19.39,3.53.89,7.35,1.49,11.48-.36,3.2-.47,6.27-.38,9.21v.02c0,.06,0,.13,0,.2h0s0,.03,0,.04c.5,15.66,6.29,26.83,6.47,27.18h0s0,.02,0,.03c0,0,0,.02,0,.03-.36,1.53-8.25,35.38-8.53,61.86v.09c-.3,26.58-16.68,85.05-27.65,106.21-.01.03-.02.05-.04.07-.23.43-.43.83-.66,1.21-3.52,6.42-8.89,14.49-15.06,23.6-6.22,9.16-13.24,19.37-20.03,29.99-.02.03-.04.06-.06.09-.56.88-1.12,1.76-1.67,2.65-1.11,1.75-2.21,3.52-3.29,5.29-.26.4-.5.81-.75,1.22-5.34,8.77-10.33,17.69-14.39,26.44,0,0-.01,0-.01.02h.01c4.21.11,8.27-.2,12.17-.87,13.47-2.26,25.16-8.71,34.96-16.76,4.52-3.73,8.65-7.81,12.35-11.96.01-.01.03-.03.04-.04.01-.02.02-.03.04-.04,4.34-4.89,8.11-9.91,11.27-14.63h0s.05-.07.07-.11c3.85-5.37,8.57-13.71,13.61-23.84.03-.06.06-.13.09-.18.01-.03.03-.06.04-.09,8.42-16.98,17.69-38.9,25.13-60.24,2.36-6.76,4.53-13.46,6.44-19.93,1.7-5.74,3.19-11.3,4.4-16.56,9.55-41.23,13.73-84.5,13.73-84.5h0s0,0,0,0c.23-.13,4.03-2.22,7.85-6.23,3.96-4.15-1.26-9.19-1.26-9.19Z"/>
            <path class="cls-1" d="M767.17-437.31c-1.09,15.32-7.45,33.21-20.42,52.33-4.28,6.32-9.28,12.77-15.05,19.3-.02.03-.04.06-.07.09-2.99,3.38-5.63,6.37-7.98,9.03-13.06,14.8-16.85,19.09-17.95,20.33l-.45.51s.07.12.19.36c.03.06.06.11.08.16.69,1.41,2.46,5.56,2.65,11.57v.05c0,.09.01.19.01.28.09,4.22-.6,9.34-2.97,15.02h0c-2.1,5.05-5.53,10.55-10.9,16.29-1.15,1.23-2.36,2.47-3.65,3.73-.22.22-.44.44-.67.65-1.49,1.45-3.07,2.93-4.73,4.43-2.24,2.02-4.61,4.08-7.09,6.15-.02.03-.04.05-.06.06-3.03,2.54-6.23,5.12-9.55,7.72-24.2,18.94-55.1,39.15-76.94,54.79-6.37,4.56-14.01,10.13-22.19,16.49-7.44,5.79-15.32,12.24-23.1,19.2-9.52,8.5-18.88,17.76-27.05,27.49-.53.62-1.04,1.25-1.55,1.87-6.8,8.3-12.7,16.91-17.09,25.67-.11.23-.23.47-.35.7-.11.24-.23.48-.35.72-.03.05-.05.11-.08.16-.6,1.27-1.18,2.54-1.72,3.82-2.51,5.92-4.27,11.88-5.11,17.84,0,.01,0,.02,0,.04-2.48,17.73-2.21,35.14.46,51.27,4.22,25.46,14.41,47.78,29.15,63.36,24.1,25.47,71.8,39.02,88.96,34.55.51.92,22.18,3.59,22.69,4.46,2.35,4.1.25,5.69,2.44,8.86,13.14,19.09,6.16,22.79,8.89,23.41.5.11.76.13.76.13,0,0-.2.06-.58.17-1.7.5-7.03,2.02-14.68,3.93-2.11.53-4.39,1.09-6.83,1.67-3.8.89-7.95,1.83-12.36,2.75-.51.11-1.03.21-1.55.33-22.75,4.68-51.84,8.94-73.63,6.11-.01,0-.03,0-.04,0-.06,0-.12-.01-.18-.02-2.86-.38-5.59-.87-8.17-1.52-.04,0-.06-.01-.1-.02-.05-.01-.09-.02-.14-.04h-.01c-24.1-6.09-43.85-22.17-55.7-33.92,0,0-.01-.02-.02-.02t0-.01c-2.61-2.59-4.84-4.97-6.64-6.98-.04-.04-.06-.07-.09-.1-.08-.09-.15-.16-.21-.24h0c-3.34-3.76-5.14-6.17-5.14-6.17,0,0-31.27-24.5-56.93-57.77-.03-.03-.05-.06-.06-.09-3.48-4.51-6.86-9.19-10.03-13.99-.04-.05-.07-.11-.11-.16-2.74-4.14-5.32-8.37-7.71-12.65-.03-.05-.06-.11-.09-.16-4.99-8.99-9.87-18.6-14.7-28.49-1.01-2.07-2.02-4.16-3.02-6.25-8.43-17.53-16.7-35.68-25.03-52.62-10.23-20.81-20.57-39.78-31.45-53.51-17.15-21.67-32.74-48.12-41.77-68.64-.17-.38-.33-.75-.49-1.11-.26-.61-.53-1.22-.77-1.82-3.84-9.13-6.25-16.9-6.75-22.28-1.42-15.34-.38-22.08-.07-23.6.04-.23.07-.34.07-.34,0,0-3.11-1.28-5.95-4.19-2.87-2.92-5.47-7.48-4.39-14.03,2.18-13.06,8.48-43.99,11.47-49.52,2.78-5.15,6.14-3.15,7.64-7.96.11-.35.21-.74.3-1.16,0,0,0-.01,0-.02.1-.49.24-.97.42-1.41,1.17-2.95,3.85-4.71,6.91-3.55.15.06.31.12.46.2.43.2.87.47,1.31.79,1.84,1.36,3.73,3.83,5.44,7.74,3.34,7.61,19.1,39.9,45.46,64.47.03.03.06.05.09.09,15.53,14.45,34.74,26.2,57.24,28.67,4.14.45,8.4.6,12.77.38,26.21-1.31,48.07-4.69,67.15-9.94.05-.02.1-.04.16-.05,17.09-4.71,31.96-10.91,45.73-18.46,10.93-5.98,21.18-12.8,31.3-20.38,8.64-6.47,17.82-12.89,26.96-19.04,30.11-20.23,59.81-37.39,68.69-42.91.01,0,.03-.01.04-.02,6.8-4.23,11.4-5.94,16.02-5.17,2.62.43,5.24,1.66,8.27,3.69.66.44,1.34.92,2.04,1.43.07-.08.15-.15.23-.23.05-.05.11-.11.18-.18,3.5-3.54,29.34-29.81,48.57-53.24,7-8.54,13.14-16.71,16.98-23.26,0-.01.01-.02.01-.03,1.42-2.41,2.75-4.61,3.98-6.6h0c1.64-2.63,3.14-4.9,4.53-6.78t0,0c1.21-1.64,2.33-2.99,3.4-4.07,1.92-1.94,3.63-2.98,5.28-3.1,3.09-.23,5.93,2.76,9.31,8.96,1.09,1.98,2.22,4.29,3.45,6.93.57,1.24,1.1,2.52,1.57,3.84.31.88.6,1.77.86,2.68,1.75,6.02,2.43,12.77,1.9,20.11Z"/>
            <path class="cls-9" d="M466.61,56.53s-35.9-29.48-61.77-60.94c-25.87-31.46-44.05-80.41-60.6-116.77-16.55-36.36-52.21-81.81-70.39-115.6-18.18-33.8-6.53-44.28-10.99-54.77-6.8.23-9.98-6.29-9.05-18.18.93-11.89,4.43-53.84,15.62-54.57,2.56-14.25,6.76-14.65,15.38,0,0,0,43.91,109.15,141.94,92.28,98.03-16.88,122.27-55.66,175.14-87.98,52.88-32.32,54.88-30.68,65.01-22.34"/>
            <path class="cls-9" d="M466.61,56.53s-35.9-29.48-61.77-60.94c-25.87-31.46-44.05-80.41-60.6-116.77-16.55-36.36-52.21-81.81-70.39-115.6-18.18-33.8-6.53-44.28-10.99-54.77-6.8.23-9.98-6.29-9.05-18.18.93-11.89,4.43-53.84,15.62-54.57,2.56-14.25,6.76-14.65,15.38,0,0,0,43.91,109.15,141.94,92.28,98.03-16.88,122.27-55.66,175.14-87.98,52.88-32.32,54.88-30.68,65.01-22.34"/>
            <path class="cls-9" d="M269.42-364.31s29.85,112.03,148.35,109.87c118.5-2.15,268.6-124.6,324.97-220.48,0,0,5.03-13.65,15.08,3.23,10.05,16.88,33.75,49.91-52.79,134.3s-150.46,111.32-178.47,141.12c-28.01,29.8-69.3,91.21-54.22,151.89,15.08,60.69,66.79,98.03,86.18,108.08"/>
            <path class="cls-9" d="M275.91-346.91s-16.69,40.41-11.56,58.36c5.13,17.95,68.66,100.18,89.68,141.12,21.02,40.94,39.33,116.34,58.72,139.68,19.39,23.34,31.77,44.75,31.77,44.75"/>
            <path class="cls-9" d="M705.04-337.39s21.19,30.16-46.32,75.05c-67.51,44.89-162.31,105.57-166.97,171.28-4.67,65.71,18.7,140.86,139.08,142.54"/>
            <path class="cls-9" d="M585.01,49.81s-26.99,38.83-119.74,8.05"/>
            <g>
              <path class="cls-9" d="M855.59-205.61s-13.85,139.86-46.34,187.06c-32.49,47.2-47.6,62.2-45.69,72.83"/>
              <path class="cls-9" d="M897.85-198.29s-1.24,112.52-69.03,215.73"/>
              <path class="cls-9" d="M863.84-198.87s2.19,130.39-80.58,234.02"/>
            </g>
            <path d="M747.06,412.06c-.39-10.26,5.65-20.37,12.3-27.7,2.73-3.08,6.47-6.35,9.69-8.93-2.04,2.33-4.75,5.64-6.46,8.16-.48.74-1.64,2.53-2.1,3.24-.39.69-1.46,2.63-1.87,3.35-3.08,6.29-5.48,13.32-4.42,20.31,1.18,4.89-6.06,6.56-7.14,1.58h0Z"/>
            <path d="M792.97,421.23c-5.56-13.74-2.55-29.57,10.17-38.04-7.1,6.78-10.15,16.94-7.38,26.37.79,2.87,1.93,5.76,3.53,8.25,3.19,4.64-4.13,8.64-6.33,3.43h0Z"/>
            <path d="M284.26,553.38c.93-8.89,5.2-17.02,9.78-24.48,2.53-3.92,5.4-7.72,8.36-11.31,0,0,3.68-4.2,3.68-4.2-3.42,5.33-6.72,11.21-9.21,17.01-2.93,7.23-5.59,14.96-5.29,22.79,1.06,5.98-7.93,6.32-7.33.19h0Z"/>
            <path d="M307.3,562.9c-.6-11.01,2.96-21.84,7.84-31.53,2.16-4.18,4.83-8.34,7.57-12.15-5.41,10.73-9.15,22.66-9,34.74.02,2.2.19,4.4.57,6.55.07.39.17.87.24,1.08.65,1.94-.4,4.03-2.34,4.68-2.3.8-4.78-.94-4.87-3.36h0Z"/>
            <path d="M358.32,566.92c-7.32-12.46-1.49-27.84,6.12-38.64,0,0,3.31-4.38,3.31-4.38-3.36,6.18-6.46,13.13-7.37,20.08-.89,6.29-.36,12.98,3.44,18.12,3.38,3.71-2.19,8.66-5.5,4.82h0Z"/>
            <path d="M422.37,466.73c-.1,6.45.8,22.31,9.6,21.9,2.05-.11,3.79,1.47,3.9,3.51.11,2.05-1.47,3.79-3.51,3.9-3.7-.18-7.5-2.57-9.33-5.72-4.05-7.39-2.5-15.95-.65-23.59h0Z"/>
            <path class="cls-9" d="M615.32,95.45c-.03-.08-.05-.14-.05-.14-.42.1-.85.2-1.27.29-31,7.22-60.51,8.93-85.76,3.38l-.16-.03c-22.69-5.03-41.92-15.91-55.72-33.94-1.53-2-2.98-4.08-4.37-6.26-.14-.18-.25-.37-.37-.56-.35-.54-.69-1.1-1.03-1.67-.42.28-.82.67-1.19,1.14-.05.06-.1.13-.15.19-3.91,5.19-5.37,19.94-5.78,35.55-.18,6.69-.16,13.54-.06,19.86.36,22.62,5.38,75.77-1.43,140.76-6.83,65-7.16,118.61-5.08,136.22,2.09,17.61-1.63,24.16-5.52,36.54-3.88,12.39.6,30.89-2.39,47.3-2.98,16.4-13.43,18.19-13.43,18.19,0,0-1.92,15.68-6.3,31.59-.01.02-.01.04-.02.05-1.07,3.89-2.29,7.79-3.67,11.48-7.01,18.79-8.65,22.08-22.08,27.74-.91.39-1.83.76-2.74,1.12-.46.19-.91.37-1.37.53l-.97.38c-1.53.57-3.06,1.09-4.59,1.56-.43.14-.85.26-1.28.39-.42.13-.84.24-1.27.36-.09.02-.19.04-.29.07-.38.09-.76.19-1.15.28-.45.1-.9.21-1.35.3s-.89.19-1.34.27c-1.34.24-2.68.43-4,.54-.44.03-.88.06-1.32.08-.29.02-.59.02-.87.03-2.26.06-4.49-.1-6.66-.56-.56-.12-1.1-.25-1.63-.4-.18-.04-.36-.09-.53-.15-.22-.07-.43-.14-.65-.21-2.17-.71-4.27-1.74-6.3-3.13-19.54,12.68-41.78,5.08-50.27-2.38-17.91,8.35-22.98-8.95-22.98-8.95,0,0-8.65-1.05-4.78-17.75.51-2.21,1.04-4.34,1.6-6.38,3.67-13.38,9.1-23.32,26.45-32.26,5.26-2.71,9.78-5.08,13.74-7.65,4.34-2.78,8-5.77,11.24-9.61,5.04-5.98,9.04-14.02,12.91-26.6.81-2.62,1.6-5.15,2.37-7.62.13-.39.24-.78.37-1.16.22-.71.44-1.41.65-2.12,6.22-20.07,10.76-36.21,10.16-56.46-.06-2.4-.2-4.85-.42-7.37-1.11-12.87-3.4-32.73-6.87-55.95-.01-.1-.03-.22-.05-.34-3.96-26.47-9.46-57.26-16.52-87.02-5.39-22.73-10.25-40.73-14.28-58.16,0-.01,0-.03-.01-.05-2.78-12.08-5.15-23.87-7.02-36.77l-.06-.41c-.59-4.14-1.13-8.38-1.61-12.79-.01-.04-.01-.08-.01-.13-1.18-10.74-2.03-22.41-2.5-35.68-.28-7.95-.56-14.97-.86-21.22-1.01-21.28-2.27-33.69-4.85-43.37-.01-.04-.02-.08-.03-.12-.54-2.03-1.15-3.95-1.82-5.8-.01-.02-.02-.04-.02-.06-2.36-6.45-5.55-12.17-10.01-19.56-13.65-22.62-35.91-40.57-35.56-121.38.27-60.73,5.61-100.58,8.24-116.61.42-2.48.75-4.39,1.01-5.71.09-.49.17-.89.23-1.23.1-.47.17-.8.2-.94h0"/>
            <path class="cls-9" d="M828.12-438.45c5.16.86,10.53,1.75,16.01,2.67,13.47,2.26,27.74,4.69,41.97,7.16,1.09.19,2.17.38,3.26.57.42.07.85.15,1.27.22,5.54.96,11.05,1.94,16.5,2.9,25.02,4.44,48.51,8.81,65.62,12.34,1.03.21,2.04.42,3.03.63,5.9,1.24,11.98,3.1,18.19,5.52,10.14,3.94,20.59,9.35,30.98,15.95,20.41,12.93,40.63,30.37,57.95,49.96.06.06.13.14.19.21.02.01.03.03.05.05,1.39,1.58,2.78,3.18,4.14,4.81.83.97,1.64,1.95,2.45,2.93,13.78,16.8,25.31,34.88,33.03,52.86,23.49,54.74,34.79,89.15,42.86,144.77.79,5.41,1.54,11.04,2.27,16.9,4.45,35.64,7.1,106.84,9.79,169.49h0c1.79,41.7,3.59,79.62,5.98,100.74,0,.04.01.08.01.12.66,5.87,1.37,10.42,2.14,13.4.4,1.55.82,3.02,1.28,4.41h0c2.11,6.59,4.69,11.41,7.38,15.49,0,0,.02.02.05.07.02.04.04.07.07.1.03.04.06.1.1.17.02.03.05.07.06.1h.02c7.25,10.89,15.11,16.84,16.13,38.3.04.79.06,1.6.08,2.43.76,33.99,15.27,119.11,19.86,165.69.71,7.3,1.45,14.08,2.01,20.27,3.08,33.34,1.67,49.89-29.88,41.19-19.47,17.19-31.68,12.99-45.81,6.49-16.8,5.73-30.16-8.01-30.16-8.01,0,0-17.94-4.96-3.44-34.36,4.59-9.29,9.36-13.81,13.59-17.22.01-.01.02-.01.03-.03,6.84-5.48,12.24-8.03,13.11-23.08.3-5.06.07-11.52-.78-19.98-.31-3.15-.65-6.35-.99-9.55-.35-3.2-.7-6.42-1.07-9.66-.17-1.41-.34-2.83-.5-4.24-.19-1.58-.38-3.16-.59-4.73-.19-1.58-.4-3.15-.61-4.72-.2-1.56-.42-3.12-.63-4.68-.45-3.23-.92-6.43-1.41-9.6-.14-.86-.27-1.72-.41-2.57-.12-.74-.24-1.48-.37-2.21-.05-.34-.1-.67-.17-.99-.43-2.62-.89-5.22-1.37-7.78-.25-1.39-.52-2.76-.8-4.14-.07-.37-.14-.73-.22-1.1-.17-.88-.35-1.75-.53-2.62-.13-.65-.26-1.29-.41-1.93-.17-.81-.35-1.61-.52-2.41-.4-1.78-.81-3.54-1.24-5.28-.12-.49-.23-.98-.36-1.48-.25-.97-.49-1.94-.74-2.9-.16-.62-.32-1.23-.49-1.83-.09-.36-.19-.71-.29-1.06v-.02c-.12-.4-.22-.8-.34-1.19-.17-.59-.32-1.16-.5-1.74-.19-.66-.39-1.31-.59-1.96-.39-1.3-.8-2.58-1.2-3.84-.17-.51-.35-1.04-.51-1.54-.06-.19-.14-.38-.2-.57-.61-1.78-1.24-3.52-1.9-5.21-.45-1.17-.91-2.33-1.39-3.46-.47-1.13-.95-2.23-1.46-3.31-.24-.54-.49-1.07-.75-1.59-.5-1.06-1.02-2.08-1.56-3.08-.26-.5-.52-.99-.81-1.48-.26-.49-.53-.96-.82-1.43-.27-.47-.56-.94-.84-1.39-.29-.47-.59-.93-.88-1.38-.28-.43-.57-.85-.86-1.27-.27-.4-.56-.8-.84-1.18-.32-.44-.64-.86-.97-1.28-.3-.4-.61-.79-.93-1.16-.3-.38-.63-.75-.95-1.11-.23-.26-.46-.52-.69-.78-.42-.45-.84-.88-1.27-1.3-21.38-20.99-72.15-70.23-104.22-115.67-32.07-45.43-61.47-110.71-85.89-132.47-4.16-3.71-8.22-6.57-12.27-8.62-19.73-10.02-38.93-.82-65.23,23.89-7.13,6.7-13.33,13.22-19.11,19.28-1.98,2.07-3.92,4.1-5.81,6.06l-.08.08c-4.19,4.33-8.23,8.35-12.35,11.96-12.78,11.23-26.29,18.53-47,18.73"/>
            <path class="cls-9" d="M680.63,79.08s.7,1.14,1.98,3.14c4,6.27,13.71,21.08,25.99,36.66,3.48,4.41,7.15,8.88,10.97,13.24,10.08,11.52,21.08,22.24,31.69,28.91,3.56,2.24,7.07,4.02,10.48,5.23,0,0,.16.16.44.49.6.67,1.79,1.98,3.41,3.77.02.03.05.06.08.09.18.2.38.41.57.63.45.49.93,1.01,1.45,1.57.16.19.33.38.51.57,1.11,1.23,2.35,2.56,3.67,3.99.33.37.67.73,1.01,1.1.44.48.88.95,1.32,1.43.38.42.78.84,1.18,1.27,3.69,3.96,7.81,8.35,11.97,12.65.46.48.92.96,1.38,1.43,1.38,1.43,2.76,2.85,4.12,4.24.97.98,1.93,1.95,2.87,2.88.39.4.78.79,1.16,1.16h.01c1.57,1.56,3.08,3.03,4.53,4.41,4.16,3.95,7.08,9.41,9.1,15.77,5.66,17.71,4.34,42.49,3.21,61.73-1.52,26.14-10.04,66.12-36.37,75.59-13.17,4.73-20.94,10.94-25.41,15.96-4.48,5.02-5.66,8.86-5.66,8.86-3.05,7.3-3.56,15.42-1.43,23.05l1.43,5.17,4.36-2.64s6.25,9.85,20.08,11.36c13.61,1.5,25.02-1.78,25.39-1.89h0s11.55,2.66,36.94-2.65c25.39-5.29,36.06-33.26,46.88-81.66,10.74-48.02,26.93-139.35,27.18-140.78,0,0,0-.01,0-.01,0,0-.46-.66-1.27-1.91-.1-.16-.21-.33-.31-.49-1.34-2.11-3.43-5.56-5.84-10.11-.21-.4-.43-.82-.65-1.24-.95-1.83-1.96-3.83-2.97-5.98-.16-.31-.31-.62-.45-.95-.48-1.03-.96-2.09-1.45-3.17-.42-.96-.84-1.93-1.26-2.94-1.45-3.4-2.88-7.08-4.24-10.99-.2-.56-.4-1.14-.59-1.72-.06-.16-.11-.33-.18-.51-1.01-3.04-1.98-6.22-2.87-9.52-.11-.43-.23-.87-.35-1.31-.03-.13-.07-.26-.09-.39-.18-.67-.35-1.35-.51-2.03-.5-2.08-.98-4.18-1.41-6.34-.11-.55-.22-1.12-.33-1.69-.09-.48-.18-.97-.26-1.45-.47-2.64-.88-5.33-1.2-8.08-.12-.99-.22-2-.32-3-.09-.8-.14-1.6-.21-2.39-.04-.38-.06-.77-.1-1.15-.05-.79-.1-1.58-.13-2.39-.02-.3-.03-.62-.04-.92-.04-.79-.07-1.59-.09-2.39,0-.1,0-.21,0-.31-.03-.99-.04-1.99-.04-2.99,0-2.22.06-4.46.18-6.71,2.75-50.76,45.29-119.81,45.29-119.81"/>
            <path class="cls-3" d="M399.93,108.59c4.84-47.29,30.63-55.89,38.15,69.86,7.52,125.74-7.52,133.8-24.18,61.26-16.66-72.54-13.97-131.12-13.97-131.12Z"/>
          </g>
          <g>
            <path class="cls-21" d="M457.5,43.14c3.19-13.31-6.05-21.08-27.23-14.9-21.18,6.19-38.41,14.13-44.07,30.05-5.65,15.92,5.83,24.04,5.83,24.04l26.11-.03s6.31-2.98,18.62-9.83c12.32-6.85,17.55-16.02,20.74-29.33Z"/>
            <path class="cls-4" d="M384.8,69.46s19.2-19.69,40.32-23.9c21.13-4.21,21.9,6,21.9,6,0,0,7.47-15.76,4.59-23.92,6.95.78,10.83,19.57.21,30.81-10.62,11.24-48.41,31.94-48.41,31.94l-15.96-13.29-2.65-7.64Z"/>
            <path class="cls-11" d="M584.89-351.27c8.72-27.12,1.41-35.62-14.04-37.98,0,0-17.57-7.02-27.05,14.54-9.49,21.56-137.55,410.31-137.55,410.31,18.27-7.03,35.1-10.73,48.5-6.54,0,0,121.42-353.19,130.14-380.32Z"/>
            <path class="cls-15" d="M587.61-361.53s2.1-23.1-13.04-26.99c-15.14-3.88-24.09,3-24.09,3l-3,4.24s27.1-7.73,23.56,19.93c-3.54,27.66-133.42,387.91-133.42,387.91l18.9-.04,131.08-388.06Z"/>
            <path class="cls-8" d="M454.75,29.05s121.42-353.19,130.14-380.32c8.72-27.12,1.41-35.62-14.04-37.98,0,0-17.57-7.02-27.05,14.54-9.49,21.56-137.55,410.31-137.55,410.31"/>
            <path class="cls-16" d="M254.88,564.36c-2.63,3.72-6.87,5.96-11.37,6.08-1.63.05-3.29-.18-4.93-.72-7.82-2.58-11.89-11.17-8.94-18.85L395.8,72.49l19.57-7.46,10.8-4.12-169.56,500.19c-.45,1.18-1.03,2.27-1.73,3.26Z"/>
            <path class="cls-20" d="M254.88,564.36c-2.63,3.72-6.87,5.96-11.37,6.08L415.37,65.03l10.8-4.12-169.56,500.19c-.45,1.18-1.03,2.27-1.73,3.26Z"/>
            <path class="cls-8" d="M254.88,564.36c-2.63,3.72-6.87,5.96-11.37,6.08-1.63.05-3.29-.18-4.93-.72-7.82-2.58-11.89-11.17-8.94-18.85L395.8,72.49l19.57-7.46,10.8-4.12-169.56,500.19c-.45,1.18-1.03,2.27-1.73,3.26Z"/>
            <path class="cls-8" d="M392.02,82.33s-11.48-8.12-5.83-24.04c5.65-15.92,22.89-23.86,44.07-30.05s30.42,1.59,27.23,14.9c-3.19,13.31-8.42,22.47-20.74,29.33-12.32,6.85-18.62,9.83-18.62,9.83"/>
          </g>
          <path class="cls-9" d="M646.37,87.29c-8.05,1.53-16.11,3.63-22,5.29-5.49,1.55-9.1,2.73-9.1,2.73"/>
          <g>
            <path class="cls-18" d="M773.84,17.44c-2.31,2.42-5.68,11.14-7.78,13.29-6.47,6.65-8.16,14.1-10.99,16.48-1.14.96-2.48,1.97-3.97,3.01-.06.04-.11.09-.17.12-2.31,1.6-5,3.29-7.93,4.97t-.01,0c-3.9,2.25-8.25,4.49-12.71,6.54-1.19.55-2.39,1.09-3.6,1.6-1.16.5-2.32.98-3.48,1.45-7.58,3.03-15.04,5.24-20.89,5.76h0c-5.45.48-11.87,3.04-18.32,6.2-.01,0-.02.01-.04.02-4.12,2.02-8.26,4.27-12.17,6.38-.02,0-.04.01-.06.03-7.35,3.95-13.89,7.35-18.03,7.61h0c-3.41.21-5.88-1.85-7.88-5.14-.06-.1-.11-.2-.18-.3-3.48-5.94-5.57-15.64-8.89-23.41-.16-.38-.32-.75-.48-1.11-5.6-12.34-8.52-10.35-22.95-48.6-.04-.09-.07-.18-.1-.28-.53-1.38-1.05-2.82-1.58-4.29-8.7-24.26-18.18-59.72-24.48-92.66-2.56-13.37-4.59-26.32-5.83-37.95,0-.02,0-.04,0-.05-.64-6-1.07-11.65-1.26-16.82-.16.08-.33.16-.5.23-.28.13-.56.26-.84.39-5.65,2.61-11.16,4.92-16.54,6.91-7.89,2.92-15.49,5.19-22.78,6.81-2.92.66-5.8,1.21-8.62,1.65-2.1.34-4.17.61-6.21.83-5.61.6-11,.78-16.18.56h-.09s-.04,0-.06,0c-2.52-.11-4.99-.31-7.4-.62-.18-.02-.35-.04-.52-.07-4.07-.53-7.98-1.33-11.75-2.41,0,0-.01,0-.01,0-2.39-.67-4.73-1.47-7-2.36-9.03-3.56-17.07-8.8-24.08-15.61h0c-3.29-3.21-6.34-6.76-9.15-10.64,0-.01-.01-.02-.03-.04-.2-.28-.4-.55-.59-.83-.01-.03-.04-.06-.05-.08-2.44-3.49-4.44-7.07-6.01-10.7-2.86-6.58-4.37-13.35-4.78-20.16-.06-.97-.1-1.95-.11-2.92-.09-6.37.75-12.76,2.32-19.03.08-.33.16-.66.26-.99.1-.41.21-.82.33-1.22.11-.44.24-.88.38-1.32,3.88-13.14,10.88-25.68,19.13-36.43.94-1.23,1.9-2.44,2.88-3.62,2.55-3.1,5.19-6.03,7.88-8.74.48-.48.97-.97,1.47-1.45.51-.49,1.04-.99,1.58-1.48.23-.21.48-.43.72-.64,2.02-1.82,4.24-3.65,6.61-5.49,20.11-15.54,51.89-31.25,83.67-41.88.02,0,.05-.02.08-.02,7.6-2.55,15.2-4.8,22.64-6.69,8.24-2.09,16.28-3.74,23.9-4.85.06,0,.12-.01.18-.02,9.99-1.44,18.74-1.5,26.59-.32,13.44,2.02,24.31,7.69,34.46,16.33.38.33.77.66,1.15,1,.02.01.04.03.06.06,2.7,2.38,5.37,4.98,8.02,7.78,2.95,3.1,5.87,6.46,8.83,10.03.06.06.11.12.16.18,6.59,7.96,13.34,17.04,20.83,27.06.01,0,.02-.02.04-.04,5.48-5.88,11.13-11.32,16.9-16.35.06-.05.12-.1.18-.15,16.32-14.19,33.52-25.11,50.1-33.48,5.54,54.18,17.21,211.62-4.2,327.99Z"/>
            <path class="cls-14" d="M778.89-46.62c-92.35,133.31-158.67-37.73-156.72-79.11,1.95-41.38,39.39-72.69,39.39-72.69,0,0-26.2-13.15-47.59,8.34-21.38,21.49-71.92,44.74-104.84,40.08-32.92-4.66-55.24-60.31-46.61-77.85,8.63-17.55,25.95-43.87,25.95-43.87,0,0-41.68,22.69-48.04,57.82-6.35,35.14-3.57,80.15,67.83,91.57,43.01-.72,70.23-17.97,70.23-17.97,0,0,9.45,58.08,11.9,79.37,2.44,21.3,21.53,72.9,32.38,97.93,10.84,25.02,16.21,23.68,20.59,39.64,4.37,15.96,9.35,17.4,40.62.23,31.26-17.17,45.91-10.89,56.97-19.89"/>
            <path class="cls-9" d="M770.22,38.42c0-1.94-15.79,9.29-16.11,9.54-1,.77-2,1.53-3,2.26-.06.04-.11.09-.17.12-3.36,2.46-6.69,4.68-9.99,6.64-2.41,1.44-4.8,2.73-7.17,3.87-2.46,1.18-4.88,2.19-7.27,3.02-1.11.39-2.22.74-3.32,1.04-.61.16-1.21.32-1.82.46-5.86,1.38-11.2,2.85-16.07,4.35-1.02.31-2.02.62-2.99.94h0c-5.29,1.71-9.99,3.46-14.19,5.17-.01,0-.03,0-.04.01-.91.37-1.8.74-2.66,1.1h0c-1.67.72-3.27,1.43-4.78,2.12-2.03.93-3.91,1.84-5.66,2.7-11.04,5.47-16.93,9.52-21.29,9.13h0c-1.86-.17-3.44-1.14-5.02-3.17-.27-.35-.53-.7-.79-1.06,0,0,0-.01-.01-.02-1.12-1.59-2.07-3.26-2.89-5,0-.01,0-.03-.01-.04-1.99-4.23-3.26-8.83-4.66-13.43,0,0,0-.01,0-.02-2.04-6.68-4.36-13.36-9.54-18.92-1.93-2.08-5.07-7.81-8.84-16.12-2.63-5.8-5.56-12.85-8.62-20.79-.04-.09-.07-.18-.1-.28-.55-1.41-1.09-2.84-1.64-4.3-1.55-4.13-3.12-8.47-4.68-12.96-5.98-17.15-11.92-36.6-16.49-55.78-1.87-7.85-3.51-15.66-4.83-23.23-.51-2.94-.97-5.83-1.38-8.69-2.14-14.92-5.98-31.35-4.95-42.88.09-.97.2-1.91.36-2.8"/>
          </g>
          <path class="cls-14" d="M842.92-161.74s-13.56,89.22-30.27,124.9c-16.72,35.68-39.02,73.47-71.23,88.33-32.21,14.86-89.23-89.42-89.23-89.42,0,0,32.15,55.76,80.29,35.92,48.14-19.84,53.75-120.94,53.75-120.94,0,0,3.65,43.25,20.25,44.97s36.44-83.76,36.44-83.76Z"/>
        </g>
      </g>
      <g>
        <g>
          <circle class="cls-14" cx="540" cy="540" r="535.62"/>
          <path d="M540,1080c-72.9,0-143.62-14.28-210.19-42.44-64.3-27.2-122.05-66.13-171.64-115.72-49.59-49.59-88.53-107.34-115.72-171.64C14.28,683.62,0,612.9,0,540s14.28-143.62,42.44-210.19c27.2-64.3,66.13-122.05,115.72-171.64,49.59-49.59,107.34-88.53,171.64-115.72C396.38,14.28,467.1,0,540,0s143.62,14.28,210.19,42.44c64.3,27.2,122.05,66.13,171.64,115.72,49.59,49.59,88.53,107.34,115.72,171.64,28.16,66.58,42.44,137.3,42.44,210.19s-14.28,143.62-42.44,210.19c-27.2,64.3-66.13,122.05-115.72,171.64-49.59,49.59-107.34,88.53-171.64,115.72-66.58,28.16-137.3,42.44-210.19,42.44ZM540,8.75C247.07,8.75,8.75,247.07,8.75,540s238.32,531.25,531.25,531.25,531.25-238.32,531.25-531.25S832.93,8.75,540,8.75Z"/>
        </g>
        <circle class="cls-19" cx="540" cy="540" r="514.7"/>
        <g class="cls-13">
          <g>
            <path class="cls-18" d="M233.39,953.87s-73.95,63.18-104.11,165.07c140.9,95.03,108.15,54,108.15,54l64.43-165.69-68.47-53.38Z"/>
            <path class="cls-7" d="M233.39,953.87s-92.8,70.88-104.11,165.07c140.9,95.03,108.15,54,108.15,54l64.43-165.69-68.47-53.38Z"/>
            <g>
              <path class="cls-14" d="M887.32,874.89s161.43,71.03,192.06,269.38c36.87,238.72-176.86,278.54-176.86,278.54l-15.19-547.91Z"/>
              <path class="cls-7" d="M887.32,874.89s161.43,71.03,192.06,269.38c36.87,238.72-176.86,278.54-176.86,278.54l-15.19-547.91Z"/>
              <g>
                <g>
                  <g>
                    <path class="cls-18" d="M988.34,1168.15c-4.6,4.82-9.18,7.35-9.45,7.49h0c-.39,11.68-3.56,71.9-28.55,145.13-7.97,23.34-18.16,48.01-31.18,72.84-.08.16-.17.32-.25.48-6.06,12.21-11.75,22.23-16.39,28.71-.02.02-.03.04-.04.06h0s-.02.05-.04.06c-2.12,3.45-4.31,6.88-6.56,10.31h0c-2.38,2.5-4.71,4.93-7,7.3-.04.04-.06.06-.1.1-4.45,5-9.42,9.91-14.86,14.39-15.37,13.51-31.63,22.3-56.57,22.53.31,7.04.47,15.39.52,24.81.7-.76,1.09-1.17,1.09-1.17l-3.28,111.73c-.34-.39-.52-.6-.52-.6-2.97,66.4-8.08,137.11-13.9,176.27-2.98,20.19-4.55,38.76-5.25,55.61-.93,21.97-.43,41.05.19,57.04l-3.92,1.67s-18.16,185.59-18.16,188.09c0,1.31-20.35,6.81-39.7,11.74-17.51,4.45-34.2,8.45-34.2,8.45l-18.23-20.55h0s-32.28-36.4-32.28-36.4h0c.43-.25,14.13-8.3,23.45-39.89h0c.02-.11.06-.2.09-.3,1.91-6.55,3.64-14.1,5.03-22.78,0-.05.02-.09.02-.12,2.07-13.03,3.35-28.59,3.35-47.18,0-1.93,0-3.88-.02-5.81-.31-87.8-7.71-194.4-13.9-249.87-.1-.94-.22-1.88-.32-2.81-.08-.68-.15-1.34-.23-2.01-.07-.62-.14-1.22-.22-1.83-6.42-54.07-15.83-121.42-27.9-154.19-.02-.05-.04-.1-.05-.14-.02-.04-.03-.06-.04-.1-.02-.05-.03-.09-.05-.12-.04-.1-.06-.16-.06-.16-.1-.04-.21-.07-.31-.11-.02,0-.03,0-.05-.02-.35-.12-.68-.24-1.01-.36h0c-22.7-8.07-40.01-14.16-53.21-18.75-3.44-1.2-6.59-2.29-9.5-3.3-.36-.12-.72-.25-1.08-.37-12.96-4.47-20.61-7.03-25.1-8.48h0s0,0,0,0c-5.14-1.67-6.09-1.88-6.09-1.88l-81.29-11.39h-.02l-2.4-.35h0l-.43-.06h0s-6.96,42.75-6.96,42.75v.03l-23.75,146.14h0s0,.02,0,.02v.02l-.02,4.5v2.25s-.06,8.64-.06,8.64l-.18,36.1v.02l-.18,34.48-.02,4.41h0s-.92,182.75-.92,182.75l-9.79,60.25-.03.23-.02.14-6.18,38.04s0,.02,0,.03,0,.02,0,.03c-.02.02-.02.05-.02.06l-31.63,30.86-6.55,6.38-.56.55-3.96,3.87-8.8-1.25h0l-29.8-4.22h0l-14.68-2.09h-.02s0,0-.02,0l-29.56-4.19-6.14-19.3h0s-11.68-36.8-11.68-36.8c0,0,10.31-3.86,22.61-15.46l.02-.02s.02-.02.04-.03c0,0,.02,0,.02-.02,7.31-6.9,15.3-16.52,22.27-29.68.14-.26.27-.52.41-.79,2.38-4.57,4.63-9.55,6.68-15h0c.89-2.36,1.74-4.78,2.55-7.29.15-.47.31-.93.44-1.4.27-.86.53-1.7.78-2.55,8.26-27.9,11.95-47.49,12.23-67.95.29-21.12-3.05-43.17-8.77-76.21-.02-.13-.04-.27-.06-.4-.06-.35-.12-.68-.19-1.03h0c-.9-5.18-1.95-10.76-3.1-16.66-.06-.31-.12-.62-.18-.93-8.74-44.77-23.54-107.93-33.6-156.1,0-.02,0-.04-.02-.06-3.58-17.15-6.55-32.41-8.44-44.25-.02-.17-.05-.33-.07-.49-.97-6.13-1.64-11.34-1.95-15.39,0-.06,0-.1,0-.15-1.34-17.72-2.42-44.05-4.05-68.48-1.4-21.08-3.18-40.73-5.83-52.2-.02-.05-.02-.1-.04-.14-.67-2.89-1.39-5.26-2.2-6.99,0-.02-.02-.05-.02-.07-.02-.05-.05-.11-.07-.17-7.66-16.04-47-64.43-54.77-118.03-6.14-42.27,4.37-152.64,9.1-197.31v-.04c.09-.84.16-1.64.25-2.44h0c.09-.83.18-1.62.25-2.39h0c.11-1.08.23-2.09.33-3.06h0c.78-7.15,1.26-11.27,1.26-11.27l1.64-21.54,6.47-85.17s0,0,0,0l2.47-32.58h0s.02-.23.02-.23h0s.51-6.84.51-6.84v-.04l.12-1.55.37-4.76v-.02l.98-12.98-3-5.88-7.93-15.53v-.02s-4.09-8-4.09-8l1.74-.13,9.61-.72h0l27.71-2.08h0l2.64-.2h.02l39.62-2.98h0l93.01-6.96.74-.06,11.99-.89,20.72-1.55h0l37.25-2.79h0l.28-.02,156-11.69h.04l3.36-.25,20.28-1.53h.02l50.68-3.8,21.52-4.78h0l16.28-3.59h.02s.18-.06.18-.06h.02s45.39-10.06,45.39-10.06h0l1.88-.43,3.94-.87.46-.1h0l11.97-2.65,2.36-.53,11.16-2.48h0l1.16-.26h.02c.25.18,4.07,2.8,10.98,6.88,4.02,2.36,9.09,5.22,15.12,8.37,14.08,7.37,33.39,16.37,56.84,24.56t.02,0c.06.02.13.05.2.06,0,0,0,0,.02,0,.09.03.18.06.27.1l14.35,18.04s1.44,2.2,3.77,6.06c.21.35.43.71.64,1.08,1.34,2.25,2.93,4.97,4.68,8.1.29.51.58,1.03.88,1.56.6,1.09,1.23,2.23,1.86,3.41.63,1.15,1.26,2.33,1.91,3.56,1.3,2.48,2.65,5.1,4.01,7.85,0,.02.02.05.03.07.03.05.06.1.08.15.02.05.06.09.08.14,8.84,17.91,18.33,41,21.64,62.88,2.44.86,4.63,1.97,6.61,3.26h0c8.48,1.63,11.76,5.29,14.4,15.36,1.83,6.96,3.61,13.86,4.54,19.6,0,.02,0,.05,0,.07,2.44,11.39,0,16.86,0,16.86,0,0,.35.91.91,2.44v.02c1,1.08,1.74,2.04,2.15,2.85,1.26,2.44,2.04,7.32,2.54,12.51,0,.02,0,.02,0,.04,1.01,4.17,1.77,8.43,1.83,11.97.08,4.45.57,8.02,1.13,11.33,4.24,7.37,3.05,18.85,2.3,23.68v.03c.22,2.52.52,4.96.83,7.14,0,.02,0,.03,0,.05s0,.04,0,.06v.02c.49,2.29,1.01,5.22,1.33,8.47,0,.02,0,.06,0,.09.58,5.69.58,12.36-1.18,18.31v.04c-.18,2.64-.33,4.46-.33,4.46,0,0,6.28,6.06,1.51,11.06Z"/>
                    <path class="cls-3" d="M913.9,909.64c-.58-.02-1.14-.03-1.68-.05-7.51-.18-11.76-.1-11.76-.1l-11.55-8.54v-16.65c2.07.35,4.19.7,6.35,1.06t.02,0c.06,0,.11.02.18.02h0c.07.02.14.03.22.04.03.02.06.06.09.1l14.35,18.04s1.44,2.2,3.77,6.06Z"/>
                    <path class="cls-3" d="M780.68,740.8c-1.47,8.19-.24,31.49.71,45.67.45,6.74.85,11.43.85,11.43l5.7,19.12c-29.56,26.37-74.91,65.01-100.24,77.68-39.75,19.88-280.04,76.06-335.36,66.55-38.97-6.69-101.55-43.01-135.12-63.87-6.05-20.44-10.89-38.96-11.37-54.97-.87-28.97,9.93-52.3.43-70.45-9.5-18.15-6.92-24.2-3.45-54.02,3.45-29.81-25.5-126.18-25.5-126.18l15.13-29.39-7.21-.43s22.47-66.26,37.46-110.63c-9.3-39.33-8.29-74.88-5.19-99.94,2.87-23.04,7.5-37.2,7.5-37.2,0,0,14.39-177.47,76.64-206.29,0,0,28.75-6.38,63.2,51.04,34.45,57.4,68.9,96.2,75.72,98.06,32.9-12.73,77.28-4.35,102.73,4.97,25.45,9.3,39.41-15.21,83.48,4.34,47.8-51.51,134.38-125.68,163.24-113.88,28.85,11.79,17.37,107.37,9.3,161.68-1.73,11.67-3.6,21.49-5.5,30.04-6.63,30.1-13.37,44.42-14.29,68.1-.03.89-.06,1.8-.08,2.72,35.08,54.3,42.53,68.27,48.73,130.34,6.2,62.06,6.52,78.51-5.28,107.06-8.47,20.52-25.45,50.99-35.13,70.99-.01.02-.03.04-.04.05-3.77,7.8-6.43,14-7.03,17.41Z"/>
                    <path class="cls-14" d="M956.29,1160.07v-.02c0-2.57-.05-5.15-.11-7.75-.23-10.55-.93-21.45-2-32.48-.92-9.54-2.11-19.19-3.53-28.79h0c-2.52-17.33-5.69-34.52-9.13-50.82-1.67-7.97-3.4-15.72-5.15-23.16-1.38-5.91-2.77-11.64-4.15-17.1h0c-9.38-37.42-17.95-63.53-17.95-63.53l-75.84-75.62-12.1-12.06-3.02,3.69-4.96,6.09h0s-.18.23-.18.23h0s-7.56,9.29-7.56,9.29l-86.22,105.71-9.64,11.82-2.75,3.37-16.04,19.68,23.43,23.43,17.95,17.95c2.51-2.02,5.06-4.25,7.6-6.67.02-.02.02-.02.03-.02,0,0,0,0,0,0,.72-.66,1.42-1.36,2.14-2.05,38.88-38.14,58.07-53.49,59.46-55.38.1-.16.19-.32.29-.49,11.47-19.18,40.36-15.15,46.13,6.44l5.41,20.22c-.52-22.42,1.03-56,1.03-56,0,0,2.08,38.61,24.32,64.99,22.25,26.38,11.9,55.88,23.29,128.3,11.38,72.44-19.67,196.09-31.05,198.16-11.39,2.08-21.74,9.31-34.96-56.91,1.28,17.08-2.81,107.62-35.41,173.32-32.59,65.71-17.91,95.19-17.91,95.19,2.38-25.05,24.9-50.99,30.14-56.72-.06-9.42-.22-17.77-.52-24.81,24.94-.23,41.2-9.02,56.57-22.53,5.44-4.49,10.41-9.39,14.86-14.39.04-.04.06-.06.1-.1,2.28-2.37,4.62-4.8,7-7.29h0c2.25-3.44,4.44-6.87,6.56-10.32.02-.02.03-.04.04-.06h0s.02-.05.04-.06c4.64-6.47,10.33-16.5,16.39-28.71.08-.16.17-.32.25-.48,13.02-24.83,23.21-49.49,31.18-72.84-.35.18-.68.35-1.02.5-7.33,3.55-11.91,5-11.91,5,0,0,17.51-66.89,18.82-150.62h0c.1-5.14.12-10.33.06-15.58Z"/>
                    <path class="cls-14" d="M628.96,1452.28c26.67,33.91,20.97,107.92,20.97,107.92-5.12-18.52-11.08-33.25-11.08-33.25-76.5,18.15-145.63,8.65-178.91-46.67-8.22,5.62-9.08,41.05-8.65,68.28.43,27.23,6.48,91.19-1.73,169.41-8.22,78.22-8.62,142.75-6.11,163.93,2.52,21.19-1.97,29.08-6.64,43.98-4.66,14.91.72,37.17-2.87,56.92-3.59,19.74-16.16,21.89-16.16,21.89,0,0-3.58,29.27-12.02,51.89-8.43,22.61-10.41,26.57-26.57,33.39-16.16,6.82-32.49,11.13-46.13,1.79-23.52,15.26-50.28,6.11-60.5-2.86-21.55,10.05-27.65-10.78-27.65-10.78,0,0-10.41-1.26-5.75-21.36.62-2.66,1.25-5.22,1.93-7.68-1.4,6.66,9.79,6.92,9.79,6.92,0,0,2.5,14.82,13.73,14.38,11.24-.43,11.27-9.84,11.27-9.84,0,0,6.88,14.17,18.55,19.26,11.67,5.08,17.72.1,36.78-17.96,4.36,18.88,31.5,13.31,46.41-1.39,14.91-14.7,24.09-68.32,24.09-68.32,7.85-47.43,11.77-67.41,11.42-125.25-.35-57.84-16.76-80.57-31.39-158.33-14.63-77.76-12.14-138.76-22.83-214.03-10.7-75.26-41.38-133.41-58.51-200.46-17.12-67.07-77.76-158.65-77.76-158.65l-1.27-8.53-1.17-7.93,2.66-.42,165.08,11.2,451.3-199.1s-66.37,146.01-235.42,240.12c-34.53,19.23-83.81,81.9-79.23,130.67,4.56,48.75,77.71,116.96,104.38,150.85Z"/>
                    <path class="cls-14" d="M781.39,786.47c-38.13,28.3-236.95,171.5-308.91,134.89-79.75-40.56-149.1-155.19-149.1-155.19,39.19,30.88,121.9,84.67,151.96,88.82,30.06,4.15,56.13,0,76.21-12.91-13.58,2.76-60.17,1.37-76.21-9.68,96.89,9.21,125.28-55.32,78.03-64.86-47.24-9.55-32.51-28.71,21.23-15.96,116.43,35.78,137.72-24.53,137.72-24.53,0,0-2,30.68-43.94,91.52,67.14-26.32,117.78-93.1,119.34-95.18-3.77,7.8-6.43,14-7.03,17.41-1.47,8.19-.24,31.49.71,45.67Z"/>
                    <path class="cls-18" d="M787.74,432.49c-2.77-4.48-5.5-8.65-8.19-12.59l-.04-7.68c.92-23.68,7.66-38,14.29-68.1,1.89-8.55,3.77-18.36,5.5-30.04,8.07-54.31,19.55-149.89-9.3-161.68-28.86-11.8-115.44,62.37-163.24,113.88-44.07-19.55-58.03,4.97-83.48-4.34-25.45-9.31-69.83-17.7-102.73-4.97-6.82-1.87-41.27-40.66-75.72-98.06-34.45-57.41-63.2-51.04-63.2-51.04-62.24,28.81-76.64,206.29-76.64,206.29,0,0-4.63,14.15-7.5,37.2-3.1,25.06-4.11,60.62,5.19,99.94-14.99,44.37-37.46,110.63-37.46,110.63l7.21.43-15.13,29.39s28.95,96.37,25.5,126.18c-3.47,29.82-6.05,35.87,3.45,54.02,9.5,18.15-1.3,41.48-.43,70.45.73,24.63,11.79,55.18,21.72,89.57,21.72-6.66,67.95-22.01,78.11-35.12,13.39-17.29-11.24-38.47-16.86-54.02-5.61-15.55,27.23-6.05,47.97-2.6,20.75,3.45-14.26-57.91-31.98-94.21-10.02-20.53-32.89-63.86-50.88-97.64-15.77-29.62-17.38-64.77-4.36-95.69,5.2-12.36,10.01-23.49,12.46-28.37,6.91-13.83,31.11-38.78,74.76-46.61,12.28-2.21,21.83-3.89,29.21-5.17,12.27-2.13,23.95,5.83,26.64,17.99,5,22.56,17.87,55.37,50.75,62.32,51.14,10.8,71.03,11.67,89.18-9.93,18.15-21.62,26.44-31.55,40.88-32.85,7.87-.71,19.54,10.28,28.53,20.41,9.4,10.6,22.54,17.16,36.65,18.43l43.96,3.94-8.8-12.91c-4.41-6.47,2.09-14.79,9.43-12.08l15.27,5.64-36.24-42.47,52.57,60.09s23.25-11.96,34.2-42.33c4.93-13.69,22.94-20.42,33.58-10.49,13.29,12.4,25.42,48.57,25.42,48.57,0,0,15.82-56.13-20.27-114.39Z"/>
                    <path class="cls-14" d="M634.33,619.7s18.96,29.17-20.6,54.34c-39.57,25.16-54.79,22.16-72.02,16.41-17.24-5.75-26.44-11.49-31-20.42-4.56-8.93-24.07-9.48-30.27,2.74-6.2,12.22,2.37,17.87,16.96,17.32s35.74,25.53,63.82,28.08c28.08,2.55,62.72-6.2,93.36-6.56,30.63-.36,45.58,2.74,53.43,5.29,7.84,2.55-8.57,23.7-8.57,23.7,0,0,11.12-6.2,15.5-19.51,4.38-13.31,5.11-15.13,5.11-15.13l12.58-5.65,4.01-4.92s-13.13-25.16-17.87-36.83c-4.74-11.67,6.2-34.46,6.2-34.46l-90.62-4.38Z"/>
                    <path class="cls-3" d="M799.3,314.09c-1.73,11.67-3.6,21.49-5.5,30.04.32-55.47,4.64-173.16-11.28-175.19-18.43-2.35-88.57,47.88-147.46,108.35-2.58,2.65-6.6,3.39-9.93,1.77-39.98-19.5-53.54,17.38-89.41.48-46.95-22.11-89.58-5.98-102.98-11.81-13.4-5.84-70.75-81.61-86.21-110.13-15.47-28.51-46.72-38.82-57.38-25.76-10.65,13.06-40.2,82.12-46.04,123-5.84,40.89-25.6,96.56-25.6,96.56h-.01c2.87-23.05,7.5-37.21,7.5-37.21,0,0,14.39-177.47,76.64-206.29,0,0,28.75-6.38,63.2,51.04,34.45,57.4,68.9,96.2,75.72,98.06,32.9-12.73,77.28-4.35,102.73,4.97,25.45,9.3,39.41-15.21,83.48,4.34,47.8-51.51,134.38-125.68,163.24-113.88,28.85,11.79,17.37,107.37,9.3,161.68Z"/>
                    <path class="cls-14" d="M429.67,269.95c-9.39,18.97-32.83,38.6-56.62,55.55-21.43,15.29-43.15,28.4-55.04,36.87-25.07,17.86-47.41,31.95-88.98,81.09-7.22-56.7,10.3-125.06,10.3-125.06.69,74.56,5.51,83.14,24.74,73.18,19.23-9.97,21.64-23.71,11.34-43.98-10.31-20.27-7.22-15.81-11.34-55.32-4.12-39.5,17.52-122.3,33.33-127.8,15.81-5.5,37.11-8.26,73.18,70.42-1.69-22.99-11.37-48.65-11.67-49.45,17.92,19.49,36.61,63.28,44.68,83.5,2.3,5.78,8.94,8.5,14.64,6l11.45-5.01Z"/>
                    <path class="cls-18" d="M345.15,274.75s-7.21-39.51-22.68-63.56c-15.46-24.05-25.77-21.99-36.42,2.06-10.65,24.05-14.43,72.84-7.56,107.88,6.87,35.04,15.43,43.29,31.59,37.11,16.16-6.18,18.38-9.28,18.38-9.28,0,0-15.96-22.68-20.09-40.2,21.99,24.39,30.92,29.55,30.92,29.55,0,0-26.8-35.39-30.92-44.66,29.2,11.34,36.76,13.06,36.76,13.06l-38.14-54.97c29.2,26.11,38.14,23.02,38.14,23.02Z"/>
                    <path class="cls-14" d="M644.56,274.43s73,59.98,125.63,134.96c-6.48-12.72-10.95-21.47-13.94-27.31-3.12-6.1-1.84-13.53,3.16-18.22,8.37-7.87,20.23-19.16,22.39-21.95l-18.11,5.23s19.52-29.71,21.22-83.18c1.7-53.48-10.75-59.42-37.91-28.01-27.16,31.41-33.39,45.55-33.39,45.55,0,0,24.33-3.68,34.52-6.79-31.69,24.9-35.81,35.08-35.81,35.08,0,0,23.08-3.11,33.27-1.7,7.18,1-10.09,13.79-20.91,21.27-4.5,3.11-10.59,2.43-14.31-1.58-7.17-7.74-19.06-20.4-28.44-29.59,37.91-78.09,67.06-110.63,67.06-110.63,0,0-30.27,24.05-49.8,52.34-19.52,28.29-20.37,40.46-32.26,36.78-11.88-3.68-22.35-2.26-22.35-2.26Z"/>
                    <path class="cls-14" d="M573.76,319.59s23.31,47.95,27.91,73.63c4.6,25.68,8.76,2.52,5.94-21.82-2.82-24.35-17.22-46.17-33.85-51.81Z"/>
                    <path class="cls-3" d="M492.71,421.13c18.31,11.82,43.64,35.92,56.56,36.82,12.91.89,23.75-28.65,11.73-51.21-12.02-22.56-34.14-29.24-55.82-24.35-21.67,4.9-28.8,28.21-12.47,38.74Z"/>
                    <path class="cls-3" d="M676.49,441.47c13.36-8.76,33.7-16.21,27.17-32.08-6.53-15.87-25.83-25.67-45.72-14.68-19.89,10.99-21.82,39.19-12.62,52.7s31.17-5.94,31.17-5.94Z"/>
                    <path d="M541.4,489.27c4.36,6.4-.74,6.98-12.77,5.79-12.02-1.19-33.99,8.61-55.96,2.38-21.97-6.23-31.47-17.96-38.3-27.91-6.83-9.95-18.11-14.55-18.11-14.55,0,0,30.43-15.88,44.24-20.34,13.81-4.45,40.38-2.67,57.45,20.19,17.07,22.86,21.23,31.17,23.45,34.44Z"/>
                    <path class="cls-2" d="M447.13,456.91c-7.02,2.04-4.16,19.3,8.02,26.72,12.17,7.42,30.73,10.69,42.6,6.53,11.88-4.16,12.02-17.07,4.01-16.48-8.02.59-19.6,7.72-30.43,2.08-10.84-5.64-14.99-21.52-24.2-18.85Z"/>
                    <path class="cls-3" d="M461.98,449.49c6.09-4.16,18.7-6.04,15.59,2.7-3.12,8.73-14.55,12.89-19.74,7.84-5.2-5.05,4.16-10.54,4.16-10.54Z"/>
                    <path d="M662.23,491.05s2.67-22.12,17.22-40.53c14.55-18.41,42.46-3.71,59.68,18.26-2.52,4.01-7.42,9.95-10.09,17.22-2.67,7.27-10.09,15.88-20.49,18.85-8.92,2.55-24.94,6.53-46.32-13.81Z"/>
                    <path class="cls-2" d="M677.08,487.04c.27,5.07,3.56,18.26,21.97,13.36,18.41-4.9,25.68-21.38,24.2-28.21-1.48-6.83-8.52-7.42-10.94-1.04-2.42,6.38,4.41,12.47-5.69,14.84-10.09,2.38-8.61,5.34-16.48,2.38-7.87-2.97-13.21-4.16-13.06-1.34Z"/>
                    <path class="cls-3" d="M688.36,473.09c6.38-5.05,5.64-13.66-1.78-13.51-7.42.15-11.58,11.43-8.46,16.48,3.12,5.05,10.24-2.97,10.24-2.97Z"/>
                    <path class="cls-2" d="M216.52,888.15l19.48,67.36s64.48,37.31,115.83,41.71c8.97,14.51,20.61,23.03,37.45,12.17,22.22,4.63,25.62,2.48,28.41.9,2.79-1.57,14.71,1.33,21.54-.57,6.83-1.9,16.84-9.4,16.84-9.4,0,0,5.64,11.57,25.69,12.39,20.05.82,41.05-14.18,45.39-21.19,36.13-8.64,121.88-41.25,158.23-61.79,36.35-20.54,87.71-62.6,94.23-74.34,6.52-11.74,13.86-24.94,13.86-24.94l-11.25-32.65-1.84-27.02s-62.95,59.78-99.11,76.84c-36.16,17.06-97.13,49.67-121.75,55.7-24.62,6.03-55.64,12.23-55.64,12.23,0,0-28.97-10.97-51.22,8.04-12.14-3.64-36.79-7.67-47.13-5-12.62-2.39-20.24,1.54-20.24,1.54,0,0-19.32-14.69-38.29,6.18-31.66-7.19-109.13-29.16-109.13-29.16l-21.35-8.98Z"/>
                    <circle class="cls-1" cx="553.37" cy="661.64" r="4.19"/>
                    <circle class="cls-1" cx="551.55" cy="639.4" r="4.19"/>
                    <circle class="cls-1" cx="569.23" cy="645.78" r="4.19"/>
                    <circle class="cls-1" cx="589.11" cy="629.29" r="4.19"/>
                    <circle class="cls-1" cx="606.25" cy="643.59" r="4.19"/>
                    <circle class="cls-1" cx="729.14" cy="647.78" r="4.19"/>
                    <circle class="cls-1" cx="744.28" cy="637.39" r="4.19"/>
                    <circle class="cls-1" cx="742.64" cy="649.97" r="4.19"/>
                    <circle class="cls-1" cx="737.53" cy="665.83" r="4.19"/>
                    <circle class="cls-1" cx="584.91" cy="648.77" r="4.19"/>
                    <circle class="cls-1" cx="573.43" cy="665.83" r="4.19"/>
                    <path class="cls-2" d="M986.83,1157.09s.14-1.83.33-4.46v-.04c.47-6.23,1.24-16.9,1.18-18.24v-.07s0-.06,0-.09c0-.03,0-.06-.02-.1,0-.02,0-.05,0-.07-.15-1.05-.73-4.21-1.31-8.29v-.02s0-.04,0-.06,0-.03,0-.05c-.31-2.18-.6-4.62-.83-7.14v-.03c-.24-2.64-.4-5.35-.4-7.92,0-6.15-1.02-10.65-1.9-15.74v-.02c-.56-3.31-1.05-6.88-1.13-11.33-.06-3.55-.82-7.8-1.83-11.97,0-.02,0-.02,0-.04-1.5-6.16-3.54-12.13-4.7-15.36v-.02c-.55-1.54-.91-2.44-.91-2.44,0,0,2.44-5.47,0-16.86,0-.02,0-.05,0-.07-2.13-9.91-5.89-26.49-18.95-34.95h0c-1.98-1.29-4.17-2.4-6.61-3.26-3.31-21.88-12.8-44.97-21.64-62.88-.02-.05-.06-.09-.08-.14-.02-.05-.05-.1-.08-.15,0-.02-.02-.05-.03-.07-1.36-2.75-2.71-5.37-4.01-7.85-.64-1.23-1.28-2.41-1.91-3.56-.63-1.18-1.25-2.32-1.86-3.41-.3-.53-.59-1.05-.88-1.56-1.74-3.13-3.34-5.85-4.68-8.1-.22-.37-.43-.73-.64-1.08-2.33-3.87-3.77-6.06-3.77-6.06l-14.35-18.04s-.06-.08-.09-.1c-.22-.29-.44-.56-.67-.86-3.29-4.13-7.28-9.15-12.14-15.26-.44-.55-.89-1.12-1.34-1.7,9.51-10.37,13.12-28.16,8.1-43.64,0-.02,0-.04-.02-.06,0-.05-.02-.09-.04-.13-1.19-3.61-2.85-7.08-5.02-10.32-6.26-9.31-17.41-15.31-28.55-17.71-6.18-1.33-12.36-1.57-17.69-.64-2.68.47-5.14,1.22-7.29,2.28-3.39,1.67-6.8,4.09-10.02,6.82-.02,0-.02.02-.02.02-7.31,6.19-13.65,13.89-16.6,17.68h0s0,0,0,.02c-1.13,1.45-1.75,2.33-1.75,2.33l-12.98-4.95-.67-.25-.18.85-1.09,5.42,4.17,7.81.03.06,2.22,4.13.6,1.13,5.24,9.79,10.61,19.75,9.17,17.13s.69.25,1.91.78h0c.43.19.95.42,1.53.7,1.83.85,4.26,2.1,6.97,3.76t.02,0h0c7.22,4.4,16.39,11.72,21.41,22.49.73,1.57,1.52,3.32,2.37,5.25h0s.02.04.02.06c0,0,.02.02.02.03,7.07,15.82,18.12,42.52,30.15,65.26,0,.02,0,.02.02.03,4.61,8.69,9.34,16.79,14.05,23.5h0s0,0,.02,0c.05.08.1.15.15.23,1.05,7.82,4.94,20.14,8.93,31.46.02.06.03.11.05.17,3.59,10.15,7.27,19.44,9.09,23.95,0,0,0,.02,0,.02,0,0,0,.02,0,.02.68,1.69,1.09,2.69,1.14,2.82h0s0,0,0,.03v.02c-.14.96-2.4,17.71,3.07,54.93-.43,3.86-.56,7.58-.45,11.11,0,.08,0,.15,0,.23h0s0,.04,0,.05c.6,18.84,7.57,32.29,7.78,32.71h0s0,.05-.02.08c0,.02,0,.02,0,.04-.59,2.48-9.93,42.81-10.26,74.42v.07c-.35,31.98-20.04,102.28-33.25,127.78-.02.03-.03.06-.05.1-.28.53-.53,1.02-.81,1.5-8.51,15.5-25.95,39.01-42.24,64.48,0,0,0,.02-.02.03s-.02.02-.02.03c-8.99,14.03-17.63,28.66-24.24,42.88,0,0,0,0-.02.02h0s.02,0,.02,0c22.49.58,41.5-8.7,56.72-21.21,5.44-4.49,10.41-9.39,14.86-14.39.04-.04.06-.06.1-.1,5.22-5.89,9.75-11.93,13.56-17.61.02-.02.03-.04.04-.06h0s.02-.05.04-.06c4.64-6.47,10.33-16.5,16.39-28.71.08-.16.17-.32.25-.48,10.11-20.41,21.21-46.72,30.15-72.34,5.36-15.36,9.93-30.47,13.04-43.92,11.48-49.62,16.53-101.69,16.53-101.69h0s0,0,0-.02c.27-.14,4.85-2.67,9.45-7.49,4.77-4.99-1.51-11.06-1.51-11.06ZM821.76,833.32s-.03-.02-.04-.02c-.03-.02-.06-.03-.09-.05l-3.38-1.83s8.72-13.12,23.23-17.3c.02,0,.05-.02.07-.02.02,0,.06,0,.09,0,.03,0,.06-.02.09-.02,0,0,.02,0,.02,0,.36-.11.73-.22,1.11-.31.39-.1.78-.19,1.17-.27,5.3-1.08,10.41-1.01,14.94-.13,9.19,1.77,16.03,6.79,17.34,12.01.31,1.26.35,2.98.18,4.99,0,0,0,.02,0,.02t0,0s0,0,0,0c-.87,10.5-7.11,28.77-7.11,28.77l-9.26-5.02s-.04-.02-.06-.03c-.02,0-.03-.02-.04-.02l-38.28-20.77Z"/>
                    <path class="cls-2" d="M700.99,952.09s61.11-61.43,79.38-92.56c18.27-31.13,23.45-32.87,36.09-5.64,12.64,27.22,4.39,70.82-37.49,118.27l-31.84,36.05s13.82,23.82-13.17,52.64c-26.99,28.82-86.27,66.58-123.58,93.32-37.3,26.73-110.95,82.12-118.66,137.15-7.72,55.03,6.63,107.34,35.64,137.99,29,30.65,74.19,42.44,89.57,46.36,23.9,43.22,20.37,51.63,20.37,51.63,0,0-55.38,16.14-103.36,4.03-47.98-12.11-81.64-57.11-81.64-57.11,0,0-59.27-46.43-90.07-101.88-30.8-55.46-58.3-130.43-89.41-169.72-31.1-39.29-57.95-91.67-59.91-112.95-1.96-21.28,0-28.82,0-28.82,0,0-15.06-6.21-12.44-21.93,2.62-15.72,10.21-52.94,13.8-59.59,3.59-6.66,7.98-3.41,9.55-10.99,1.57-7.58,10.7-11.04,17.51,4.51,6.82,15.54,56.75,116.76,139.08,112.65,82.33-4.11,128.98-25.28,173.72-58.77,44.74-33.49,101.31-65.97,115.16-74.58,13.85-8.61,20.12-8.55,31.69-.06Z"/>
                    <path class="cls-7" d="M465.58,955.56c12.08-6.33,30.79-9.56,34.14,1.24,3.72,11.98-10.55,14.06-24.09,16.52-18.78,3.42-20.44-12.31-10.05-17.76Z"/>
                    <g>
                      <path class="cls-7" d="M386.56,919.49s-5.92-8.12-22.99-5.09c-17.07,3.03-17.21,11.7-16.25,30.15.96,18.45,3.72,55.07,13.35,64.02,9.64,8.95,23.95,9.64,29.19,1.93-13.35-24.92-10.88-70.35-10.46-77.51.41-7.16,3.44-12.11,7.16-13.49Z"/>
                      <path class="cls-7" d="M386.56,919.49s11.56-4.13,17.9-1.65c6.33,2.48,2.2,28.22,19.14,28.36,16.93.14,25.19-5.23,30.15-19.69,4.96-14.46,17.76-15.42,33.32-14.73,0,0,30.43-.41,11.43,8.4-19,8.81-23.13,8.73-23.13,8.73,0,0,8.54,36.56,10.6,48.95,2.07,12.39,3.99,16.25,3.99,16.25l37.17-4.13s1.93,11.15-23.27,17.21c-25.19,6.06-31.94,5.64-39.92-1.51-7.98-7.16-17.35-18.72-31.94-15.97-14.59,2.75-13.01,17.48-17.9,21.06-4.13,3.03-24.23-.28-24.23-.28"/>
                      <path class="cls-7" d="M416.41,1007.5s27.96,10.43,39.67-9.12"/>
                      <path class="cls-7" d="M406.21,919.46s30.78-7.73,46.45,9.92"/>
                      <path class="cls-7" d="M780.38,767.53s-79.71,103.82-276.49,149.35"/>
                      <path class="cls-7" d="M792.27,834.56s-52.34,100.59-265.15,155.42"/>
                      <path class="cls-7" d="M214.73,888.87s71.28,27.53,133.43,36.24"/>
                      <path class="cls-7" d="M233.39,953.87s51.39,33.65,122.04,45.73"/>
                      <circle class="cls-7" cx="254.95" cy="931.99" r="8.73"/>
                      <circle class="cls-7" cx="315.72" cy="956.04" r="8.73"/>
                      <circle class="cls-7" cx="549.12" cy="945.15" r="8.73"/>
                      <circle class="cls-7" cx="658.45" cy="904.99" r="8.73"/>
                      <circle class="cls-7" cx="725.24" cy="862.62" r="8.73"/>
                    </g>
                    <path class="cls-1" d="M465.58,955.56c12.08-6.33,30.79-9.56,34.14,1.24,3.72,11.98-10.55,14.06-24.09,16.52-18.78,3.42-20.44-12.31-10.05-17.76Z"/>
                    <path class="cls-7" d="M465.58,955.56c12.08-6.33,30.79-9.56,34.14,1.24,3.72,11.98-10.55,14.06-24.09,16.52-18.78,3.42-20.44-12.31-10.05-17.76Z"/>
                    <path class="cls-7" d="M459.95,1480.27s-43.21-35.48-74.34-73.35c-31.14-37.87-53.01-96.77-72.93-140.53-19.92-43.76-62.83-98.45-84.71-139.13-21.88-40.67-7.85-53.29-13.23-65.92-8.18.28-12.02-7.57-10.89-21.88,1.12-14.31,5.33-64.79,18.79-65.67,3.09-17.15,8.13-17.63,18.51,0,0,0,52.85,131.36,170.82,111.05,117.98-20.31,147.15-66.98,210.78-105.88,63.63-38.89,66.05-36.92,78.24-26.89"/>
                    <path class="cls-7" d="M459.95,1480.27s-43.21-35.48-74.34-73.35c-31.14-37.87-53.01-96.77-72.93-140.53-19.92-43.76-62.83-98.45-84.71-139.13-21.88-40.67-7.85-53.29-13.23-65.92-8.18.28-12.02-7.57-10.89-21.88,1.12-14.31,5.33-64.79,18.79-65.67,3.09-17.15,8.13-17.63,18.51,0,0,0,52.85,131.36,170.82,111.05,117.98-20.31,147.15-66.98,210.78-105.88,63.63-38.89,66.05-36.92,78.24-26.89"/>
                    <path class="cls-7" d="M222.63,973.8s35.92,134.82,178.53,132.23c142.61-2.59,323.25-149.96,391.1-265.34,0,0,6.05-16.42,18.15,3.89,12.1,20.31,40.62,60.07-63.53,161.63-104.15,101.56-181.07,133.97-214.78,169.84-33.71,35.87-83.41,109.77-65.26,182.8,18.15,73.03,80.38,117.98,103.72,130.08"/>
                    <path class="cls-7" d="M230.43,994.74s-20.08,48.63-13.92,70.24c6.17,21.61,82.63,120.57,107.93,169.84,25.29,49.27,47.33,140.02,70.67,168.11,23.34,28.09,38.24,53.86,38.24,53.86"/>
                    <path class="cls-7" d="M746.89,1006.2s25.5,36.3-55.75,90.32c-81.25,54.02-195.33,127.05-200.95,206.14-5.62,79.08,31.12,158.17,123.6,171.57"/>
                    <g>
                      <path class="cls-1" d="M306.99,1083.09s-14.03,43.65-32.88,66.16c-18.85,22.51-7.78,39.33,13.83,15.56,21.61-23.77,32.44-57,34.37-73.88,1.93-16.88-10.63-20.94-15.33-7.84Z"/>
                      <path class="cls-1" d="M750.68,1014.96c-.31-.62-.64-1.26-.99-1.93,0,0,0-.02-.02-.03-.71-1.38-1.47-2.82-2.3-4.36-.02-.05-.05-.1-.08-.16-.05-.09-.1-.18-.15-.27-.25-.48-.53-.97-.8-1.47-4.44-8.03-10.31-17.67-17.58-27.36-1.41-1.87-2.87-3.76-4.38-5.63-4.82-5.96-10.16-11.8-16.01-17.19-2.38-2.19-4.67-3.82-6.88-4.94v-.02s0,0,0,0c-.8-.4-1.58-.75-2.35-1.01t-.02,0c-.19-.08-.39-.15-.57-.2h0c-15.39-5.12-26.89,13.13-40.09,22.13-11.48,7.83-12.91,16.66-10.04,25.31,1.55,4.69,4.37,9.32,7.52,13.69,2.89,4.01,6.07,7.82,8.85,11.26,7.37,9.17,18.21,24.39,27.95,32.53,5.31,4.45,10.28,6.78,14.18,4.89,4.82-2.34,15.18-8.51,24.7-15.91,8.53-6.64,16.4-14.27,19.02-21.04,0,0,0,0,0,0,0-.02.02-.05.03-.06,0,0,0-.02,0-.02,1.13-2.95,1.26-5.73,0-8.19ZM722.57,1035.24c-4.18,3.26-8.67,5.73-11.11,6.72-.93.39-2.02.36-3.22,0-6.91-2.03-17.51-15.23-24.45-26.2-3.03-4.78-6.05-9.04-8.78-12.68-4.6-6.16-8.33-10.61-9.75-13.11-1.95-3.42,5.34-10.29,7.44-12.18.14-.12.26-.23.35-.31.06-.06.11-.1.15-.13.03-.03.05-.05.05-.05.02,0,.03-.02.05-.03h0c14.9-9.35,19.95-13.71,34.26,5.63,1.15,1.56,2.23,3.02,3.22,4.39.41.56.81,1.1,1.2,1.63,10.37,14.27,12.5,18.27,18.85,27.49.84,1.22,1.29,2.48,1.45,3.74.65,5.35-4.27,10.88-9.71,15.08Z"/>
                    </g>
                    <g>
                      <path class="cls-7" d="M306.99,1083.09s-14.03,43.65-32.88,66.16c-18.85,22.51-7.78,39.33,13.83,15.56,21.61-23.77,32.44-57,34.37-73.88,1.93-16.88-10.63-20.94-15.33-7.84Z"/>
                      <path class="cls-7" d="M750.68,1014.96c-.31-.62-.64-1.26-.99-1.93,0,0,0-.02-.02-.03-.71-1.38-1.47-2.82-2.3-4.36-.02-.05-.05-.1-.08-.16-.05-.09-.1-.18-.15-.27-.25-.48-.53-.97-.8-1.47-4.44-8.03-10.31-17.67-17.58-27.36-1.41-1.87-2.87-3.76-4.38-5.63-4.82-5.96-10.16-11.8-16.01-17.19-2.38-2.19-4.67-3.82-6.88-4.94v-.02s0,0,0,0c-.8-.4-1.58-.75-2.35-1.01t-.02,0c-.19-.08-.39-.15-.57-.2h0c-15.39-5.12-26.89,13.13-40.09,22.13-11.48,7.83-12.91,16.66-10.04,25.31,1.55,4.69,4.37,9.32,7.52,13.69,2.89,4.01,6.07,7.82,8.85,11.26,7.37,9.17,18.21,24.39,27.95,32.53,5.31,4.45,10.28,6.78,14.18,4.89,4.82-2.34,15.18-8.51,24.7-15.91,8.53-6.64,16.4-14.27,19.02-21.04,0,0,0,0,0,0,0-.02.02-.05.03-.06,0,0,0-.02,0-.02,1.13-2.95,1.26-5.73,0-8.19ZM722.57,1035.24c-4.18,3.26-8.67,5.73-11.11,6.72-.93.39-2.02.36-3.22,0-6.91-2.03-17.51-15.23-24.45-26.2-3.03-4.78-6.05-9.04-8.78-12.68-4.6-6.16-8.33-10.61-9.75-13.11-1.95-3.42,5.34-10.29,7.44-12.18.14-.12.26-.23.35-.31.06-.06.11-.1.15-.13.03-.03.05-.05.05-.05.02,0,.03-.02.05-.03h0c14.9-9.35,19.95-13.71,34.26,5.63,1.15,1.56,2.23,3.02,3.22,4.39.41.56.81,1.1,1.2,1.63,10.37,14.27,12.5,18.27,18.85,27.49.84,1.22,1.29,2.48,1.45,3.74.65,5.35-4.27,10.88-9.71,15.08Z"/>
                    </g>
                    <g>
                      <path class="cls-7" d="M823.29,884.29s30.92,24.26,47.34,64.1,19.82,59.46,29.83,58.86"/>
                      <path class="cls-7" d="M788.98,820.54s77.25,23.75,108.68,67.79c31.43,44.04,52.25,83.68,53.65,110.1"/>
                      <path class="cls-7" d="M972.73,1050.48c3.5-.9,3.75-6.33,2.55-13.76,0-.02,0-.05,0-.07-.93-5.73-2.72-12.64-4.54-19.6-2.65-10.07-5.92-13.73-14.4-15.35h0c-5.01-.96-11.84-1.21-21.43-1.66-.91-.04-1.8-.07-2.68-.1-23.91-.63-34.26,5.93-31.75,12.11,1.21,2.97,3.7,14.84,6.92,26.66l.05.17c2.65,9.69,5.77,19.32,9.09,23.95,1.36,1.91,2.76,2.98,4.17,2.85,9.01-.8,5.6-12.41,5.6-12.41"/>
                      <path class="cls-7" d="M981.74,1090.12s0-9.79-.85-18.68c-.5-5.21-1.29-10.11-2.55-12.55-.41-.8-1.16-1.77-2.16-2.85-7.18-7.82-27.28-21.57-27.28-21.57l-7.39,5.74-15.03,11.68-8.81-34.83h38.24l7.41,25.19"/>
                      <polyline class="cls-7" points="917.67 1065.71 917.67 1065.74 917.67 1065.76 919.28 1090.12"/>
                      <path class="cls-7" d="M834.64,874.89s41.02,29.72,69.5,115.09"/>
                      <path class="cls-7" d="M802.62,825.35s16.14-38.24,59.25-25.27c43.11,12.97,30.53,57.84,19.9,70.66"/>
                      <path class="cls-7" d="M818.08,831.68s11.88-25.11,42.63-16.36c30.74,8.74,8.68,45.29,8.68,45.29"/>
                    </g>
                    <path class="cls-7" d="M234.92,964.62c-.3-3.19-.69-6.16-1.17-8.9-.33-1.87-.7-3.63-1.12-5.27-1.61-6.26-3.33-12.43-5.07-18.47-3.48-12.04-7.08-23.6-10.35-34.6-6.05-20.44-10.89-38.96-11.37-54.97-.87-28.97,9.93-52.3.43-70.45-9.5-18.15-6.92-24.2-3.45-54.02,3.45-29.81-25.5-126.18-25.5-126.18l15.13-29.39-7.21-.43s22.47-66.26,37.46-110.63c-9.3-39.33-8.29-74.88-5.19-99.94,2.87-23.04,7.5-37.2,7.5-37.2,0,0,11.17-137.76,56.4-190.24,12.49-14.5,34.09-17.05,49.41-5.57,9.87,7.4,21.58,19.82,34.03,40.57,34.45,57.4,68.9,96.2,75.72,98.06,32.9-12.73,77.28-4.35,102.73,4.97,25.45,9.3,39.41-15.21,83.48,4.34,47.8-51.51,134.38-125.68,163.24-113.88,28.85,11.79,17.37,107.37,9.3,161.68-1.73,11.67-3.6,21.49-5.5,30.04-6.63,30.1-13.37,44.42-14.29,68.1-.03.89-.06,1.8-.08,2.72,35.08,54.3,42.53,68.27,48.73,130.34,6.2,62.06,6.52,78.51-5.28,107.06-8.47,20.52-25.45,50.99-35.13,70.99-.01.03-.03.04-.04.05-3.77,7.8-6.43,14-7.03,17.41-1.47,8.19-.24,31.49.71,45.67.45,6.74.84,11.43.84,11.43l5.7,19.12.69,2.31.18.61.18.61,1.02,3.43s.47,3.74,1.89,9.19"/>
                  </g>
                  <path class="cls-2" d="M821.1,767.53s3.63,14.9,20.57,12.04c16.94-2.86,17.16-22.54,12.65-35.74-4.51-13.2-28.44-46.76-67.94-61.87l-34.62-8.7s-13.68,30.21-28.08,30.43c-14.41.22-46.73-10.34-46.73-10.34,0,0-18.14-1.66-36.36,3.75-18.22,5.41-49.68,8.64-59.85,9.51s-19.3,2.08-28.61-2.96c-9.31-5.04-25.26-9.72-25.26-9.72,0,0-52.8,29.98-93.86,90.44-41.05,60.46-41.31,142.07-43.13,161.55-1.82,19.48.34,75.82,18.28,108.8,17.93,32.98,51.15,92.43,90.29,127.42,39.14,34.99,97.38,93.39,109.6,117.04,12.21,23.65,31.67,72.41,11.29,115.26-20.37,42.85-59.71,120.87-85.97,154.31-26.25,33.44-70.77,77.95-98.86,100.85-28.09,22.9-85.01,75.29-102.47,98.8-17.46,23.5-35.39,58.94-37.98,91.35-2.59,32.41-1.89,61.42,12.34,96.29,14.24,34.87,30.07,86.27,58.56,116.53,28.49,30.26,52.34,55.34,83.95,48.42,31.62-6.92,27.51-43.22,6.12-69.37-21.39-26.15-60.07-69.79-75.41-101.99-15.34-32.2-24.85-70.23-11.45-106.96,13.4-36.73,55.65-79.94,95.35-116.79,39.7-36.85,97.9-87.01,138.92-144.14,41.01-57.14,72.13-114.83,77.96-154.8s9.92-87.22-7.25-125.72c-17.17-38.5-45.57-84.33-77.07-112.19-31.5-27.86-69.86-65.09-91.08-97.25-21.23-32.17-45.86-88.35-45.86-147.12s21.39-120.57,53.37-156.22c31.98-35.65,97.24-66.34,143.48-72.6,46.24-6.27,96.46-8.64,124.4,14.48,27.94,23.12,40.72,37.23,40.72,37.23Z"/>
                  <g>
                    <path class="cls-1" d="M736.25,703.69c11.69-.18,22.9-20.1,26.71-27.61q-11.22-2.82-11.22-2.82s-11.35,25.06-24.26,29.69c3.28.49,6.3.78,8.77.74Z"/>
                    <path class="cls-1" d="M593.32,706.61c10.16-.86,41.63-4.1,59.85-9.51,8.24-2.44,16.45-3.44,22.99-3.8-3.64-.24-19.58-.95-35.59,3.8-18.22,5.41-49.68,8.64-59.85,9.51-1.79.15-3.55.31-5.28.45,5.76.74,11.62.08,17.88-.45Z"/>
                    <path class="cls-1" d="M833.69,767.53s-12.78-14.11-40.72-37.23c-18.42-15.24-46.53-19.4-76.79-18.67,25.37.66,48.37,5.57,64.2,18.67,27.94,23.12,40.72,37.23,40.72,37.23,0,0,3.63,14.9,20.57,12.04.88-.15,1.71-.35,2.5-.59-8.38-2.9-10.47-11.45-10.47-11.45Z"/>
                    <path class="cls-17" d="M377.55,2072.57c-28.49-30.26-44.33-81.66-58.56-116.53-14.23-34.87-14.94-63.88-12.34-96.29,2.59-32.41,20.53-67.85,37.98-91.35,17.46-23.5,74.38-75.89,102.47-98.8,28.09-22.9,72.6-67.42,98.86-100.85,26.25-33.43,65.59-111.46,85.97-154.31,20.37-42.85.92-91.61-11.29-115.26-12.21-23.65-70.46-82.05-109.6-117.04-39.14-34.99-72.36-94.44-90.29-127.42-17.93-32.98-20.1-89.32-18.28-108.8,1.82-19.48,2.07-101.09,43.13-161.55,34-50.06,76.05-79.23,89.51-87.78-4.71-1.62-8.24-2.66-8.24-2.66,0,0-52.8,29.98-93.86,90.44-41.05,60.46-41.31,142.07-43.13,161.55-1.82,19.48.34,75.82,18.28,108.8,17.93,32.98,51.15,92.43,90.29,127.42,39.14,34.99,97.38,93.39,109.6,117.04,12.21,23.65,31.67,72.41,11.29,115.26-20.37,42.85-59.71,120.87-85.97,154.31-26.25,33.43-70.77,77.95-98.86,100.85-28.09,22.9-85.01,75.29-102.47,98.8-17.46,23.5-35.39,58.94-37.98,91.35-2.59,32.41-1.89,61.42,12.34,96.29,14.23,34.87,30.07,86.27,58.56,116.53,27.21,28.9,50.19,53.05,79.73,49.14-23.78-3.26-43.91-24.47-67.14-49.14Z"/>
                  </g>
                  <path class="cls-10" d="M751.74,673.27c46.95,9.16,59.36,18.11,82.9,40.02,25.23,23.48,29.3,61.36,9.65,67.66-19.64,6.31-14.05-9.28-58.52-44.66-50-39.78-116.58-20.34-157.81-12.57,0,0-77.61,14.51-118.48,68.76-40.44,53.67-119.66,222.28,75.43,386.78,195.1,164.5,79.83,383.55-137.41,559.87-217.24,176.32,58.49,310.37,23.07,363.94-35.42,53.58-107.46-8.92-147.73-103.71-40.27-94.78-52.55-177.78,36.34-259.79,88.89-82.01,173.85-148.31,218.54-241.13,44.69-92.82,104.63-147.88-37.33-275.8-87.69-79.01-152.76-168.04-150.53-253.3,2.23-85.27,8.88-193.52,138.83-276.75"/>
                  <path class="cls-1" d="M839.04,773c8.8-3.63,13.34,1.16,15.34,14.4,2,13.24,7.46,25.85,2.84,30.47-4.62,4.62-13.55,4.67-16.6-11.64-3.59-19.19-8.2-30.49-1.58-33.23Z"/>
                  <path class="cls-10" d="M839.04,773c8.8-3.63,13.34,1.16,15.34,14.4,2,13.24,7.46,25.85,2.84,30.47-4.62,4.62-13.55,4.67-16.6-11.64-3.59-19.19-8.2-30.49-1.58-33.23Z"/>
                  <circle class="cls-5" cx="850.13" cy="808.05" r="3.41"/>
                  <circle class="cls-5" cx="844.85" cy="784.37" r="3.41"/>
                  <path d="M662.23,491.05s27.06,35.62,47.5,58.45c20.44,22.83,37.75,42.83,41.93,81.32,4.18,38.5-12.09,64.91-27.31,71.33-17.46-5.97-42.08-16.41-45.51-19.25-3.43-2.84,4.92-25.96,4.92-25.96,0,0,21.49-5.22,33.87-18.95,12.38-13.73,21.64-34.77,15.82-52.38-5.82-17.61-34.17-22.68-60.73-22.08-26.56.6-53.72,11.64-55.96,30.74-2.24,19.1,26.71,54.46,61.03,61.92,0,0-1.49,18.2-5.52,26.11-4.03,7.91-50.14,12.98-77.15,19.25-27.01,6.27-47-2.84-60.73-10.89-13.73-8.06-23.73-14.32-25.81-18.95s-15.22-4.77-19.55,2.84c-4.33,7.61,5.52,6.12,16.12,9.85,10.59,3.73,41.48,26.56,62.67,26.86,21.19.3,66.7-13.13,88.49-14.18,21.79-1.04,46.56,4.92,59.39,10-5.22,19.1-21.71,47.99-58.16,52.79-36.45,4.8-79.89-7.97-82.94-8.29,5.35,9.17,44.64,15.5,63.73,15.93,19.1.44,46.16-4.58,64.39-24.01,18.23-19.43,18.77-35.8,18.77-35.8,0,0,22.05-4.47,30.99-32.85,8.95-28.37,5.24-60.68-5.57-82.94-10.8-22.26-41.58-55.11-52.17-66.57-10.59-11.46-25.76-29.9-25.76-29.9l-6.77-4.38Z"/>
                  <path class="cls-1" d="M517.22,787.98c-.5-.5-1.02-1.02-1.57-1.55-.23-.23-.45-.44-.68-.67-.02-.02-.02-.02-.04-.04-.92-.92-1.91-1.87-2.94-2.85-.07-.06-.15-.14-.22-.22-.39-.38-.8-.76-1.22-1.15-8-7.49-18.66-16.53-31.06-24.61-2.72-1.77-5.52-3.49-8.39-5.12-2.76-1.59-5.59-3.11-8.48-4.53,0,0,0,0,0,0-1.21-.6-2.44-1.19-3.67-1.75-2.94-1.35-5.63-2.19-8.07-2.57v-.02c-.89-.14-1.74-.23-2.57-.25-.2-.02-.42-.02-.61-.02-16.22-.12-21.53,20.79-31.3,33.42-8.51,10.99-7.15,19.84-1.75,27.18,1.31,1.79,2.85,3.48,4.56,5.09.36.35.73.69,1.11,1.03,2.5,2.24,5.28,4.33,8.1,6.3,3.24,2.25,6.53,4.33,9.5,6.27,9.84,6.44,24.85,17.58,36.63,22.32,1.33.54,2.62,1,3.86,1.35.34.1.68.19,1.01.28,4.28,1.06,7.83.84,10.12-1.36,1.24-1.19,2.88-2.92,4.78-5.04,1.62-1.83,3.43-3.95,5.32-6.28,2.79-3.47,5.74-7.37,8.5-11.43,6.07-8.95,11.19-18.63,11.6-25.88,0-.03,0-.06,0-.1.17-3.15-.57-5.83-2.52-7.8ZM496.74,815.95c-2.52,3.72-5.42,6.96-7.47,8.9-.37.35-.72.66-1.02.92-.35.3-.74.52-1.19.68h0c-.55.21-1.17.31-1.86.31-7.2.2-21.35-9.08-31.34-17.37-5.99-4.98-11.68-8.98-16.25-12.12-3.34-2.29-6.08-4.12-7.92-5.52-.35-.27-.68-.53-.97-.76-.17-.14-.32-.27-.46-.4-3.1-2.82,2.57-12.64,3.55-14.28.08-.15.14-.23.14-.23,6.84-8.18,10.81-13.51,17.2-13.35.1,0,.2,0,.31,0,2.65.14,5.72,1.2,9.57,3.36h0c2.16,1.21,4.56,2.78,7.28,4.72,2.23,1.58,4.24,3.04,6.07,4.36,14.26,10.37,17.53,13.52,26.41,20.34,1.17.9,2,1.96,2.53,3.11.43.91.66,1.87.75,2.89.04.48.05.97.02,1.47-.19,4.14-2.54,8.85-5.36,12.97Z"/>
                  <path class="cls-7" d="M517.22,787.98c-.5-.5-1.02-1.02-1.57-1.55-.23-.23-.45-.44-.68-.67-.02-.02-.02-.02-.04-.04-.92-.92-1.91-1.87-2.94-2.85-.07-.06-.15-.14-.22-.22-.39-.38-.8-.76-1.22-1.15-8-7.49-18.66-16.53-31.06-24.61-2.72-1.77-5.52-3.49-8.39-5.12-2.76-1.59-5.59-3.11-8.48-4.53,0,0,0,0,0,0-1.21-.6-2.44-1.19-3.67-1.75-2.94-1.35-5.63-2.19-8.07-2.57v-.02c-.89-.14-1.74-.23-2.57-.25-.2-.02-.42-.02-.61-.02-16.22-.12-21.53,20.79-31.3,33.42-8.51,10.99-7.15,19.84-1.75,27.18,1.31,1.79,2.85,3.48,4.56,5.09.36.35.73.69,1.11,1.03,2.5,2.24,5.28,4.33,8.1,6.3,3.24,2.25,6.53,4.33,9.5,6.27,9.84,6.44,24.85,17.58,36.63,22.32,1.33.54,2.62,1,3.86,1.35.34.1.68.19,1.01.28,4.28,1.06,7.83.84,10.12-1.36,1.24-1.19,2.88-2.92,4.78-5.04,1.62-1.83,3.43-3.95,5.32-6.28,2.79-3.47,5.74-7.37,8.5-11.43,6.07-8.95,11.19-18.63,11.6-25.88,0-.03,0-.06,0-.1.17-3.15-.57-5.83-2.52-7.8ZM496.74,815.95c-2.52,3.72-5.42,6.96-7.47,8.9-.37.35-.72.66-1.02.92-.35.3-.74.52-1.19.68h0c-.55.21-1.17.31-1.86.31-7.2.2-21.35-9.08-31.34-17.37-5.99-4.98-11.68-8.98-16.25-12.12-3.34-2.29-6.08-4.12-7.92-5.52-.35-.27-.68-.53-.97-.76-.17-.14-.32-.27-.46-.4-3.1-2.82,2.57-12.64,3.55-14.28.08-.15.14-.23.14-.23,6.84-8.18,10.81-13.51,17.2-13.35.1,0,.2,0,.31,0,2.65.14,5.72,1.2,9.57,3.36h0c2.16,1.21,4.56,2.78,7.28,4.72,2.23,1.58,4.24,3.04,6.07,4.36,14.26,10.37,17.53,13.52,26.41,20.34,1.17.9,2,1.96,2.53,3.11.43.91.66,1.87.75,2.89.04.48.05.97.02,1.47-.19,4.14-2.54,8.85-5.36,12.97Z"/>
                </g>
                <path class="cls-2" d="M635.2,576.46c11.47-5.28,46.15-9.98,69.71-4.93,23.56,5.05,24.31,14.34,24.21,27.08-.11,12.74-5.59,12.39-7.75,10.9-2.15-1.49,1.94-10.78-3.01-11.7s-10.65,7-9.47,14.11c1.18,7.11,2.9,12.05,11.51,11.82-2.9,11.93-13.13,25.59-32.06,28.11l6.02-42.11-15.71,42.8s-20.12-6.88-30.02-14.34c-9.9-7.46-13.13-12.96-12.37-15.95.75-2.98,12.05,6.88,28.73,1.38,16.68-5.51,13.23-24.21,1.29-25.36-11.94-1.15-16.35,8.72-18.4,14.11-2.04,5.39-17.21,3.56-21.84-7.23-4.63-10.78-5.06-22.14,9.14-28.68Z"/>
              </g>
            </g>
          </g>
        </g>
        <path d="M540,1059.11c-70.08,0-138.06-13.73-202.06-40.8-61.82-26.15-117.33-63.58-165.01-111.25-47.67-47.67-85.1-103.19-111.25-165-27.07-64-40.8-131.99-40.8-202.06s13.73-138.06,40.8-202.06c26.15-61.82,63.58-117.33,111.25-165.01s103.19-85.1,165.01-111.25c64-27.07,131.99-40.8,202.06-40.8s138.06,13.73,202.06,40.8c61.82,26.15,117.33,63.58,165.01,111.25s85.1,103.19,111.25,165.01c27.07,64,40.8,131.99,40.8,202.06s-13.73,138.06-40.8,202.06c-26.15,61.82-63.58,117.33-111.25,165-47.67,47.67-103.19,85.1-165.01,111.25-64,27.07-131.99,40.8-202.06,40.8ZM540,29.71C258.62,29.71,29.71,258.62,29.71,540s228.92,510.29,510.29,510.29,510.29-228.92,510.29-510.29S821.38,29.71,540,29.71Z"/>
      </g>
    </g>
  </g>
</svg>