<?xml version="1.0" encoding="UTF-8"?>
<svg xmlns="http://www.w3.org/2000/svg" version="1.1" xmlns:xlink="http://www.w3.org/1999/xlink" viewBox="0 0 1080 1080">
  <defs>
    <style>
      .cls-1 {
        fill: #2b2b29;
      }

      .cls-2 {
        stroke-width: 7.01px;
      }

      .cls-2, .cls-3, .cls-4, .cls-5, .cls-6, .cls-7 {
        fill: none;
      }

      .cls-2, .cls-3, .cls-5, .cls-6, .cls-7 {
        stroke: #000;
        stroke-linecap: round;
        stroke-linejoin: round;
      }

      .cls-8 {
        fill: #727272;
      }

      .cls-9 {
        fill: #e9d9b7;
      }

      .cls-10 {
        fill: #847767;
      }

      .cls-3 {
        stroke-width: 6.28px;
      }

      .cls-11 {
        fill: #ffedd2;
      }

      .cls-12 {
        fill: #6a6965;
      }

      .cls-13 {
        fill: #d3544f;
      }

      .cls-14 {
        fill: #8b4513;
      }

      .cls-15 {
        fill: #bb3e39;
      }

      .cls-5 {
        stroke-width: 2.09px;
      }

      .cls-6 {
        stroke-width: 5.8px;
      }

      .cls-16 {
        fill: #d4a76a;
      }

      .cls-7 {
        stroke-width: 7.33px;
      }

      .cls-17 {
        fill: #d74d4d;
      }

      .cls-18 {
        clip-path: url(#clippath);
      }
    </style>
    <clipPath id="clippath">
      <circle class="cls-4" cx="540" cy="540" r="514.7"/>
    </clipPath>
  </defs>
  <!-- Generator: Adobe Illustrator 28.7.2, SVG Export Plug-In . SVG Version: 1.2.0 Build 154)  -->
  <g>
    <g id="Layer_1">
      <g>
        <g>
          <circle class="cls-14" cx="540" cy="540" r="535.62"/>
          <path d="M540,1080c-72.9,0-143.62-14.28-210.19-42.44-64.3-27.2-122.05-66.13-171.64-115.72s-88.53-107.34-115.72-171.64C14.28,683.62,0,612.9,0,540s14.28-143.62,42.44-210.19c27.2-64.3,66.13-122.05,115.72-171.64,49.59-49.59,107.34-88.53,171.64-115.72C396.38,14.28,467.1,0,540,0s143.62,14.28,210.19,42.44c64.3,27.2,122.05,66.13,171.64,115.72,49.59,49.59,88.53,107.34,115.72,171.64,28.16,66.58,42.44,137.3,42.44,210.19s-14.28,143.62-42.44,210.19c-27.2,64.3-66.13,122.05-115.72,171.64-49.59,49.59-107.34,88.53-171.64,115.72-66.58,28.16-137.3,42.44-210.19,42.44ZM540,8.75C247.07,8.75,8.75,247.07,8.75,540s238.32,531.25,531.25,531.25,531.25-238.32,531.25-531.25S832.93,8.75,540,8.75Z"/>
        </g>
        <circle class="cls-17" cx="540" cy="540" r="514.7"/>
        <g class="cls-18">
          <g>
            <g>
              <g>
                <path class="cls-16" d="M1233.96,1585.24s-.39.04-1.11.11h0c-8.37.88-61.37,6.38-62.64,5.34-.33-.26-2.39-1.4-5.35-2.95-9.25-4.89-27.25-14.07-27.69-14.3,0,0,0,0,.01-.01,0,0,0,0,0-.01.77-.75,13.75-13.53,12.45-33.79-1.33-20.89-9.9-71.72-13.84-94.76v-.02c-3.93-23.03-12.6-36.46-43.24-65.28-30.64-28.82-54.99-62.4-54.99-62.4l-89.08-154.84-34.11-18.68-1.23,3.21-61.97,161.98.92,38.31,1.38,57.09,3.08,127.28-105.49,45.21-4.77,2.04v-20.34s1.19-3.84,5.66-8.86c4.47-5.02,12.24-11.23,25.41-15.96,26.33-9.47,34.85-49.46,36.37-75.59,1.12-19.24,2.44-44.02-3.21-61.73-2.02-6.36-4.94-11.82-9.1-15.77-1.45-1.38-2.97-2.85-4.53-4.41h-.01c-.38-.38-.77-.77-1.16-1.16-.94-.93-1.9-1.9-2.87-2.88-1.36-1.39-2.75-2.8-4.12-4.24-.46-.48-.92-.96-1.38-1.43-4.16-4.31-8.27-8.69-11.97-12.65-.4-.43-.79-.85-1.18-1.27-.44-.48-.88-.96-1.32-1.43-.35-.37-.68-.73-1.01-1.1-1.32-1.43-2.56-2.76-3.67-3.99-.18-.19-.35-.38-.51-.57-.52-.55-1-1.08-1.45-1.57-.2-.22-.39-.43-.57-.63-.03-.03-.06-.06-.08-.09-1.63-1.79-2.81-3.1-3.41-3.77-.28-.33-.44-.49-.44-.49-3.85-1.72-7.61-4.06-11.21-6.8l-.02-.02c-3.33-2.52-6.52-5.39-9.55-8.42-16.24-16.31-27.56-37.53-27.56-37.53-1.79,1.95-3.37,3.75-4.81,5.4-.6.7-1.19,1.37-1.75,2.01,0,0-25.48-25.36-24.24-38.67-1.28-2.01-1.98-3.14-1.98-3.14-2.03.93-3.91,1.84-5.66,2.7-11.04,5.47-16.93,9.52-21.29,9.13h0c-3.41.21-5.88-1.85-7.88-5.14-1.7.5-7.03,2.02-14.68,3.93-2.27.34-4.59.69-6.87,1.04-5.86.89-11.39,1.78-14.79,2.5-43.38-15.39-61.63-21.55-69.15-24h0s-.01,0-.02,0c-4.29-1.39-5.08-1.57-5.08-1.57l-67.55-9.47h0l-2-.28-.36-.06h0s-5.78,35.53-5.78,35.53h0s-19.74,121.46-19.74,121.46v.04l-.22,42.75h0s-.93,184.19-.93,184.19l-8.16,50.24h0s-5.16,31.78-5.16,31.78c-.01.02-.01.04-.02.06l-35.5,34.62-7.31-1.04-24.76-3.51h0l-12.21-1.74h0s0,0-.01,0l-24.55-3.48-5.1-16.03s0,0,0,0h0s-9.71-30.57-9.71-30.57c0,0,8.57-3.21,18.79-12.85h0s.04-.04.06-.06c9.18-8.65,19.67-22.5,26.52-43.84.13-.39.26-.78.37-1.16.22-.72.44-1.41.65-2.11,6.86-23.18,9.93-39.47,10.16-56.46.24-17.56-2.53-35.87-7.29-63.32-.01-.11-.04-.22-.06-.33-6.39-36.82-21.18-99.21-30.79-145.19,0,0,0-.03,0-.05-2.97-14.26-5.45-26.92-7.02-36.78-.02-.13-.04-.27-.06-.4-.8-5.09-1.36-9.42-1.61-12.79,0-.04,0-.09,0-.13-1.11-14.73-2.02-36.61-3.36-56.9-1.16-17.51-2.64-33.84-4.85-43.37-.01-.04-.02-.09-.04-.11-.55-2.4-1.15-4.37-1.82-5.81,0-.02-.02-.04-.02-.06-.02-.04-.04-.09-.06-.13-6.37-13.33-39.05-53.54-45.5-98.07-5.1-35.13,3.64-126.83,7.56-163.95,0-.01,0-.02,0-.04.07-.7.13-1.36.21-2.02h0c.08-.68.15-1.34.21-1.97h0c.09-.9.18-1.75.27-2.56h0c.65-5.94,1.05-9.36,1.05-9.36l1.36-17.9,5.37-70.77h0s2.05-27.07,2.05-27.07v-.21s0,0,0,0l.43-5.68v-.03h0s.11-1.28.11-1.28h0s.3-3.98.3-3.98h0s.82-10.79.82-10.79l-2.5-4.88-6.59-12.89h0s-3.4-6.66-3.4-6.66l1.45-.11,7.98-.6h.01l23.01-1.73h.01l2.2-.16h.01l32.92-2.48s0,0,0,0l105.07-7.86,1.09-.09h0l159.72-11.97h.04l2.79-.21,16.85-1.27h0l42.12-3.15,17.88-3.97,13.52-2.99h.03s.16-.05.16-.05h0l37.73-8.36,1.56-.35h0l3.26-.72h0l.38-.09h.01s0,0,0,0l9.93-2.19,1.97-.44,9.27-2.05.97-.22h.01c.21.16,3.39,2.33,9.13,5.72,3.34,1.96,7.55,4.34,12.55,6.96,11.7,6.12,27.73,13.6,47.21,20.4,0,0,.01,0,.02,0,.06.03.11.05.18.06t.01,0c.08.02.15.05.23.07,18.83,6.56,40.85,12.47,65.22,15.88,1.11.16,2.21.32,3.34.46h0c3.37.44,6.79.84,10.25,1.17h.01c1.53.15,3.05.29,4.58.42,1.38.11,2.75.24,4.12.37h.02c25.88,2.38,50.2,6.88,72.4,13.95.19.06.39.12.58.18h.01c10.88,3.49,21.23,7.61,31.01,12.39l.04.02h0c1.55.76,3.07,1.53,4.58,2.33,0,0,.02.01.03.01,22.02,11.48,40.91,26.58,55.84,45.97h0c.88,1.15,1.74,2.29,2.58,3.47.11.14.23.3.33.46.16.21.31.4.45.62,1.03,1.43,2.04,2.89,3.03,4.39,0,.01,0,.02.01.03.02.03.04.05.06.08,6.32,9.53,11.77,19.99,16.28,31.45,23.28,59.24,47.9,89.41,62.03,168.93,0,.01,0,.04,0,.05,0,.04.01.09.02.13,4.01,22.63,7.17,49.26,9.22,81.68,7.2,114.31,6.15,175.82,8.83,205.46,0,.04,0,.09,0,.11.76,8.28,1.8,14.07,3.42,17.81h0c3.07,7.15,5.43,11.99,7.69,15.95,0,0,.01.02.01.03,0,.01.01.03.02.04,0,0,0,.02,0,.03.04.08.09.17.15.27,3.07,5.34,5.95,9.1,10.08,14.92,2.97,4.18,4.64,12.61,5.85,23v.04s0,.01,0,.02c1.75,15.05,2.57,34.19,5.05,50.39,4.2,27.41,18,137.82,18,137.82Z"/>
                <path class="cls-11" d="M1177.67,1224.06c-17.53-206.46-35.62-261.04-90.92-366.78-55.3-105.73-254.1-102.46-254.1-102.46l-9.59-7.1v-13.84c45.75,7.68,121.81,20.23,152.71,26.72,52.86,11.09,121.2,72.2,146.98,132.29,25.79,60.07,36.88,95.66,45.13,161.68,4.45,35.64,7.1,106.84,9.79,169.49Z"/>
                <path class="cls-11" d="M733.11,614.66c-1.23,6.81-.2,26.16.59,37.94.38,5.6.7,9.5.7,9.5l4.73,15.89c-24.56,21.91-62.24,54.02-83.29,64.55-33.03,16.52-232.69,63.2-278.65,55.3-32.38-5.56-84.38-35.74-112.27-53.07-5.03-16.99-9.05-32.37-9.45-45.67-.72-24.07,8.25-43.45.36-58.54-7.9-15.08-5.75-20.11-2.87-44.89,2.87-24.77-21.19-104.85-21.19-104.85l12.57-24.42-5.99-.36s18.67-55.06,31.13-91.92c-7.73-32.68-6.89-62.22-4.31-83.04,2.39-19.15,6.23-30.91,6.23-30.91,0,0,11.96-147.46,63.68-171.41,0,0,23.89-5.3,52.51,42.41,28.62,47.7,57.25,79.93,62.91,81.48,27.34-10.58,64.21-3.61,85.36,4.13,21.15,7.73,32.75-12.64,69.36,3.6,39.71-42.8,111.66-104.43,135.64-94.63,23.97,9.79,14.43,89.21,7.73,134.34-1.43,9.7-3,17.86-4.57,24.96-5.51,25.01-11.11,36.91-11.88,56.59-.02.74-.05,1.5-.06,2.26,29.15,45.12,35.34,56.72,40.49,108.3,5.15,51.57,5.41,65.24-4.39,88.96-7.04,17.05-21.15,42.36-29.19,58.99-.01.02-.02.03-.03.04-3.13,6.48-5.34,11.64-5.84,14.46Z"/>
                <path class="cls-11" d="M269.42,1079.71c5.34,26.38,11.27,43.27,24.31,56.31s29.64,29.94,50.68,30.53c21.04.59,26.68-31.42,26.68-31.42l-5.04-44.43,116.04,32.43s47.87-1.93,72.47,22.37,48.31,41.79,77.65,32.6c29.34-9.19,66.69-64.85,72.02-89.19,5.34-24.33-25.77-52.49-37.34-62.27s-66.27-13.93-81.9-10.37c-15.63,3.56-53.86,33.2-62.46,37.94-8.6,4.74-76.47-7.71-76.47-7.71l-100.43,7.98s-26.42-22.51-34.72-29.32c-8.3-6.82-24.3.89-30.82,10.67-6.52,9.78-10.68,43.87-10.68,43.87Z"/>
                <path class="cls-14" d="M1153.51,1531.7h0c-1.69,11.42-3.21,18.64-3.21,18.64h0c.31-5.07.07-11.53-.77-20-.31-3.15-.65-6.34-.99-9.55-.35-3.2-.7-6.42-1.07-9.65-.17-1.42-.33-2.83-.5-4.24-.18-1.58-.38-3.17-.58-4.73-.19-1.58-.4-3.15-.61-4.73-.2-1.56-.42-3.12-.63-4.68-.45-3.23-.92-6.44-1.41-9.61-.13-.86-.27-1.72-.4-2.56-.12-.75-.24-1.48-.37-2.21-.05-.33-.11-.67-.17-.99-.43-2.62-.89-5.22-1.37-7.78-.25-1.4-.52-2.77-.79-4.14-.07-.37-.13-.74-.22-1.1-.17-.88-.35-1.75-.53-2.62-.13-.65-.26-1.29-.41-1.93-.17-.8-.35-1.61-.53-2.41-.4-1.78-.8-3.54-1.23-5.28-.11-.49-.23-.99-.35-1.48-.25-.97-.49-1.94-.75-2.9-.16-.62-.33-1.23-.49-1.83-.09-.35-.19-.72-.3-1.06v-.02c-.11-.4-.22-.79-.33-1.19-.16-.59-.33-1.16-.5-1.74-.18-.66-.38-1.31-.58-1.96-.39-1.3-.79-2.58-1.21-3.85-.17-.51-.35-1.04-.51-1.54-.06-.19-.13-.38-.2-.57-.15-.45-.31-.89-.46-1.33-.23-.66-.47-1.31-.71-1.96-.24-.65-.48-1.28-.72-1.92-.45-1.17-.92-2.33-1.4-3.46-.47-1.14-.95-2.23-1.45-3.31-.25-.54-.5-1.07-.75-1.6-.5-1.06-1.01-2.08-1.56-3.08-.26-.5-.53-.99-.81-1.48-.26-.49-.53-.97-.82-1.43-.28-.47-.55-.93-.84-1.39-.29-.48-.58-.94-.88-1.38-.28-.43-.56-.85-.86-1.27-.27-.4-.55-.79-.84-1.18-.33-.44-.64-.86-.97-1.28-.31-.4-.61-.79-.93-1.16-.31-.38-.63-.75-.96-1.11-.23-.26-.46-.52-.69-.77-.42-.45-.84-.88-1.27-1.3-21.38-20.99-72.15-70.24-104.22-115.67-32.07-45.43-61.47-110.71-85.89-132.46,0,0-42.54,69.06-45.29,119.81-.12,2.25-.18,4.49-.18,6.71,0,1,.01,2,.04,2.99,0,.1,0,.21,0,.31.02.8.05,1.6.09,2.39.01.31.02.62.04.92.04.81.09,1.6.13,2.39.04.38.06.77.1,1.15.06.79.12,1.59.21,2.39.1,1,.2,2.01.32,3,.32,2.75.73,5.44,1.2,8.08.09.49.17.97.26,1.45.11.57.21,1.14.33,1.69.43,2.16.9,4.26,1.41,6.34.16.68.33,1.36.51,2.03.02.13.06.26.09.39.11.44.23.88.35,1.31.89,3.3,1.85,6.48,2.87,9.52.06.18.12.35.18.51.19.57.39,1.16.59,1.72,1.36,3.91,2.8,7.59,4.24,10.99.42,1.01.84,1.98,1.26,2.94.5,1.09.98,2.14,1.45,3.17.15.33.3.64.45.95,1.01,2.15,2.02,4.15,2.97,5.98.22.43.44.84.65,1.24,2.41,4.56,4.5,8,5.84,10.11.11.16.21.33.31.49.81,1.25,1.27,1.91,1.27,1.91,0,0,0,0,0,.01l-17.03,36.69c-14.61-51.15-27.95-64.91-27.09-28.37.32,13.01-3.94,21.72-9.53,27.53-10.11,10.53-24.68,11.6-24.68,11.6,0,0-9.27-11.77-18.27-19.55-2.02-6.36-4.94-11.82-9.1-15.77-1.45-1.38-2.97-2.85-4.53-4.41h-.01c-.38-.38-.77-.77-1.16-1.16-.94-.93-1.9-1.9-2.87-2.88-1.36-1.39-2.75-2.8-4.12-4.24-.46-.48-.92-.96-1.38-1.43-4.16-4.31-8.27-8.69-11.97-12.65-.4-.43-.79-.85-1.18-1.27-.44-.48-.88-.96-1.32-1.43-.35-.37-.68-.73-1.01-1.1-1.32-1.43-2.56-2.76-3.67-3.99-.18-.19-.35-.38-.51-.57-.52-.55-1-1.08-1.45-1.57-.2-.22-.39-.43-.57-.63-.03-.03-.06-.06-.08-.09-1.94-2.08-11.59-6.27-14.34-9.49-.47-.56-.74-1.09-.72-1.57l-.02-.02-9.55-8.42-21.4-18.9-12.72-11.23s-25.48-25.36-24.24-38.67c.19-2.1,1.06-3.9,2.8-5.26h0c.04-.24,1.03-.62,2.66-1.11.01,0,.03-.01.04-.01,9.04-2.7,37.7-8.6,37.91-9.98.11-.74.28-1.41.49-1.99.06-.14.11-.28.16-.4.13-.33.29-.64.46-.92,2.95-5.02,10.48-3.87,17.78-8.82,1.13-.77,2.25-1.67,3.35-2.78,0,0,.01-.01.02-.02,1.96-1.97,3.84-4.55,5.55-7.99,14.11-28.44,21.79-62.49,25.76-90.58,3.65-25.83,4.17-46.64,3.66-53.44,3.14,15.75,6.1,26.5,8.93,33.78,7.05,18.16,13.36,14.74,20.11,13.51,1.55-.28,3.53-3.25,5.71-8.3,9.57-22.01,23.15-83.44,22.08-132.29-.19-8.49-.82-16.61-1.99-24.07-9.46-60.18-.86-84.69-19.35-106.61-.38-.44-.74-.89-1.09-1.34-.09-.1-.16-.2-.23-.3-17.25-21.84-18.88-52.36-18.88-52.36,0,0-1.29,27.9-.86,46.53-14.61-58.31-24.93-73.76-24.93-73.76,0,0-17.55,33.23-39.44,64-8.94,12.56-18.61,24.72-28.1,34.03h0c-.6.59-1.19,1.17-1.79,1.72h0s0,0,0,0c-2.11,2.01-4.23,3.87-6.32,5.54l-4.75-4.75-3.92-3.92-3.58-3.58c-.92-.92-1.8-1.8-2.65-2.65h0l-19.47-19.47,13.33-16.35,10.29-12.62,71.64-87.84,6.28-7.71.16-.2h0s4.12-5.06,4.12-5.06l2.5-3.07,10.06,10.02,63.02,62.83s6.59,20.13,14.06,49.39c.28,1.12.57,2.25.86,3.4h0c.47,1.88.94,3.79,1.41,5.73.04.15.07.29.11.44.64,2.63,1.28,5.32,1.92,8.05,1.45,6.18,2.89,12.63,4.29,19.24.92,4.37,1.82,8.82,2.68,13.33,1.81,9.45,3.48,19.15,4.9,28.9h0c1.18,7.98,2.17,16,2.93,23.93.89,9.16,1.48,18.22,1.67,26.99.05,2.16.09,4.3.09,6.44h0c.04,4.38.04,8.69-.05,12.96-.52,32.65-4,62.22-7.54,84.41-1.02,6.42-2.05,12.21-3.02,17.28-2.82,14.79-5.09,23.47-5.09,23.47,0,0,.31-.1.89-.31,1.46-.53,4.65-1.74,9.01-3.85.28-.13.55-.26.84-.41h0c20.35-10.05,63.96-38.6,80.51-104.19,33.54,75.23,22.36,142.29,27.95,175.83,5.59,33.53,52.02,49,72.22,109.62,20.2,60.61,64.91,87.69,90.28,132.4,18.38,32.4,12.89,91.42,8.47,121.46Z"/>
                <path class="cls-14" d="M615.35,1268.1s-.02-.06-.04-.09c-.01-.04-.03-.08-.04-.1,0-.02-.01-.04-.01-.04-.22.06-.45.11-.67.16-.2.05-.4.1-.6.14,0,0-.06.01-.16.04-2.26.52-4.52,1.01-6.77,1.48-1.15.24-2.3.47-3.44.7-1.15.22-2.29.44-3.43.65-1.14.21-2.28.4-3.41.6-1.14.19-2.26.37-3.39.55-4.52.7-8.99,1.26-13.41,1.69-.97.09-1.94.18-2.9.26-.32.03-.63.05-.95.08-.8.06-1.6.12-2.41.18-.14,0-.28.01-.43.03-2.08.13-4.15.24-6.2.31-.16,0-.31,0-.47.01-.94.03-1.87.06-2.81.07h-.11c-1.05.02-2.1.03-3.14.03h-.08c-.7,0-1.38,0-2.07-.01-.55,0-1.09-.01-1.63-.03-.62,0-1.23-.03-1.85-.05-.36,0-.73-.02-1.09-.04-.47-.01-.94-.04-1.41-.06-.52-.03-1.03-.05-1.55-.09-.52-.03-1.03-.06-1.54-.09-.48-.03-.94-.06-1.42-.1-.38-.03-.77-.06-1.14-.09-.37-.03-.73-.06-1.09-.09-1.5-.13-2.99-.28-4.46-.46-.43-.05-.87-.11-1.3-.16-.47-.06-.94-.12-1.42-.19-.59-.08-1.18-.16-1.77-.26-.52-.08-1.04-.16-1.56-.25-1.09-.17-2.18-.36-3.25-.57-.36-.07-.72-.13-1.07-.21-.35-.07-.71-.14-1.06-.21-.51-.1-1.01-.21-1.52-.32,0,0-.02,0-.03,0-.05-.01-.09-.02-.14-.04h-.02c-1.21-.27-2.4-.55-3.58-.85-.46-.11-.92-.23-1.38-.35-2.33-.62-4.63-1.31-6.88-2.07-.4-.13-.8-.27-1.19-.4-.12-.04-.25-.09-.37-.13-.43-.14-.84-.3-1.26-.45-1.68-.61-3.34-1.26-4.96-1.97-.43-.18-.85-.36-1.28-.55,0,0-.02,0-.03-.01-.48-.21-.96-.43-1.43-.65-.53-.24-1.06-.49-1.59-.75-.62-.31-1.23-.61-1.85-.92-.49-.25-.97-.5-1.45-.76-.29-.15-.57-.31-.86-.46-.44-.24-.87-.48-1.31-.73-.59-.33-1.18-.68-1.77-1.03-.57-.34-1.14-.69-1.7-1.04-.04-.02-.09-.06-.14-.09-.48-.31-.96-.61-1.43-.93-.13-.08-.27-.17-.4-.26-.4-.26-.79-.53-1.19-.8-1.33-.92-2.65-1.87-3.92-2.87-.39-.3-.77-.6-1.16-.91-.06-.05-.13-.1-.18-.15-.4-.32-.79-.64-1.18-.97-.61-.51-1.22-1.04-1.82-1.57-.26-.23-.53-.47-.79-.71-.35-.31-.7-.64-1.05-.97-.31-.28-.62-.57-.92-.87-.28-.27-.56-.55-.84-.82-.39-.38-.78-.78-1.16-1.18-1.19-1.22-2.35-2.49-3.47-3.8-.32-.38-.65-.76-.97-1.14-.75-.89-1.48-1.81-2.19-2.75,0-.01-.02-.02-.03-.04-.38-.5-.75-.99-1.12-1.5-.38-.51-.75-1.02-1.11-1.55-.4-.56-.78-1.14-1.17-1.71-.33-.49-.65-.98-.97-1.48-.03-.04-.06-.09-.08-.13-.1-.14-.19-.28-.28-.43-.35-.55-.69-1.11-1.03-1.67h0c-.09.06-.18.13-.27.21s-.18.15-.27.23c-.09.08-.18.16-.26.26-.08.09-.16.18-.24.27-.01.01-.03.03-.04.04-.04.04-.08.09-.11.13h0s-.09.1-.11.15c-.01.01-.02.02-.03.04h0s0,0,0,0c-.13.17-.26.35-.38.55-.1.16-.2.32-.3.49,0,.01-.01.03-.02.04-.11.18-.21.38-.31.57-.66,1.31-1.23,2.92-1.73,4.8-.05.18-.1.36-.15.55-.09.33-.16.67-.24,1.01-.22.93-.42,1.92-.6,2.94-.09.44-.16.89-.23,1.35-.04.26-.09.51-.12.77-.08.52-.16,1.04-.23,1.58l-.11.81c-.11.82-.21,1.65-.3,2.5-.12,1.12-.23,2.28-.33,3.46-.13,1.5-.23,3.04-.33,4.61-.02.31-.04.62-.06.94-.09,1.57-.16,3.17-.23,4.78-.03.78-.06,1.57-.08,2.36-.01.38-.02.75-.04,1.12,0,.1,0,.2,0,.3h0c-.02.74-.04,1.46-.05,2.19-.01.58-.03,1.16-.04,1.75,0,.36,0,.73-.01,1.09,0,.55-.01,1.11-.01,1.67-.04,4.49-.01,8.95.05,13.16.35,22.62,5.39,75.78-1.43,140.76-6.83,65-7.17,118.61-5.08,136.21,2.09,17.61-1.63,24.16-5.52,36.54-3.87,12.39.6,30.88-2.38,47.3-2.99,16.4-13.43,18.19-13.43,18.19,0,0-.08.65-.24,1.82-.03.17-.05.35-.08.55-.02.13-.04.26-.06.4-.02.13-.04.26-.06.4-.02.18-.05.37-.08.57-.04.25-.08.5-.12.77-.12.81-.26,1.71-.43,2.69-.04.27-.09.55-.13.83-.07.43-.15.86-.23,1.31-.08.45-.16.92-.24,1.39-.43,2.39-.93,5.07-1.53,7.93-.18.84-.36,1.68-.55,2.55-.13.59-.26,1.19-.4,1.8-.13.59-.27,1.18-.41,1.77-.14.6-.29,1.21-.44,1.82-.4,1.65-.84,3.31-1.3,4.97-.27.99-.55,1.98-.85,2.97-.28.97-.58,1.94-.89,2.9-.61,1.92-1.26,3.83-1.94,5.66-7,18.79-8.65,22.08-22.08,27.75-.45.19-.91.38-1.37.57-.04.01-.08.03-.11.05-.42.17-.84.34-1.26.5-.46.18-.91.36-1.37.53-.28.11-.55.21-.82.32-.05.02-.1.04-.15.06-.28.11-.56.21-.84.31-.25.09-.49.18-.74.26-.62.22-1.24.43-1.86.63-.37.11-.73.23-1.1.35-.01,0-.04,0-.05.01-.43.13-.84.26-1.28.38-.05.01-.1.03-.15.04-.42.12-.84.23-1.26.35-.05.01-.1.03-.16.04-.38.09-.76.18-1.15.28-.45.11-.9.21-1.35.31-.45.09-.89.18-1.34.27-.06.01-.13.02-.19.04-.27.05-.54.09-.82.13-.33.05-.67.1-1,.15,0,0-.02,0-.03,0-.32.04-.63.08-.94.11-.34.04-.68.08-1.02.11-.06,0-.12,0-.18.01-.83.07-1.64.1-2.46.11-.15,0-.31,0-.46,0-.24,0-.48,0-.73,0-.24,0-.48-.01-.72-.03l-.43-.02c-.09,0-.18,0-.26-.02-.5-.04-.99-.08-1.48-.14-.04,0-.09,0-.13-.01-.04,0-.07,0-.11-.01-.07,0-.14-.02-.21-.03-.16-.02-.33-.04-.48-.07-.03,0-.06,0-.08-.01-.06,0-.13-.01-.18-.03-.08-.01-.16-.03-.23-.04-.24-.04-.48-.09-.71-.13-.55-.11-1.09-.24-1.63-.4-.09-.02-.18-.04-.27-.07-.09-.03-.17-.06-.26-.08-.11-.04-.22-.07-.33-.11-.11-.03-.22-.07-.33-.11h0c-.29-.09-.57-.19-.87-.3-.17-.06-.34-.13-.51-.21-.08-.03-.16-.06-.23-.09-.2-.07-.4-.16-.59-.25-.11-.05-.23-.1-.35-.16-.18-.08-.37-.17-.55-.27-.06-.02-.13-.06-.2-.09-.18-.09-.36-.18-.54-.28-.4-.21-.81-.44-1.21-.69-.12-.07-.25-.15-.37-.23h0s-.07-.05-.11-.07c-.26-.16-.51-.33-.77-.5-19.54,12.68-41.78,5.08-50.27-2.38-17.91,8.35-22.98-8.96-22.98-8.96,0,0-8.65-1.04-4.78-17.75.51-2.21,1.04-4.34,1.6-6.38-1.16,5.53,8.13,5.75,8.13,5.75h0c.06.35,2.21,12.31,11.41,11.95,4.84-.18,7.17-2.37,8.3-4.44,1.01-1.85,1.06-3.59,1.06-3.73,0,0,5.72,11.76,15.41,16,6.03,2.62,10.25,2.02,16.39-2.43,0,0,0,0,0,0,3.73-2.7,8.17-6.81,14.15-12.48t.01-.01c3.11,13.48,20.2,11.96,32.81,3.51,2.07-1.38,4.01-2.95,5.76-4.67,12.38-12.21,20.01-56.77,20.01-56.77,6.52-39.41,9.78-56.01,9.49-104.07-.29-48.07-13.93-66.95-26.08-131.56-12.16-64.61-10.08-115.3-18.96-177.84-4.29-30.18-12.45-57.05-21.35-83.04-9.53-27.85-19.91-54.7-27.27-83.53-3.46-13.55-9.06-28.32-15.56-42.89-20.2-45.36-49.05-88.94-49.05-88.94l-1.06-7.09-.69-4.61-.29-1.98.5-.08.99-.16.72-.11.57-.09,19.05-2.95,14.96-2.31,26.95-2.28,18.19-1.53,38.56-3.26,84.1-7.11,3.84-.32,9.74-.82,150.81-12.74,23.14-1.96,23.19-1.96s-1.65,1.6-4.53,4.36c-.02.03-.04.05-.06.06-.53.5-1.09,1.04-1.7,1.61-9.44,8.97-28.18,26.51-47.15,42.67-3.95,3.36-7.91,6.67-11.8,9.83-11.89,9.65-23.12,17.91-31.31,22.18-23,12.01-53.13,47.53-62.88,81.9-2.59,9.13-3.75,18.18-2.95,26.68,1.21,12.88,8.18,27.4,17.83,42.11,5.42,8.27,11.7,16.59,18.27,24.73h.01c4.46,5.54,12.54,10.03,17.11,15.29,14.41,16.58,32.15,11.41,40.62,22.17,5.12,6.51,14.02,22.69,16.65,31.6,3.47,11.7-7.2,37.61-6.45,48.75l-9.01,2.95Z"/>
                <path class="cls-14" d="M733.7,652.61c-31.68,23.51-196.89,142.5-256.68,112.09-66.26-33.7-124.88-137.5-124.88-137.5,32.56,25.66,102.27,78.9,127.25,82.34,24.98,3.45,46.64,0,63.32-10.72-11.28,2.29-50,1.14-63.32-8.04,80.51,7.66,104.09-45.97,64.84-53.9-39.25-7.94-27.01-23.86,17.64-13.26,96.74,29.73,114.43-20.38,114.43-20.38,0,0-1.67,25.49-36.51,76.05,55.79-21.87,97.86-77.36,99.16-79.08-3.13,6.48-5.34,11.64-5.84,14.46-1.23,6.81-.2,26.16.59,37.94Z"/>
                <path class="cls-16" d="M762.85,452.76s-6.82-36.27-51.71-51.4c-3.23,40.52-32.76,55.71-32.76,55.71l-43.68-49.93,18.82,35.2-21.01-11.85,19.08,28.01-56.07-5.03s-22.62-31.6-34.61-30.52c-11.99,1.08-18.88,9.33-33.97,27.29-15.08,17.95-31.61,17.23-74.1,8.25-42.5-8.98-44.76-69.97-44.76-69.97,0,0-7.54,1.03-43.81,7.54-36.27,6.5-56.38,27.24-62.12,38.73-5.75,11.49-27.29,64.64-27.29,64.64,0,0,48.11,89.41,62.84,119.57,14.73,30.16,43.81,81.15,26.57,78.28-17.24-2.87-44.52-10.77-39.86,2.16,4.67,12.92,25.14,30.52,14.01,44.89-8.44,10.89-46.86,23.65-64.9,29.18-8.25-28.57-17.44-53.96-18.05-74.42-.72-24.07,8.25-43.45.36-58.54-7.9-15.08-5.75-20.11-2.87-44.89,2.87-24.77-21.19-104.85-21.19-104.85l12.57-24.42-5.99-.36s18.67-55.06,31.13-91.92c-7.73-32.68-6.89-62.22-4.31-83.04,2.39-19.15,6.23-30.91,6.23-30.91,0,0,11.96-147.46,63.68-171.41,0,0,23.89-5.3,52.51,42.41,28.62,47.7,57.25,79.93,62.91,81.48,27.34-10.58,64.21-3.61,85.36,4.13,21.15,7.73,32.75-12.64,69.36,3.6,39.71-42.8,111.66-104.43,135.64-94.63,23.97,9.79,14.43,89.21,7.73,134.34-1.43,9.7-3,17.86-4.57,24.96-5.51,25.01-11.11,36.91-11.88,56.59l-4.84-.2-42.64-41.46c1.1,1.18,19.16,20.71,48.2,67.61,29.99,48.41,29.99,85.18,29.99,85.18Z"/>
                <path class="cls-14" d="M611.51,514.04s15.76,24.24-17.12,45.15c-32.88,20.91-45.52,18.41-59.85,13.64-14.32-4.78-21.97-9.55-25.76-16.97-3.79-7.42-20-7.88-25.15,2.27-5.15,10.15,1.97,14.85,14.09,14.39s29.7,21.21,53.03,23.33c23.33,2.12,52.12-5.15,77.57-5.45,25.45-.3,37.88,2.27,44.39,4.39s-7.12,19.7-7.12,19.7c0,0,9.24-5.15,12.88-16.21,3.64-11.06,4.24-12.58,4.24-12.58l10.45-4.7,3.33-4.09s-10.91-20.91-14.85-30.6c-3.94-9.7,5.15-28.64,5.15-28.64l-75.3-3.64Z"/>
                <path class="cls-11" d="M748.58,260.1c-1.43,9.7-3,17.86-4.57,24.96.26-46.09,3.85-143.88-9.37-145.57-15.71-2-72.23,37.11-121.9,89.07-52.24-9.7-61.38,8.28-94.21-1.99-32.83-10.28-60.81-3.44-71.94-8.28-11.13-4.85-61.38-64.52-74.22-88.22-12.85-23.69-38.82-32.26-47.67-21.41-8.85,10.85-33.4,68.23-38.26,102.2-4.85,33.98-21.27,80.24-21.27,80.24h-.01c2.39-19.16,6.23-30.92,6.23-30.92,0,0,11.96-147.46,63.68-171.41,0,0,23.89-5.3,52.51,42.41,28.62,47.7,57.25,79.93,62.91,81.48,27.34-10.58,64.21-3.61,85.36,4.13,21.15,7.73,32.75-12.64,69.36,3.6,39.71-42.8,111.66-104.43,135.64-94.63,23.97,9.79,14.43,89.21,7.73,134.34Z"/>
                <path class="cls-14" d="M441.45,223.42c-7.8,15.76-27.28,32.07-47.05,46.16-17.8,12.7-35.85,23.6-45.74,30.63-20.83,14.84-39.39,26.55-73.93,67.38-6-47.11,8.56-103.92,8.56-103.92.58,61.95,4.58,69.08,20.56,60.81,15.98-8.28,17.98-19.7,9.43-36.54-8.57-16.84-6-13.13-9.43-45.97-3.42-32.82,14.56-101.62,27.69-106.19,13.13-4.57,30.83-6.86,60.81,58.51-1.4-19.1-9.45-40.43-9.7-41.09,19.7,21.43,40.53,78.2,40.53,78.2l18.26-7.99Z"/>
                <path class="cls-16" d="M371.23,227.41s-6-32.83-18.84-52.81c-12.85-19.98-21.41-18.27-30.26,1.71-8.85,19.98-11.99,60.52-6.28,89.64,5.71,29.12,12.82,35.97,26.25,30.83,13.43-5.14,15.27-7.71,15.27-7.71,0,0-13.26-18.84-16.69-33.4,18.27,20.27,25.69,24.55,25.69,24.55,0,0-22.27-29.4-25.69-37.11,24.27,9.42,30.55,10.85,30.55,10.85l-31.69-45.68c24.27,21.7,31.69,19.13,31.69,19.13Z"/>
                <path class="cls-14" d="M620.01,227.14s60.66,49.84,104.38,112.14c-12.46-24.45-15.99-31.27-15.99-31.27,0,0,22.8-21.16,25.63-24.8l-15.05,4.35s16.22-24.69,17.63-69.12c1.41-44.43-8.93-49.37-31.5-23.27-22.57,26.1-27.74,37.85-27.74,37.85,0,0,20.22-3.06,28.68-5.64-26.33,20.69-29.76,29.15-29.76,29.15,0,0,19.18-2.59,27.64-1.41,8.46,1.18-23.98,22.1-23.98,22.1,0,0-16.93-18.57-28.92-30.33,31.5-64.89,55.72-91.92,55.72-91.92,0,0-25.16,19.98-41.38,43.49-16.22,23.51-16.93,33.62-26.8,30.56s-18.57-1.88-18.57-1.88Z"/>
                <path class="cls-14" d="M561.18,264.67s19.37,39.84,23.19,61.18c3.82,21.34,7.28,2.1,4.93-18.13-2.34-20.23-14.31-38.36-28.12-43.05Z"/>
                <path class="cls-11" d="M493.83,349.04c15.22,9.82,36.26,29.85,47,30.59,10.73.74,19.74-23.81,9.74-42.55-9.99-18.75-28.37-24.3-46.38-20.23-18.01,4.07-23.93,23.44-10.36,32.19Z"/>
                <path class="cls-11" d="M646.54,365.94c11.1-7.28,28-13.47,22.57-26.66-5.43-13.19-21.46-21.33-37.99-12.2-16.53,9.13-18.13,32.56-10.48,43.79,7.65,11.22,25.9-4.93,25.9-4.93Z"/>
                <path d="M533.23,411.65c3.36,4.01-.9,4.05-10.82,2.67-9.92-1.39-28.53,3.11-46.49-1.81-17.96-4.92-25.36-12.35-30.62-18.58-5.26-6.23-14.42-9.58-14.42-9.58,0,0,25.87-7.58,37.5-9.41,11.62-1.82,33.58.74,46.8,15.15,13.22,14.4,16.33,19.52,18.05,21.57Z"/>
                <path class="cls-1" d="M461.37,385.5c-4.49,1.3-2.66,12.33,5.12,17.08,7.78,4.74,19.64,6.83,27.23,4.17,7.59-2.66,7.69-10.91,2.56-10.53s-12.52,4.93-19.45,1.33c-6.93-3.61-9.58-13.76-15.47-12.05Z"/>
                <path class="cls-9" d="M470.86,380.75c3.89-2.66,11.96-3.86,9.96,1.72-1.99,5.58-9.3,8.24-12.62,5.01-3.32-3.23,2.66-6.74,2.66-6.74Z"/>
                <path d="M634.65,407.23s-1.04-13.08,8.02-26.5c9.06-13.41,33.65-10.8,50.69-1.88-1.45,2.79-4.54,7.16-5.64,11.83-1.1,4.67-5.84,11.07-13.78,14.88-6.81,3.27-19.14,8.81-39.29,1.67Z"/>
                <path class="cls-1" d="M647.67,395.7c.17,3.24,2.28,11.67,14.04,8.54,11.76-3.13,16.41-13.66,15.46-18.02s-5.44-4.74-6.99-.66c-1.55,4.08,2.82,7.97-3.63,9.49-6.45,1.52-5.5,3.41-10.53,1.52-5.03-1.9-8.44-2.66-8.35-.85Z"/>
                <path class="cls-9" d="M654.88,386.78c4.08-3.23,3.6-8.73-1.14-8.63s-7.4,7.3-5.41,10.53c1.99,3.23,6.55-1.9,6.55-1.9Z"/>
                <path class="cls-1" d="M264.34,737.09l16.19,55.97s53.57,31,96.24,34.66c7.45,12.06,17.13,19.13,31.12,10.11,18.46,3.84,21.29,2.06,23.61.75,2.32-1.31,12.22,1.1,17.9-.48,5.67-1.58,14-7.81,14-7.81,0,0,4.68,9.62,21.34,10.3,16.66.68,34.11-11.79,37.71-17.61,30.02-7.18,101.27-34.27,131.48-51.34,30.21-17.07,72.88-52.02,78.3-61.77,5.42-9.75,11.51-20.73,11.51-20.73l-9.35-27.13-1.53-22.45s-52.3,49.67-82.35,63.85c-30.04,14.18-80.71,41.27-101.16,46.28-20.45,5.01-46.23,10.16-46.23,10.16,0,0-24.07-9.12-42.56,6.68-10.09-3.03-30.57-6.37-39.16-4.16-10.48-1.98-16.82,1.28-16.82,1.28,0,0-16.06-12.21-31.82,5.13-26.31-5.98-90.67-24.23-90.67-24.23l-17.74-7.46Z"/>
                <path class="cls-10" d="M621,477.89c-4.97,1.61-3.72,9.97,16.87,6.8,20.58-3.17,32.65.82,41.17.18,8.52-.63,9.52-8.8-13.33-10.7-22.85-1.9-38.27,1.63-44.71,3.72Z"/>
                <circle class="cls-1" cx="544.24" cy="548.88" r="3.48"/>
                <circle class="cls-1" cx="542.72" cy="530.4" r="3.48"/>
                <circle class="cls-1" cx="557.42" cy="535.7" r="3.48"/>
                <circle class="cls-1" cx="573.93" cy="522.01" r="3.48"/>
                <circle class="cls-1" cx="588.17" cy="533.89" r="3.48"/>
                <circle class="cls-1" cx="690.29" cy="537.37" r="3.48"/>
                <circle class="cls-1" cx="702.87" cy="528.73" r="3.48"/>
                <circle class="cls-1" cx="701.5" cy="539.19" r="3.48"/>
                <circle class="cls-1" cx="697.26" cy="552.37" r="3.48"/>
                <circle class="cls-1" cx="570.45" cy="538.19" r="3.48"/>
                <circle class="cls-1" cx="560.9" cy="552.37" r="3.48"/>
                <path class="cls-1" d="M904.4,960.56s.11-1.52.28-3.7c0-.03,0-.05,0-.08,0,0,0,0,0,0,.38-5.18,1.01-13.99.97-15.1v-.06s0-.05,0-.07c0-.03,0-.06-.01-.09,0-.02,0-.04,0-.06-.13-.87-.61-3.5-1.09-6.89v-.04s0-.04,0-.05c-.25-1.81-.5-3.85-.69-5.94v-.03c-.2-2.19-.34-4.44-.34-6.58,0-5.11-.84-8.85-1.57-13.07h0v-.02c-.47-2.76-.88-5.71-.94-9.42-.05-2.95-.69-6.5-1.53-9.98,0,0,0-.01,0-.02-1.24-5.12-2.94-10.06-3.9-12.75h0c-.46-1.29-.75-2.04-.75-2.04,0,0,2.03-4.54,0-14.01l-.02-.13c-1.77-8.25-4.91-21.95-15.73-28.97t-.01-.01h0c-1.64-1.07-3.46-1.99-5.48-2.7-.52-3.42-1.21-6.87-2.06-10.33-3.63-14.92-9.96-29.84-15.93-41.93-.02-.04-.04-.07-.06-.11-.01-.04-.04-.07-.05-.11-.48-.86-.97-1.72-1.48-2.58-.5-.87-1.01-1.74-1.53-2.61-.46-.79-.94-1.59-1.41-2.39-.16-.25-.31-.5-.46-.76-.43-.71-.87-1.43-1.31-2.14-.54-.89-1.09-1.79-1.65-2.68-.56-.9-1.12-1.8-1.7-2.7-1.15-1.81-2.33-3.63-3.53-5.47-2.82-4.33-5.81-8.73-8.93-13.19-1.04-1.48-2.09-2.98-3.17-4.48-.57-.8-1.17-1.6-1.77-2.38l-.02-.02s-.02-.04-.04-.05c-2.25-2.9-4.73-5.69-7.4-8.37-.31-.31-.62-.62-.94-.93-.94-.92-1.91-1.84-2.89-2.73-.33-.3-.66-.6-.99-.89-.55-.49-1.11-.98-1.67-1.46-.26-.23-.52-.45-.79-.67-.45-.38-.9-.76-1.36-1.13-.19-.17-.38-.33-.57-.48-.43-.35-.86-.7-1.29-1.03-.25-.21-.5-.4-.75-.6-.57-.45-1.14-.89-1.72-1.33-.09-.07-.17-.13-.26-.19-.54-.41-1.08-.82-1.63-1.21-.2-.15-.4-.3-.6-.44-.68-.49-1.36-.98-2.04-1.45-.74-.53-1.48-1.04-2.22-1.54-.74-.5-1.48-1.01-2.24-1.5,0,0,0,0,0,0-.02,0-.04-.03-.06-.03l-31.81-17.26s-.02-.02-.03-.02l-.09-.04c-7-3.17-13.24-5.63-17.96-7.38l-7.08.24h0s-1.44-3.22-1.44-3.22l-.63-1.41-.15.71-.9,4.51,3.47,6.48.03.06,1.85,3.43.5.94,4.36,8.13,8.81,16.41,7.62,14.24s.57.21,1.58.65c.37.16.79.35,1.28.57,1.52.72,3.54,1.75,5.79,3.12,0,0,.01,0,.01,0,0,0,.01,0,.02.01,6,3.65,13.6,9.74,17.78,18.67.61,1.31,1.27,2.77,1.98,4.38,0,.01,0,.02.01.04t.01.01s0,0,0,.01c5.88,13.14,15.05,35.33,25.05,54.23,0,0,0,.01,0,.01,0,.01.01.01.01.01,3.82,7.22,7.75,13.95,11.67,19.52,0,0,0,0,0,.01h.01c.04.06.09.13.12.19.22,1.63.59,3.48,1.07,5.51.03.13.06.26.09.4,1.45,5.99,3.83,13.33,6.27,20.24.01.04.02.09.04.13,2.99,8.45,6.05,16.18,7.56,19.91,0,0,.01.02.01.03.56,1.4.91,2.24.94,2.34h0s0,0,0,.02h0c-.1.71-1.52,11.26,1.06,34.19.39,3.53.89,7.35,1.49,11.48-.36,3.2-.47,6.27-.38,9.21v.02c0,.06,0,.13,0,.2h0s0,.03,0,.04c.5,15.66,6.29,26.83,6.47,27.18h0s0,.02,0,.03c0,0,0,.02,0,.03-.36,1.53-8.25,35.38-8.53,61.86v.09c-.3,26.58-16.68,85.05-27.65,106.21-.01.03-.02.05-.04.07-.23.43-.43.83-.66,1.21-3.52,6.42-8.89,14.49-15.06,23.6-6.22,9.16-13.24,19.37-20.03,29.99-.02.03-.04.06-.06.09-.56.88-1.12,1.76-1.67,2.65-1.11,1.75-2.21,3.52-3.29,5.29-.26.4-.5.81-.75,1.22-5.34,8.77-10.33,17.69-14.39,26.44,0,0-.01,0-.01.02h.01c4.21.11,8.27-.2,12.17-.87,13.47-2.26,25.16-8.71,34.96-16.76,4.52-3.73,8.65-7.81,12.35-11.96.01-.01.03-.03.04-.04.01-.02.02-.03.04-.04,4.34-4.89,8.11-9.91,11.27-14.63h0s.05-.07.07-.11c3.85-5.37,8.57-13.71,13.61-23.84.03-.06.06-.13.09-.18.01-.03.03-.06.04-.09,8.42-16.98,17.69-38.9,25.13-60.24,2.36-6.76,4.53-13.46,6.44-19.93,1.7-5.74,3.19-11.3,4.4-16.56,9.55-41.23,13.73-84.5,13.73-84.5h0s0,0,0,0c.23-.13,4.03-2.22,7.85-6.23,3.96-4.15-1.26-9.19-1.26-9.19Z"/>
                <path class="cls-1" d="M767.17,735.26c-1.09,15.32-7.45,33.21-20.42,52.33-4.28,6.32-9.28,12.77-15.05,19.3-.02.03-.04.06-.07.09-2.99,3.38-5.63,6.37-7.98,9.03-13.06,14.8-16.85,19.09-17.95,20.33l-.45.51s.07.12.19.36c.03.06.06.11.08.16.69,1.41,2.46,5.56,2.65,11.57v.05c0,.09.01.19.01.28.09,4.22-.6,9.34-2.97,15.02h0c-2.1,5.05-5.53,10.55-10.9,16.29-1.15,1.23-2.36,2.47-3.65,3.73-.22.22-.44.44-.67.65-1.49,1.45-3.07,2.93-4.73,4.43-2.24,2.02-4.61,4.08-7.09,6.15-.02.03-.04.05-.06.06-3.03,2.54-6.23,5.12-9.55,7.72-24.2,18.94-55.1,39.15-76.94,54.79-6.37,4.56-14.01,10.13-22.19,16.49-7.44,5.79-15.32,12.24-23.1,19.2-9.52,8.5-18.88,17.76-27.05,27.49-.53.62-1.04,1.25-1.55,1.87-6.8,8.3-12.7,16.91-17.09,25.67-.11.23-.23.47-.35.7-.11.24-.23.48-.35.72-.03.05-.05.11-.08.16-.6,1.27-1.18,2.54-1.72,3.82-2.51,5.92-4.27,11.88-5.11,17.84,0,.01,0,.02,0,.04-2.48,17.73-2.21,35.14.46,51.27,4.22,25.46,14.41,47.78,29.15,63.36,24.1,25.47,71.8,39.02,88.96,34.55.51.92,22.18,3.59,22.69,4.46,2.35,4.1.25,5.69,2.44,8.86,13.14,19.09,6.16,22.79,8.89,23.41.5.11.76.13.76.13,0,0-.2.06-.58.17-1.7.5-7.03,2.02-14.68,3.93-2.11.53-4.39,1.09-6.83,1.67-3.8.89-7.95,1.83-12.36,2.75-.51.11-1.03.21-1.55.33-22.75,4.68-51.84,8.94-73.63,6.11-.01,0-.03,0-.04,0-.06,0-.12-.01-.18-.02-2.86-.38-5.59-.87-8.17-1.52-.04,0-.06-.01-.1-.02-.05-.01-.09-.02-.14-.04h-.01c-24.1-6.09-43.85-22.17-55.7-33.92,0,0-.01-.02-.02-.02t0-.01c-2.61-2.59-4.84-4.97-6.64-6.98-.04-.04-.06-.07-.09-.1-.08-.09-.15-.16-.21-.24h0c-3.34-3.76-5.14-6.17-5.14-6.17,0,0-31.27-24.5-56.93-57.77-.03-.03-.05-.06-.06-.09-3.48-4.51-6.86-9.19-10.03-13.99-.04-.05-.07-.11-.11-.16-2.74-4.14-5.32-8.37-7.71-12.65-.03-.05-.06-.11-.09-.16-4.99-8.99-9.87-18.6-14.7-28.49-1.01-2.07-2.02-4.16-3.02-6.25-8.43-17.53-16.7-35.68-25.03-52.62-10.23-20.81-20.57-39.78-31.45-53.51-17.15-21.67-32.74-48.12-41.77-68.64-.17-.38-.33-.75-.49-1.11-.26-.61-.53-1.22-.77-1.82-3.84-9.13-6.25-16.9-6.75-22.28-1.42-15.34-.38-22.08-.07-23.6.04-.23.07-.34.07-.34,0,0-3.11-1.28-5.95-4.19-2.87-2.92-5.47-7.48-4.39-14.03,2.18-13.06,8.48-43.99,11.47-49.52,2.78-5.15,6.14-3.15,7.64-7.96.11-.35.21-.74.3-1.16,0,0,0-.01,0-.02.1-.49.24-.97.42-1.41,1.17-2.95,3.85-4.71,6.91-3.55.15.06.31.12.46.2.43.2.87.47,1.31.79,1.84,1.36,3.73,3.83,5.44,7.74,3.34,7.61,19.1,39.9,45.46,64.47.03.03.06.05.09.09,15.53,14.45,34.74,26.2,57.24,28.67,4.14.45,8.4.6,12.77.38,26.21-1.31,48.07-4.69,67.15-9.94.05-.02.1-.04.16-.05,17.09-4.71,31.96-10.91,45.73-18.46,10.93-5.98,21.18-12.8,31.3-20.38,8.64-6.47,17.82-12.89,26.96-19.04,30.11-20.23,59.81-37.39,68.69-42.91.01,0,.03-.01.04-.02,6.8-4.23,11.4-5.94,16.02-5.17,2.62.43,5.24,1.66,8.27,3.69.66.44,1.34.92,2.04,1.43.07-.08.15-.15.23-.23.05-.05.11-.11.18-.18,3.5-3.54,29.34-29.81,48.57-53.24,7-8.54,13.14-16.71,16.98-23.26,0-.01.01-.02.01-.03,1.42-2.41,2.75-4.61,3.98-6.6h0c1.64-2.63,3.14-4.9,4.53-6.78t0,0c1.21-1.64,2.33-2.99,3.4-4.07,1.92-1.94,3.63-2.98,5.28-3.1,3.09-.23,5.93,2.76,9.31,8.96,1.09,1.98,2.22,4.29,3.45,6.93.57,1.24,1.1,2.52,1.57,3.84.31.88.6,1.77.86,2.68,1.75,6.02,2.43,12.77,1.9,20.11Z"/>
                <path class="cls-7" d="M471.29,793.11c10.04-5.26,25.58-7.95,28.37,1.03,3.09,9.95-8.77,11.68-20.02,13.73-15.6,2.84-16.99-10.23-8.35-14.76Z"/>
                <g>
                  <path class="cls-7" d="M405.63,763.14s-4.92-6.75-19.1-4.23c-14.18,2.52-14.3,9.72-13.5,25.05.8,15.33,3.09,45.76,11.1,53.19,8.01,7.44,19.9,8.01,24.25,1.6-11.1-20.71-9.04-58.45-8.69-64.4.34-5.95,2.86-10.07,5.95-11.21Z"/>
                  <path class="cls-7" d="M405.63,763.14s9.61-3.43,14.87-1.37c5.26,2.06,1.83,23.45,15.9,23.56,14.07.11,20.93-4.35,25.05-16.36,4.12-12.01,14.76-12.81,27.68-12.24,0,0,25.28-.34,9.49,6.98-15.79,7.32-19.22,7.26-19.22,7.26,0,0,7.09,30.38,8.81,40.67,1.72,10.3,3.32,13.5,3.32,13.5l30.89-3.43s1.6,9.27-19.33,14.3c-20.93,5.03-26.54,4.69-33.17-1.26-6.63-5.95-14.41-15.56-26.54-13.27-12.13,2.29-10.81,14.52-14.87,17.5-3.43,2.52-20.13-.23-20.13-.23"/>
                  <path class="cls-7" d="M430.43,836.26s23.23,8.67,32.96-7.58"/>
                  <path class="cls-7" d="M421.96,763.11s25.58-6.42,38.6,8.24"/>
                  <path class="cls-7" d="M732.86,636.87s-66.23,86.26-229.74,124.1"/>
                  <path class="cls-7" d="M742.74,692.56s-43.49,83.58-220.32,129.14"/>
                  <path class="cls-7" d="M262.86,737.69s59.23,22.87,110.87,30.12"/>
                  <path class="cls-7" d="M278.36,791.71s42.7,27.96,101.41,37.99"/>
                  <circle class="cls-7" cx="296.28" cy="773.52" r="7.25"/>
                  <circle class="cls-7" cx="346.77" cy="793.5" r="7.25"/>
                  <circle class="cls-7" cx="540.71" cy="784.45" r="7.25"/>
                  <circle class="cls-7" cx="631.55" cy="751.09" r="7.25"/>
                  <circle class="cls-7" cx="687.05" cy="715.88" r="7.25"/>
                </g>
                <path class="cls-1" d="M471.29,793.11c10.04-5.26,25.58-7.95,28.37,1.03,3.09,9.95-8.77,11.68-20.02,13.73-15.6,2.84-16.99-10.23-8.35-14.76Z"/>
                <path class="cls-7" d="M471.29,793.11c10.04-5.26,25.58-7.95,28.37,1.03,3.09,9.95-8.77,11.68-20.02,13.73-15.6,2.84-16.99-10.23-8.35-14.76Z"/>
                <path class="cls-12" d="M372.97,948.05s-18.23,2.95-15.41,24.2c2.82,21.25,11.02,44.33,33.97,46.04,22.95,1.71,27.81-4.66,30.56-10.89,2.75-6.23,18.17-20.07,17.97-30.96-.2-10.89,1.38-20.84-14.99-22.55-1.8,12.06,2.66,14.49,2.13,18.22-.52,3.74-9.38,26.95-19.02,30.82-9.64,3.87-18.49,3.61-26.23-2.49-7.74-6.1-12.33-20.4-10.76-26.36s4.79-11.28,4.79-11.28l-3.02-14.76Z"/>
                <path class="cls-7" d="M466.61,1229.1s-35.9-29.48-61.77-60.94c-25.87-31.46-44.05-80.41-60.6-116.77-16.55-36.36-52.21-81.81-70.39-115.6-18.18-33.8-6.53-44.28-10.99-54.77-6.8.23-9.98-6.29-9.05-18.18.93-11.89,4.43-53.84,15.62-54.57,2.56-14.25,6.76-14.65,15.38,0,0,0,43.91,109.15,141.94,92.28,98.03-16.88,122.27-55.66,175.14-87.98,52.88-32.32,54.88-30.68,65.01-22.34"/>
                <path class="cls-7" d="M466.61,1229.1s-35.9-29.48-61.77-60.94c-25.87-31.46-44.05-80.41-60.6-116.77-16.55-36.36-52.21-81.81-70.39-115.6-18.18-33.8-6.53-44.28-10.99-54.77-6.8.23-9.98-6.29-9.05-18.18.93-11.89,4.43-53.84,15.62-54.57,2.56-14.25,6.76-14.65,15.38,0,0,0,43.91,109.15,141.94,92.28,98.03-16.88,122.27-55.66,175.14-87.98,52.88-32.32,54.88-30.68,65.01-22.34"/>
                <path class="cls-7" d="M269.42,808.26s29.85,112.03,148.35,109.87c118.5-2.15,268.6-124.6,324.97-220.48,0,0,5.03-13.65,15.08,3.23,10.05,16.88,33.75,49.91-52.79,134.3s-150.46,111.32-178.47,141.12c-28.01,29.8-69.3,91.21-54.22,151.89,15.08,60.69,66.79,98.03,86.18,108.08"/>
                <path class="cls-7" d="M275.91,825.66s-16.69,40.41-11.56,58.36c5.13,17.95,68.66,100.18,89.68,141.12,21.02,40.94,39.33,116.34,58.72,139.68,19.39,23.34,31.77,44.75,31.77,44.75"/>
                <path class="cls-7" d="M705.04,835.19s21.19,30.16-46.32,75.05c-67.51,44.89-162.31,105.57-166.97,171.28-4.67,65.71,18.7,140.86,139.08,142.54"/>
                <path class="cls-7" d="M373.83,949.9s-14.3.85-14.66,19.03c-.36,18.18,6.3,48.35,37.2,49.08,30.9.73,40.84-31.63,42.66-44.23,1.82-12.6-3.18-19.77-13.95-19.88"/>
                <path class="cls-7" d="M374.72,962.36s-4.7,11.66-.98,26.81,21.29,20.97,37.05,11.63c15.75-9.33,18.33-32.97,13.35-37.33"/>
                <g>
                  <path class="cls-1" d="M339.52,899.07s-11.66,36.27-27.32,54.97c-15.66,18.7-6.46,32.68,11.49,12.93,17.95-19.75,26.96-47.36,28.56-61.39s-8.83-17.4-12.73-6.51Z"/>
                  <path class="cls-1" d="M478.46,903.05c11.13.61,11.85,24.06,24.06,39.5,12.21,15.44,31.96,28.73,39.86,31.24s-3.69,20.83-23.39,7.54c-19.7-13.29-25.28-17.7-40.53-43.5-15.24-25.8-3.51-34.97,0-34.78Z"/>
                  <path class="cls-1" d="M708.19,842.46c-.26-.51-.54-1.06-.83-1.62,0,0,0,0,0-.01-.56-1.1-1.17-2.25-1.83-3.46-.02-.05-.05-.1-.08-.16-.02-.04-.05-.09-.07-.13-.04-.08-.09-.15-.13-.23-.21-.4-.44-.8-.67-1.22-4.4-7.97-10.5-17.85-18.25-27.41-4.01-4.96-8.44-9.81-13.3-14.29-1.98-1.82-3.89-3.18-5.72-4.11h0c-.66-.35-1.31-.63-1.94-.86h0s0,0-.01,0c-.16-.06-.33-.13-.48-.17-12.79-4.25-22.34,10.91-33.31,18.39-9.55,6.51-10.74,13.84-8.35,21.03h0c2.47,7.47,8.77,14.75,13.59,20.74.17.21.34.42.51.64.18.23.37.47.56.71,6.07,7.69,14.53,19.3,22.16,25.68,3.85,3.23,7.49,5.12,10.51,4.5.44-.09.87-.23,1.28-.43,2.07-1.01,5.39-2.87,9.19-5.29.13-.08.28-.17.43-.26,3.43-2.19,7.25-4.82,10.91-7.66,7.09-5.52,13.63-11.86,15.8-17.48.01-.02.02-.05.04-.07.39-1.03.64-2.02.72-2.99.11-1.35-.11-2.63-.71-3.83ZM684.83,859.32c-3.48,2.7-7.2,4.75-9.23,5.59-.77.32-1.67.3-2.67,0h0c-5.74-1.7-14.54-12.66-20.31-21.77-6.76-10.68-13.53-18.13-15.41-21.43-1.73-3.02,5.28-9.33,6.47-10.38.11-.09.16-.15.16-.15,0,0,0,0,.01,0,12.41-7.79,16.61-11.42,28.49,4.66,1.36,1.82,2.57,3.49,3.68,5.01,8.62,11.85,10.39,15.17,15.66,22.84.7,1.01,1.08,2.05,1.21,3.1h0c.54,4.45-3.56,9.04-8.07,12.53Z"/>
                  <path class="cls-1" d="M398.19,946.86c23.9,2.21,27.15,1.47,26.9,8.5s.73,12.24-11.51,11.63c-12.24-.61-32.6-2.95-36.48-2.63-3.88.32-3.39-10.1-3.27-14.46s11.15-4.27,24.36-3.04Z"/>
                  <path class="cls-1" d="M369.7,1061.92s16.29,15.96,60.7,11.5c44.41-4.46,43.83-7.76,43.83-7.76,0,0,7.79,14.82-16.18,19.89-23.97,5.07-57.01,3.69-75.29.61-18.28-3.07-13.07-24.26-13.07-24.26Z"/>
                </g>
                <g>
                  <path class="cls-7" d="M339.52,899.07s-11.66,36.27-27.32,54.97c-15.66,18.7-6.46,32.68,11.49,12.93,17.95-19.75,26.96-47.36,28.56-61.39s-8.83-17.4-12.73-6.51Z"/>
                  <path class="cls-7" d="M478.46,903.05c11.13.61,11.85,24.06,24.06,39.5,12.21,15.44,31.96,28.73,39.86,31.24s-3.69,20.83-23.39,7.54c-19.7-13.29-25.28-17.7-40.53-43.5-15.24-25.8-3.51-34.97,0-34.78Z"/>
                  <path class="cls-7" d="M708.19,842.46c-.26-.51-.54-1.06-.83-1.62,0,0,0,0,0-.01-.56-1.1-1.17-2.25-1.83-3.46-.02-.05-.05-.1-.08-.16-.02-.04-.05-.09-.07-.13-.04-.08-.09-.15-.13-.23-.21-.4-.44-.8-.67-1.22-4.4-7.97-10.5-17.85-18.25-27.41-4.01-4.96-8.44-9.81-13.3-14.29-1.98-1.82-3.89-3.18-5.72-4.11h0c-.66-.35-1.31-.63-1.94-.86h0s0,0-.01,0c-.16-.06-.33-.13-.48-.17-12.79-4.25-22.34,10.91-33.31,18.39-9.55,6.51-10.74,13.84-8.35,21.03h0c2.47,7.47,8.77,14.75,13.59,20.74.17.21.34.42.51.64.18.23.37.47.56.71,6.07,7.69,14.53,19.3,22.16,25.68,3.85,3.23,7.49,5.12,10.51,4.5.44-.09.87-.23,1.28-.43,2.07-1.01,5.39-2.87,9.19-5.29.13-.08.28-.17.43-.26,3.43-2.19,7.25-4.82,10.91-7.66,7.09-5.52,13.63-11.86,15.8-17.48.01-.02.02-.05.04-.07.39-1.03.64-2.02.72-2.99.11-1.35-.11-2.63-.71-3.83ZM684.83,859.32c-3.48,2.7-7.2,4.75-9.23,5.59-.77.32-1.67.3-2.67,0h0c-5.74-1.7-14.54-12.66-20.31-21.77-6.76-10.68-13.53-18.13-15.41-21.43-1.73-3.02,5.28-9.33,6.47-10.38.11-.09.16-.15.16-.15,0,0,0,0,.01,0,12.41-7.79,16.61-11.42,28.49,4.66,1.36,1.82,2.57,3.49,3.68,5.01,8.62,11.85,10.39,15.17,15.66,22.84.7,1.01,1.08,2.05,1.21,3.1h0c.54,4.45-3.56,9.04-8.07,12.53Z"/>
                  <path class="cls-7" d="M398.19,946.86c23.9,2.21,27.15,1.47,26.9,8.5s.73,12.24-11.51,11.63c-12.24-.61-32.6-2.95-36.48-2.63-3.88.32-3.39-10.1-3.27-14.46s11.15-4.27,24.36-3.04Z"/>
                  <path class="cls-7" d="M369.7,1061.92s16.29,15.96,60.7,11.5c44.41-4.46,43.83-7.76,43.83-7.76,0,0,7.79,14.82-16.18,19.89-23.97,5.07-57.01,3.69-75.29.61-18.28-3.07-13.07-24.26-13.07-24.26Z"/>
                </g>
                <g>
                  <path class="cls-7" d="M768.52,733.89s25.69,20.16,39.33,53.26c13.64,33.1,16.47,49.4,24.78,48.9"/>
                  <path class="cls-7" d="M740.01,680.91s.22.06.63.2c1.24.4,4.27,1.4,8.53,2.98,4.72,1.75,10.96,4.22,17.96,7.38,9.83,4.44,21.18,10.24,31.98,17.35,0,0,0,0,0,0,11.99,7.88,23.32,17.39,31.19,28.42,9.73,13.64,18.24,26.77,25.15,39.02,11.62,20.6,18.69,38.69,19.42,52.47"/>
                  <path class="cls-7" d="M854.1,874.31s2.83,9.65-4.66,10.31c-7.49.67-14.64-39.26-16.8-44.58-2.16-5.32,7.15-10.98,28.61-9.98,21.46,1,26.28.83,29.78,14.14,3.49,13.31,6.82,26.45,1.66,27.78"/>
                  <path class="cls-7" d="M884.87,865.14l-6.15-20.93h-31.77l7.32,28.94,18.63-14.47s21.62,14.8,24.45,20.29c2.83,5.49,2.83,25.95,2.83,25.95"/>
                  <path class="cls-7" d="M848.28,904.92l51.9,1.5c6.99,7.15,3.33,23.9,3.33,23.9,0,0,5.82,18.85-.5,30.66,1.83,3.49,2.83,11.48-5.16,13.31-7.98,1.83-37.09,4.82-42.25-7.32-5.32-4.32-8.82-28.11-4.66-38.09-4.32-2.66-2.66-23.95-2.66-23.95l-1.33-20.29"/>
                  <line class="cls-7" x1="850.94" y1="928.87" x2="903.5" y2="930.31"/>
                  <path class="cls-7" d="M863.84,928.87l1.57,34.43c27.61-.17,37.59-2.33,37.59-2.33"/>
                  <path class="cls-7" d="M855.59,966.96s-13.85,139.86-46.34,187.06c-32.49,47.2-47.6,62.2-45.69,72.83"/>
                  <path class="cls-7" d="M897.85,974.28s-1.24,112.52-69.03,215.73"/>
                  <path class="cls-7" d="M863.84,973.7s2.19,130.39-80.58,234.02"/>
                  <path class="cls-7" d="M777.95,726.07s34.08,24.69,57.75,95.63"/>
                </g>
                <path class="cls-7" d="M615.32,1268.02c-.03-.08-.05-.14-.05-.14-.42.1-.85.2-1.27.29-31,7.22-60.51,8.93-85.76,3.38l-.16-.03c-22.69-5.03-41.92-15.91-55.72-33.94-1.53-2-2.98-4.08-4.37-6.26-.14-.18-.25-.37-.37-.56-.35-.54-.69-1.1-1.03-1.67-.42.28-.82.67-1.19,1.14-.05.06-.1.13-.15.19-3.91,5.19-5.37,19.94-5.78,35.55-.18,6.69-.16,13.54-.06,19.86.36,22.62,5.38,75.77-1.43,140.76-6.83,65-7.16,118.61-5.08,136.22,2.09,17.61-1.63,24.16-5.52,36.54-3.88,12.39.6,30.89-2.39,47.3-2.98,16.4-13.43,18.19-13.43,18.19,0,0-1.92,15.68-6.3,31.59-.01.02-.01.04-.02.05-1.07,3.89-2.29,7.79-3.67,11.48-7.01,18.79-8.65,22.08-22.08,27.74-.91.39-1.83.76-2.74,1.12-.46.19-.91.37-1.37.53l-.97.38c-1.53.57-3.06,1.09-4.59,1.56-.43.14-.85.26-1.28.39-.42.13-.84.24-1.27.36-.09.02-.19.04-.29.07-.38.09-.76.19-1.15.28-.45.1-.9.21-1.35.3s-.89.19-1.34.27c-1.34.24-2.68.43-4,.54-.44.03-.88.06-1.32.08-.29.02-.59.02-.87.03-2.26.06-4.49-.1-6.66-.56-.56-.12-1.1-.25-1.63-.4-.18-.04-.36-.09-.53-.15-.22-.07-.43-.14-.65-.21-2.17-.71-4.27-1.74-6.3-3.13-19.54,12.68-41.78,5.08-50.27-2.38-17.91,8.35-22.98-8.95-22.98-8.95,0,0-8.65-1.05-4.78-17.75.51-2.21,1.04-4.34,1.6-6.38,3.67-13.38,9.1-23.32,26.45-32.26,5.26-2.71,9.78-5.08,13.74-7.65,4.34-2.78,8-5.77,11.24-9.61,5.04-5.98,9.04-14.02,12.91-26.6.81-2.62,1.6-5.15,2.37-7.62.13-.39.24-.78.37-1.16.22-.71.44-1.41.65-2.12,6.22-20.07,10.76-36.21,10.16-56.46-.06-2.4-.2-4.85-.42-7.37-1.11-12.87-3.4-32.73-6.87-55.95-.01-.1-.03-.22-.05-.34-3.96-26.47-9.46-57.26-16.52-87.02-5.39-22.73-10.25-40.73-14.28-58.16,0-.01,0-.03-.01-.05-2.78-12.08-5.15-23.87-7.02-36.77l-.06-.41c-.59-4.14-1.13-8.38-1.61-12.79-.01-.04-.01-.08-.01-.13-1.18-10.74-2.03-22.41-2.5-35.68-.28-7.95-.56-14.97-.86-21.22-1.01-21.28-2.27-33.69-4.85-43.37-.01-.04-.02-.08-.03-.12-.54-2.03-1.15-3.95-1.82-5.8-.01-.02-.02-.04-.02-.06-2.36-6.45-5.55-12.17-10.01-19.56-13.65-22.62-35.91-40.57-35.56-121.38.27-60.73,5.61-100.58,8.24-116.61.42-2.48.75-4.39,1.01-5.71.09-.49.17-.89.23-1.23.1-.47.17-.8.2-.94h0"/>
                <path class="cls-7" d="M828.12,734.12c5.16.86,10.53,1.75,16.01,2.67,13.47,2.26,27.74,4.69,41.97,7.16,1.09.19,2.17.38,3.26.57.42.07.85.15,1.27.22,5.54.96,11.05,1.94,16.5,2.9,25.02,4.44,48.51,8.81,65.62,12.34,1.03.21,2.04.42,3.03.63,5.9,1.24,11.98,3.1,18.19,5.52,10.14,3.94,20.59,9.35,30.98,15.95,20.41,12.93,40.63,30.37,57.95,49.96.06.06.13.14.19.21.02.01.03.03.05.05,1.39,1.58,2.78,3.18,4.14,4.81.83.97,1.64,1.95,2.45,2.93,13.78,16.8,25.31,34.88,33.03,52.86,23.49,54.74,34.79,89.15,42.86,144.77.79,5.41,1.54,11.04,2.27,16.9,4.45,35.64,7.1,106.84,9.79,169.49h0c1.79,41.7,3.59,79.62,5.98,100.74,0,.04.01.08.01.12.66,5.87,1.37,10.42,2.14,13.4.4,1.55.82,3.02,1.28,4.41h0c2.11,6.59,4.69,11.41,7.38,15.49,0,0,.02.02.05.07.02.04.04.07.07.1.03.04.06.1.1.17.02.03.05.07.06.1h.02c7.25,10.89,15.11,16.84,16.13,38.3.04.79.06,1.6.08,2.43.76,33.99,15.27,119.11,19.86,165.69.71,7.3,1.45,14.08,2.01,20.27,3.08,33.34,1.67,49.89-29.88,41.19-19.47,17.19-31.68,12.99-45.81,6.49-16.8,5.73-30.16-8.01-30.16-8.01,0,0-17.94-4.96-3.44-34.36,4.59-9.29,9.36-13.81,13.59-17.22.01-.01.02-.01.03-.03,6.84-5.48,12.24-8.03,13.11-23.08.3-5.06.07-11.52-.78-19.98-.31-3.15-.65-6.35-.99-9.55-.35-3.2-.7-6.42-1.07-9.66-.17-1.41-.34-2.83-.5-4.24-.19-1.58-.38-3.16-.59-4.73-.19-1.58-.4-3.15-.61-4.72-.2-1.56-.42-3.12-.63-4.68-.45-3.23-.92-6.43-1.41-9.6-.14-.86-.27-1.72-.41-2.57-.12-.74-.24-1.48-.37-2.21-.05-.34-.1-.67-.17-.99-.43-2.62-.89-5.22-1.37-7.78-.25-1.39-.52-2.76-.8-4.14-.07-.37-.14-.73-.22-1.1-.17-.88-.35-1.75-.53-2.62-.13-.65-.26-1.29-.41-1.93-.17-.81-.35-1.61-.52-2.41-.4-1.78-.81-3.54-1.24-5.28-.12-.49-.23-.98-.36-1.48-.25-.97-.49-1.94-.74-2.9-.16-.62-.32-1.23-.49-1.83-.09-.36-.19-.71-.29-1.06v-.02c-.12-.4-.22-.8-.34-1.19-.17-.59-.32-1.16-.5-1.74-.19-.66-.39-1.31-.59-1.96-.39-1.3-.8-2.58-1.2-3.84-.17-.51-.35-1.04-.51-1.54-.06-.19-.14-.38-.2-.57-.61-1.78-1.24-3.52-1.9-5.21-.45-1.17-.91-2.33-1.39-3.46-.47-1.13-.95-2.23-1.46-3.31-.24-.54-.49-1.07-.75-1.59-.5-1.06-1.02-2.08-1.56-3.08-.26-.5-.52-.99-.81-1.48-.26-.49-.53-.96-.82-1.43-.27-.47-.56-.94-.84-1.39-.29-.47-.59-.93-.88-1.38-.28-.43-.57-.85-.86-1.27-.27-.4-.56-.8-.84-1.18-.32-.44-.64-.86-.97-1.28-.3-.4-.61-.79-.93-1.16-.3-.38-.63-.75-.95-1.11-.23-.26-.46-.52-.69-.78-.42-.45-.84-.88-1.27-1.3-21.38-20.99-72.15-70.23-104.22-115.67-32.07-45.43-61.47-110.71-85.89-132.47-4.16-3.71-8.22-6.57-12.27-8.62-19.73-10.02-38.93-.82-65.23,23.89-7.13,6.7-13.33,13.22-19.11,19.28-1.98,2.07-3.92,4.1-5.81,6.06l-.08.08c-4.19,4.33-8.23,8.35-12.35,11.96-12.78,11.23-26.29,18.53-47,18.73"/>
                <path class="cls-7" d="M279.63,800.64c-.42-4.46-1.05-8.43-1.91-11.77-1.34-5.21-2.76-10.33-4.21-15.34-2.89-10-5.89-19.61-8.6-28.75-5.03-16.99-9.05-32.37-9.45-45.67-.72-24.07,8.25-43.45.36-58.54-7.9-15.08-5.75-20.11-2.87-44.89,2.87-24.77-21.19-104.85-21.19-104.85l12.57-24.42-5.99-.36s18.67-55.06,31.13-91.92c-7.73-32.68-6.89-62.22-4.32-83.04,2.39-19.15,6.23-30.91,6.23-30.91,0,0,11.96-147.46,63.68-171.41,0,0,23.89-5.3,52.51,42.41,28.62,47.7,57.25,79.93,62.91,81.48,27.34-10.58,64.21-3.61,85.36,4.13,21.15,7.73,32.75-12.64,69.36,3.6,39.71-42.8,111.66-104.43,135.64-94.63,23.97,9.79,14.43,89.21,7.73,134.34-1.43,9.7-3,17.86-4.57,24.96-5.51,25.01-11.11,36.91-11.88,56.59-.02.74-.05,1.5-.06,2.26,29.15,45.12,35.34,56.72,40.49,108.3,5.15,51.57,5.41,65.24-4.39,88.96-7.04,17.05-21.15,42.36-29.19,58.99-.01.02-.02.03-.03.04-3.13,6.48-5.34,11.64-5.84,14.46-1.23,6.81-.2,26.16.59,37.94.38,5.6.7,9.5.7,9.5l4.73,15.89.58,1.92.15.5.15.5.85,2.85s.39,3.11,1.57,7.64"/>
              </g>
              <path d="M634.7,407.14s22.48,29.6,39.47,48.57c16.99,18.97,31.37,35.58,34.84,67.57,3.47,31.99-10.04,53.93-22.69,59.27-14.51-4.96-34.96-13.64-37.82-15.99-2.85-2.36,4.09-21.57,4.09-21.57,0,0,17.85-4.34,28.14-15.75,10.29-11.41,17.98-28.89,13.14-43.52-4.84-14.63-28.39-18.85-50.46-18.35-22.07.5-44.64,9.67-46.5,25.54-1.86,15.87,22.19,45.26,50.71,51.45,0,0-1.24,15.13-4.59,21.7-3.35,6.57-41.66,10.79-64.1,15.99-22.44,5.21-39.06-2.36-50.46-9.05-11.41-6.7-19.71-11.9-21.45-15.75-1.74-3.84-12.65-3.97-16.24,2.36-3.6,6.32,4.59,5.08,13.39,8.18,8.8,3.1,34.47,22.07,52.07,22.32,17.61.25,55.42-10.91,73.52-11.78,18.1-.87,38.68,4.09,49.35,8.31-4.34,15.87-18.04,39.87-48.33,43.86-30.29,3.99-66.38-6.62-68.92-6.89,4.44,7.62,37.09,12.88,52.96,13.24,15.87.36,38.36-3.81,53.5-19.95,15.14-16.14,15.6-29.74,15.6-29.74,0,0,18.32-3.72,25.75-27.29,7.44-23.58,4.35-50.42-4.62-68.92-8.98-18.5-34.55-45.79-43.35-55.32-8.8-9.52-22.42-27.78-22.42-27.78l-4.6-.71Z"/>
              <path class="cls-1" d="M612.39,478.07c9.67-4.17,38.9-7.89,58.76-3.9,19.86,3.99,20.49,11.34,20.4,21.4s-4.72,9.79-6.53,8.61c-1.81-1.18,1.63-8.52-2.54-9.25-4.17-.73-8.98,5.53-7.98,11.15,1,5.62,2.45,9.52,9.7,9.34-2.45,9.43-11.06,20.22-27.02,22.22l5.08-33.28-13.24,33.82s-16.96-5.44-25.3-11.34-11.06-10.25-10.43-12.6,10.16,5.44,24.21,1.09c14.06-4.35,11.15-19.13,1.09-20.04-10.07-.91-13.78,6.89-15.51,11.15-1.72,4.26-14.51,2.81-18.41-5.71-3.9-8.52-4.26-17.5,7.71-22.67Z"/>
              <g>
                <path class="cls-13" d="M584.89,821.3c8.72-27.12,1.41-35.62-14.04-37.98,0,0-17.57-7.02-27.05,14.54-9.49,21.56-137.55,410.31-137.55,410.31,18.27-7.03,35.1-10.73,48.5-6.54,0,0,121.42-353.19,130.14-380.32Z"/>
                <path class="cls-15" d="M587.61,811.04s2.1-23.1-13.04-26.99c-15.14-3.88-24.09,3-24.09,3l-3,4.24s27.1-7.73,23.56,19.93c-3.54,27.66-133.42,387.91-133.42,387.91l18.9-.04,131.08-388.06Z"/>
                <path class="cls-6" d="M454.75,1201.62s121.42-353.19,130.14-380.32c8.72-27.12,1.41-35.62-14.04-37.98,0,0-17.57-7.02-27.05,14.54-9.49,21.56-137.55,410.31-137.55,410.31"/>
              </g>
              <g>
                <g>
                  <path class="cls-8" d="M737.6,703.19l-164.61,94.02c-2.76,1.58-6.28.49-7.67-2.37l-.33-.67c-1.27-2.61-.29-5.76,2.24-7.19l164.94-93.35c2.91-1.65,6.62-.33,7.83,2.79h0c.99,2.54-.03,5.42-2.4,6.77Z"/>
                  <path class="cls-2" d="M737.6,703.19l-164.61,94.02c-2.76,1.58-6.28.49-7.67-2.37l-.33-.67c-1.27-2.61-.29-5.76,2.24-7.19l164.94-93.35c2.91-1.65,6.62-.33,7.83,2.79h0c.99,2.54-.03,5.42-2.4,6.77Z"/>
                </g>
                <g>
                  <path class="cls-1" d="M758.7,666.05c6.88,3.91,6.06,9.34-1.6,17.41-7.66,8.07-13.13,18.09-18.53,17.42-5.39-.67-9.98-6.5-.85-16.83,10.75-12.15,15.8-20.94,20.97-18Z"/>
                  <path class="cls-3" d="M758.7,666.05c6.88,3.91,6.06,9.34-1.6,17.41-7.66,8.07-13.13,18.09-18.53,17.42-5.39-.67-9.98-6.5-.85-16.83,10.75-12.15,15.8-20.94,20.97-18Z"/>
                  <circle class="cls-5" cx="741.39" cy="691.22" r="2.83"/>
                  <circle class="cls-5" cx="754.22" cy="675.67" r="2.83"/>
                </g>
              </g>
              <circle class="cls-1" cx="569.57" cy="794.44" r="16.35"/>
              <circle class="cls-7" cx="569.57" cy="794.44" r="16.35"/>
              <g>
                <path class="cls-16" d="M773.84,1190.01c-2.31,2.42-5.68,11.14-7.78,13.29-6.47,6.65-8.16,14.1-10.99,16.48-1.14.96-2.48,1.97-3.97,3.01-.06.04-.11.09-.17.12-2.31,1.6-5,3.29-7.93,4.97t-.01,0c-3.9,2.25-8.25,4.49-12.71,6.54-1.19.55-2.39,1.09-3.6,1.6-1.16.5-2.32.98-3.48,1.45-7.58,3.03-15.04,5.24-20.89,5.76h0c-5.45.48-11.87,3.04-18.32,6.2-.01,0-.02.01-.04.02-4.12,2.02-8.26,4.27-12.17,6.38-.02,0-.04.01-.06.03-7.35,3.95-13.89,7.35-18.03,7.61h0c-3.41.21-5.88-1.85-7.88-5.14-.06-.1-.11-.2-.18-.3-3.48-5.94-5.57-15.64-8.89-23.41-.16-.38-.32-.75-.48-1.11-5.6-12.34-8.52-10.35-22.95-48.6-.04-.09-.07-.18-.1-.28-.53-1.38-1.05-2.82-1.58-4.29-8.7-24.26-18.18-59.72-24.48-92.66-2.56-13.37-4.59-26.32-5.83-37.95,0-.02,0-.04,0-.05-.64-6-1.07-11.65-1.26-16.82-.16.08-.33.16-.5.23-.28.13-.56.26-.84.39-5.65,2.61-11.16,4.92-16.54,6.91-7.89,2.92-15.49,5.19-22.78,6.81-2.92.66-5.8,1.21-8.62,1.65-2.1.34-4.17.61-6.21.83-5.61.6-11,.78-16.18.56h-.09s-.04,0-.06,0c-2.52-.11-4.99-.31-7.4-.62-.18-.02-.35-.04-.52-.07-4.07-.53-7.98-1.33-11.75-2.41,0,0-.01,0-.01,0-2.39-.67-4.73-1.47-7-2.36-9.03-3.56-17.07-8.8-24.08-15.61h0c-3.29-3.21-6.34-6.76-9.15-10.64,0-.01-.01-.02-.03-.04-.2-.28-.4-.55-.59-.83-.01-.03-.04-.06-.05-.08-2.44-3.49-4.44-7.07-6.01-10.7-2.86-6.58-4.37-13.35-4.78-20.16-.06-.97-.1-1.95-.11-2.92-.09-6.37.75-12.76,2.32-19.03.08-.33.16-.66.26-.99.1-.41.21-.82.33-1.22.11-.44.24-.88.38-1.32,3.88-13.14,10.88-25.68,19.13-36.43.94-1.23,1.9-2.44,2.88-3.62,2.55-3.1,5.19-6.03,7.88-8.74.48-.48.97-.97,1.47-1.45.51-.49,1.04-.99,1.58-1.48.23-.21.48-.43.72-.64,2.02-1.82,4.24-3.65,6.61-5.49,20.11-15.54,51.89-31.25,83.67-41.88.02,0,.05-.02.08-.02,7.6-2.55,15.2-4.8,22.64-6.69,8.24-2.09,16.28-3.74,23.9-4.85.06,0,.12-.01.18-.02,9.99-1.44,18.74-1.5,26.59-.32,13.44,2.02,24.31,7.69,34.46,16.33.38.33.77.66,1.15,1,.02.01.04.03.06.06,2.7,2.38,5.37,4.98,8.02,7.78,2.95,3.1,5.87,6.46,8.83,10.03.06.06.11.12.16.18,6.59,7.96,13.34,17.04,20.83,27.06.01,0,.02-.02.04-.04,5.48-5.88,11.13-11.32,16.9-16.35.06-.05.12-.1.18-.15,16.32-14.19,33.52-25.11,50.1-33.48,5.54,54.18,17.21,211.62-4.2,327.99Z"/>
                <path class="cls-11" d="M569.99,1016.56s19.33-31.37-12.28-53.26c-31.61-21.9-49.94-75.61-81.38-54.46-31.44,21.15-52.35,78.99-28.05,109.68,24.3,30.69,69.86,43.78,106.02,26.11,36.16-17.67,15.69-28.07,15.69-28.07Z"/>
                <path class="cls-14" d="M778.89,1125.95c-92.35,133.31-158.67-37.73-156.72-79.11,1.95-41.38,39.39-72.69,39.39-72.69,0,0-26.2-13.15-47.59,8.34-21.38,21.49-71.92,44.74-104.84,40.08-32.92-4.66-55.24-60.31-46.61-77.85,8.63-17.55,25.95-43.87,25.95-43.87,0,0-41.68,22.69-48.04,57.82-6.35,35.14-3.57,80.15,67.83,91.57,43.01-.72,70.23-17.97,70.23-17.97,0,0,9.45,58.08,11.9,79.37,2.44,21.3,21.53,72.9,32.38,97.93,10.84,25.02,16.21,23.68,20.59,39.64,4.37,15.96,9.35,17.4,40.62.23,31.26-17.17,45.91-10.89,56.97-19.89"/>
                <g>
                  <path class="cls-7" d="M710.82,912.04s-1.92-65.75,61.21-103.78"/>
                  <g>
                    <path class="cls-7" d="M770.22,1210.99c0-1.94-15.79,9.29-16.11,9.54-1,.77-2,1.53-3,2.26-.06.04-.11.09-.17.12-3.36,2.46-6.69,4.68-9.99,6.64-2.41,1.44-4.8,2.73-7.17,3.87-2.46,1.18-4.88,2.19-7.27,3.02-1.11.39-2.22.74-3.32,1.04-.61.16-1.21.32-1.82.46-5.86,1.38-11.2,2.85-16.07,4.35-1.02.31-2.02.62-2.99.94h0c-5.29,1.71-9.99,3.46-14.19,5.17-.01,0-.03,0-.04.01-.91.37-1.8.74-2.66,1.1h0c-1.67.72-3.27,1.43-4.78,2.12-2.03.93-3.91,1.84-5.66,2.7-11.04,5.47-16.93,9.52-21.29,9.13h0c-1.86-.17-3.44-1.14-5.02-3.17-.27-.35-.53-.7-.79-1.06,0,0,0-.01-.01-.02-1.12-1.59-2.07-3.26-2.89-5,0-.01,0-.03-.01-.04-1.99-4.23-3.26-8.83-4.66-13.43,0,0,0-.01,0-.02-2.04-6.68-4.36-13.36-9.54-18.92-1.93-2.08-5.07-7.81-8.84-16.12-2.63-5.8-5.56-12.85-8.62-20.79-.04-.09-.07-.18-.1-.28-.55-1.41-1.09-2.84-1.64-4.3-1.55-4.13-3.12-8.47-4.68-12.96-5.98-17.15-11.92-36.6-16.49-55.78-1.87-7.85-3.51-15.66-4.83-23.23-.51-2.94-.97-5.83-1.38-8.69-2.14-14.92-5.98-31.35-4.95-42.88.09-.97.2-1.91.36-2.8"/>
                    <path class="cls-7" d="M749.02,993.96s-36.27-112.86-95.42-139.11c-59.16-26.25-179.67,45.38-203.27,80.36-23.6,34.98-18.72,115.63,64.57,116.1,83.29.47,92.66-63.47,125.15-72.98"/>
                    <path d="M435.62,972.89c15.84-12.36,34.1-22.87,54.2-25.77-9.61,2.51-18.49,7.02-26.7,12.48-8.07,5.44-15.76,11.72-22.51,18.68-3.69,3.58-8.85-1.96-4.98-5.39h0Z"/>
                    <path d="M469.31,1035.11c9.17-17.88,21.32-35.09,38.34-46.17-7.66,6.32-13.82,14.14-18.98,22.55-5.03,8.33-9.37,17.26-12.57,26.41-1.85,4.8-8.85,1.94-6.78-2.79h0Z"/>
                    <path d="M535.79,1048.39c-.2-20.09,2.55-40.98,12.46-58.71-3.84,9.16-5.65,18.95-6.31,28.79-.58,9.72-.27,19.63,1.16,29.23.6,5.11-6.93,5.83-7.3.68h0Z"/>
                  </g>
                </g>
              </g>
              <path class="cls-14" d="M842.92,1010.83s-13.56,89.22-30.27,124.9c-16.72,35.68-39.02,73.47-71.23,88.33-32.21,14.86-89.23-89.42-89.23-89.42,0,0,32.15,55.76,80.29,35.92,48.14-19.84,53.75-120.94,53.75-120.94,0,0,3.65,43.25,20.25,44.97s36.44-83.76,36.44-83.76Z"/>
            </g>
            <path d="M451.64,931.34s-11.68,36.3,5.45,29.77c-14.94,24.74-11.87,42.92-7.59,55.21s20.32,16.41,32.21,2.53c-2.14,22.46,19.64,28.61,35.54,26.6s20.98-15.83,20.98-15.83c0,0,.8,13.56,16.3,9.68,15.5-3.87,26.46-9.09,26.46-9.09,0,0-31.4,22.41-63.33,21.09s-59.59-11-72.42-36.29c-12.83-25.29-9.62-62.97,6.41-83.68Z"/>
          </g>
        </g>
        <path d="M540,1059.11c-70.08,0-138.06-13.73-202.06-40.8-61.82-26.15-117.33-63.58-165.01-111.25-47.67-47.67-85.1-103.19-111.25-165-27.07-64-40.8-131.99-40.8-202.06s13.73-138.06,40.8-202.06c26.15-61.82,63.58-117.33,111.25-165.01s103.19-85.1,165.01-111.25c64-27.07,131.99-40.8,202.06-40.8s138.06,13.73,202.06,40.8c61.82,26.15,117.33,63.58,165.01,111.25s85.1,103.19,111.25,165.01c27.07,64,40.8,131.99,40.8,202.06s-13.73,138.06-40.8,202.06c-26.15,61.82-63.58,117.33-111.25,165-47.67,47.67-103.19,85.1-165.01,111.25-64,27.07-131.99,40.8-202.06,40.8ZM540,29.71C258.62,29.71,29.71,258.62,29.71,540s228.92,510.29,510.29,510.29,510.29-228.92,510.29-510.29S821.38,29.71,540,29.71Z"/>
      </g>
    </g>
  </g>
</svg>
